<svg width="20" height="20" viewBox="0 0 20 20" fill="none" xmlns="http://www.w3.org/2000/svg">
<path d="M7.98648 6.16645C7.56256 6.77959 6.66644 7.63542 6.66644 8.33333C6.66644 9.16436 7.55197 10.8378 8.70203 11.9737C9.85208 13.1096 10.825 13.75 11.6664 13.75C12.2393 13.75 12.5271 12.3684 14.0572 12.3684C15.2047 12.3684 16.6665 13.6184 17.0831 15C17.3031 15.7296 16.5269 16.3938 15.5833 16.8832C14.6133 17.3862 13.4968 17.5544 12.4126 17.4185C10.7751 17.2132 8.51766 16.4906 5.83311 13.9474C2.58185 10.4167 2.4177 8.10365 2.49977 5.84488C2.58185 3.5861 4.58311 2.5 5.25943 2.5C5.8775 2.5 7.79506 4.14836 8.12077 5.47884C8.17897 5.71659 8.12568 5.96511 7.98648 6.16645Z" stroke="#222628" stroke-linecap="round" stroke-linejoin="round"/>
<path d="M11.6664 5.00402C11.6664 5.00402 13.139 4.8016 14.4092 6.07181C15.6794 7.34201 15.477 8.81463 15.477 8.81463" stroke="#222628" stroke-linecap="round"/>
<path d="M11.6664 1.67079C11.6664 1.67079 14.0301 1.53031 16.2497 3.74995C18.4693 5.96959 18.3253 8.32972 18.3253 8.32972" stroke="#222628" stroke-linecap="round"/>
</svg>
