<svg width="24" height="24" viewBox="0 0 24 24" fill="none" xmlns="http://www.w3.org/2000/svg">
<path fill-rule="evenodd" clip-rule="evenodd" d="M6.32772 8.34749L6.93072 15.5195C6.97472 16.0715 7.42572 16.4855 7.97672 16.4855H7.98072H18.8917H18.8937C19.4147 16.4855 19.8597 16.0975 19.9337 15.5825L20.8837 9.02349C20.9057 8.86749 20.8667 8.71149 20.7717 8.58549C20.6777 8.45849 20.5397 8.37649 20.3837 8.35449C20.1747 8.36249 11.5017 8.35049 6.32772 8.34749ZM7.97472 17.9855C6.65772 17.9855 5.54272 16.9575 5.43572 15.6425L4.51972 4.74849L3.01272 4.48849C2.60372 4.41649 2.33072 4.02949 2.40072 3.62049C2.47272 3.21149 2.86772 2.94549 3.26772 3.00949L5.34772 3.36949C5.68272 3.42849 5.93772 3.70649 5.96672 4.04649L6.20172 6.84749C20.4777 6.85349 20.5237 6.86049 20.5927 6.86849C21.1497 6.94949 21.6397 7.24049 21.9737 7.68849C22.3077 8.13549 22.4477 8.68649 22.3677 9.23849L21.4187 15.7965C21.2397 17.0445 20.1557 17.9855 18.8957 17.9855H18.8907H7.98272H7.97472Z" fill="#526581"/>
<path fill-rule="evenodd" clip-rule="evenodd" d="M17.2876 12.0439H14.5156C14.1006 12.0439 13.7656 11.7079 13.7656 11.2939C13.7656 10.8799 14.1006 10.5439 14.5156 10.5439H17.2876C17.7016 10.5439 18.0376 10.8799 18.0376 11.2939C18.0376 11.7079 17.7016 12.0439 17.2876 12.0439Z" fill="#526581"/>
<path fill-rule="evenodd" clip-rule="evenodd" d="M7.54451 20.7021C7.84551 20.7021 8.08851 20.9451 8.08851 21.2461C8.08851 21.5471 7.84551 21.7911 7.54451 21.7911C7.24251 21.7911 6.99951 21.5471 6.99951 21.2461C6.99951 20.9451 7.24251 20.7021 7.54451 20.7021Z" fill="#526581"/>
<mask id="mask0_3689_6335" style="mask-type:alpha" maskUnits="userSpaceOnUse" x="6" y="20" width="3" height="2">
<path fill-rule="evenodd" clip-rule="evenodd" d="M6.99902 21.2457C6.99902 21.5477 7.24202 21.7917 7.54502 21.7917C7.84602 21.7917 8.08902 21.5477 8.08902 21.2457C8.08902 20.9447 7.84602 20.7017 7.54502 20.7017C7.24202 20.7017 6.99902 20.9447 6.99902 21.2457Z" fill="#526581"/>
</mask>
<g mask="url(#mask0_3689_6335)">
<path fill-rule="evenodd" clip-rule="evenodd" d="M2 26.7907H13.089V15.7017H2V26.7907Z" fill="#526581"/>
</g>
<path fill-rule="evenodd" clip-rule="evenodd" d="M7.54351 21.0407C7.43051 21.0407 7.33851 21.1327 7.33851 21.2457C7.33851 21.4727 7.74951 21.4727 7.74951 21.2457C7.74951 21.1327 7.65651 21.0407 7.54351 21.0407ZM7.54351 22.5407C6.82951 22.5407 6.24951 21.9597 6.24951 21.2457C6.24951 20.5317 6.82951 19.9517 7.54351 19.9517C8.25751 19.9517 8.83851 20.5317 8.83851 21.2457C8.83851 21.9597 8.25751 22.5407 7.54351 22.5407Z" fill="#526581"/>
<path fill-rule="evenodd" clip-rule="evenodd" d="M18.8248 20.7017C19.1258 20.7017 19.3698 20.9447 19.3698 21.2457C19.3698 21.5467 19.1258 21.7907 18.8248 21.7907C18.5228 21.7907 18.2798 21.5467 18.2798 21.2457C18.2798 20.9447 18.5228 20.7017 18.8248 20.7017Z" fill="#526581"/>
<mask id="mask1_3689_6335" style="mask-type:alpha" maskUnits="userSpaceOnUse" x="18" y="20" width="2" height="2">
<path fill-rule="evenodd" clip-rule="evenodd" d="M18.28 21.2457C18.28 21.5477 18.523 21.7917 18.825 21.7917C19.125 21.7917 19.37 21.5477 19.37 21.2457C19.37 20.9447 19.125 20.7017 18.825 20.7017C18.523 20.7017 18.28 20.9447 18.28 21.2457Z" fill="#526581"/>
</mask>
<g mask="url(#mask1_3689_6335)">
<path fill-rule="evenodd" clip-rule="evenodd" d="M13.28 26.7907H24.37V15.7017H13.28V26.7907Z" fill="#526581"/>
</g>
<path fill-rule="evenodd" clip-rule="evenodd" d="M18.8238 21.0407C18.7118 21.0407 18.6198 21.1327 18.6198 21.2457C18.6208 21.4747 19.0308 21.4727 19.0298 21.2457C19.0298 21.1327 18.9368 21.0407 18.8238 21.0407ZM18.8238 22.5407C18.1098 22.5407 17.5298 21.9597 17.5298 21.2457C17.5298 20.5317 18.1098 19.9517 18.8238 19.9517C19.5388 19.9517 20.1198 20.5317 20.1198 21.2457C20.1198 21.9597 19.5388 22.5407 18.8238 22.5407Z" fill="#526581"/>
</svg>
