<svg width="20" height="20" viewBox="0 0 20 20" fill="none" xmlns="http://www.w3.org/2000/svg">
<path d="M5.13333 11.2501C4.38385 11.2501 4.00911 11.2501 3.72437 11.5049C3.64617 11.5749 3.55038 11.6987 3.50231 11.792C3.32727 12.1316 3.40512 12.4314 3.56081 13.0308C3.75904 13.794 4.08435 14.5228 4.52709 15.1854C5.30541 16.3502 6.41168 17.2581 7.70599 17.7942C9.0003 18.3304 10.4245 18.4706 11.7986 18.1973C13.1726 17.924 14.4347 17.2494 15.4253 16.2588C16.416 15.2681 17.0906 14.006 17.3639 12.632C17.6372 11.2579 17.4969 9.83372 16.9608 8.53941C16.4247 7.2451 15.5168 6.13883 14.352 5.36051C13.6894 4.91777 12.9605 4.59246 12.1974 4.39423C11.5979 4.23853 11.2982 4.16069 10.9586 4.33572C10.8653 4.38379 10.7414 4.47959 10.6715 4.55778C10.4167 4.84253 10.4167 5.21727 10.4167 5.96675L10.4167 7.65008C10.4167 9.14997 10.4167 9.89992 10.0347 10.4257C9.91134 10.5954 9.76203 10.7448 9.59224 10.8681C9.06651 11.2501 8.31656 11.2501 6.81667 11.2501H5.13333Z" stroke="#289672"/>
<path d="M3.46634 9.16675C2.71823 9.16675 2.34418 9.16675 2.06336 8.92618C1.98367 8.85791 1.89143 8.74507 1.84036 8.6534C1.66041 8.33037 1.72471 8.01332 1.85332 7.37922C1.92817 7.01018 2.02521 6.66012 2.14396 6.37344C2.45928 5.61218 2.92146 4.92048 3.5041 4.33784C4.08674 3.7552 4.77844 3.29302 5.5397 2.9777C5.82638 2.85895 6.17643 2.7619 6.54547 2.68706C7.17958 2.55845 7.49663 2.49415 7.81966 2.6741C7.91133 2.72517 8.02417 2.81741 8.09244 2.8971C8.33301 3.17792 8.33301 3.55197 8.33301 4.30008L8.33301 5.56675C8.33301 7.06664 8.33301 7.81659 7.95104 8.34232C7.82768 8.51211 7.67837 8.66142 7.50858 8.78478C6.98285 9.16675 6.2329 9.16675 4.73301 9.16675L3.46634 9.16675Z" stroke="#E87F45"/>
</svg>
