<svg width="20" height="20" viewBox="0 0 20 20" fill="none" xmlns="http://www.w3.org/2000/svg">
<path d="M7.87877 10.0903C7.69851 9.88108 7.3828 9.85763 7.17361 10.0379C6.96442 10.2182 6.94097 10.5339 7.12123 10.7431L7.87877 10.0903ZM12.914 7.7803C13.0688 7.55163 13.009 7.24076 12.7803 7.08596C12.5516 6.93115 12.2408 6.99103 12.086 7.2197L12.914 7.7803ZM7.5 10.4167C7.12123 10.7431 7.12125 10.7431 7.12127 10.7431C7.12129 10.7431 7.12132 10.7432 7.12135 10.7432C7.12141 10.7433 7.12149 10.7434 7.12159 10.7435C7.1218 10.7437 7.1221 10.7441 7.12248 10.7445C7.12324 10.7454 7.12434 10.7467 7.12577 10.7483C7.12864 10.7516 7.13284 10.7565 7.13828 10.7628C7.14916 10.7753 7.16503 10.7936 7.18524 10.8168C7.22565 10.8632 7.28348 10.9292 7.35354 11.0084C7.49342 11.1665 7.68315 11.3782 7.88093 11.5907C8.07724 11.8016 8.28767 12.0199 8.46747 12.1881C8.55624 12.2711 8.64711 12.351 8.73066 12.413C8.77187 12.4437 8.82209 12.4781 8.87698 12.507C8.91648 12.5278 9.0256 12.5833 9.16667 12.5833V11.5833C9.23081 11.5833 9.2781 11.597 9.29948 11.6041C9.32312 11.612 9.33829 11.6198 9.34295 11.6222C9.35149 11.6267 9.34722 11.6253 9.32711 11.6104C9.288 11.5813 9.22885 11.531 9.15057 11.4578C8.99627 11.3134 8.80443 11.1151 8.61289 10.9093C8.42281 10.7051 8.23909 10.5002 8.10248 10.3458C8.03429 10.2687 7.97812 10.2045 7.93909 10.1598C7.91957 10.1374 7.90436 10.1198 7.89409 10.108C7.88896 10.1021 7.88506 10.0976 7.88248 10.0946C7.88119 10.0931 7.88023 10.092 7.87961 10.0912C7.8793 10.0909 7.87907 10.0906 7.87893 10.0905C7.87886 10.0904 7.87881 10.0903 7.87879 10.0903C7.87877 10.0903 7.87877 10.0903 7.87876 10.0903C7.87876 10.0903 7.87877 10.0903 7.5 10.4167ZM9.16667 12.5833C9.26712 12.5833 9.34387 12.5541 9.3818 12.5373C9.4242 12.5185 9.4576 12.4974 9.47953 12.4824C9.52309 12.4525 9.55993 12.4195 9.5862 12.3946C9.64065 12.3429 9.69915 12.2781 9.75647 12.2109C9.87347 12.0737 10.0209 11.8849 10.1843 11.6678C10.5126 11.2314 10.9259 10.653 11.329 10.079C11.7327 9.50398 12.1289 8.92939 12.424 8.49881C12.5716 8.28346 12.694 8.10396 12.7796 7.97826C12.8224 7.9154 12.8559 7.86599 12.8788 7.83225C12.8903 7.81538 12.899 7.80243 12.905 7.79368C12.9079 7.7893 12.9102 7.78598 12.9117 7.78374C12.9125 7.78262 12.9131 7.78177 12.9134 7.78119C12.9136 7.78091 12.9138 7.78069 12.9139 7.78054C12.9139 7.78046 12.914 7.78041 12.914 7.78037C12.914 7.78033 12.914 7.7803 12.5 7.5C12.086 7.2197 12.086 7.21971 12.0859 7.21974C12.0859 7.21977 12.0859 7.21981 12.0858 7.21988C12.0857 7.22001 12.0856 7.22021 12.0854 7.22048C12.0851 7.22101 12.0845 7.22182 12.0838 7.22291C12.0823 7.22507 12.0801 7.22832 12.0772 7.23262C12.0714 7.24121 12.0627 7.254 12.0514 7.2707C12.0287 7.3041 11.9954 7.35315 11.9529 7.41562C11.8678 7.54057 11.746 7.71915 11.5991 7.93348C11.3053 8.36228 10.9113 8.93352 10.5106 9.50435C10.1091 10.0761 9.70342 10.6436 9.38519 11.0666C9.22526 11.2791 9.09246 11.4484 8.99566 11.5619C8.94608 11.62 8.91428 11.6536 8.89796 11.6691C8.88884 11.6778 8.89518 11.6706 8.91349 11.658C8.92279 11.6516 8.94486 11.6371 8.9773 11.6227C9.00527 11.6104 9.07341 11.5833 9.16667 11.5833V12.5833Z" fill="#222628"/>
<rect x="2.1665" y="2.16675" width="15.6667" height="15.6667" rx="5.5" stroke="#222628"/>
</svg>
