<svg width="145" height="103" viewBox="0 0 145 103" fill="none" xmlns="http://www.w3.org/2000/svg">
<g clip-path="url(#clip0_3219_99090)">
<path d="M140.713 30.1832H61.3667C60.2498 30.1842 59.179 30.6249 58.3892 31.4084C57.5994 32.192 57.1553 33.2545 57.1543 34.3626V47.1206C57.1553 48.2288 57.5994 49.2912 58.3892 50.0748C59.179 50.8584 60.2498 51.299 61.3667 51.3H140.713C141.829 51.299 142.9 50.8584 143.69 50.0748C144.48 49.2912 144.924 48.2288 144.925 47.1206V34.3626C144.924 33.2545 144.48 32.192 143.69 31.4084C142.9 30.6249 141.829 30.1842 140.713 30.1832Z" fill="#F0F0F0"/>
<path d="M31.8198 103H0.252538C0.185561 103 0.121323 102.974 0.0739626 102.927C0.0266026 102.88 0 102.816 0 102.749C0 102.683 0.0266026 102.619 0.0739626 102.572C0.121323 102.525 0.185561 102.499 0.252538 102.499H31.8198C31.8868 102.499 31.951 102.525 31.9984 102.572C32.0457 102.619 32.0723 102.683 32.0723 102.749C32.0723 102.816 32.0457 102.88 31.9984 102.927C31.951 102.974 31.8868 103 31.8198 103Z" fill="#3F3D56"/>
<path d="M27.1846 24.5491C26.8919 24.7325 26.6432 24.9773 26.4561 25.2663C26.269 25.5553 26.1481 25.8815 26.1018 26.2219C26.0555 26.5622 26.0851 26.9086 26.1883 27.2364C26.2915 27.5643 26.4659 27.8657 26.6992 28.1194L24.4043 32.9816L27.0423 35.086L30.1859 28.1744C30.5896 27.7573 30.825 27.2077 30.8476 26.6299C30.8701 26.052 30.6782 25.486 30.3083 25.0391C29.9383 24.5923 29.416 24.2956 28.8403 24.2053C28.2646 24.1149 27.6755 24.2373 27.1846 24.5491V24.5491Z" fill="#FFB6B6"/>
<path d="M13.9971 26.5223C14.7234 26.0894 15.5897 25.9505 16.4165 26.1344C17.2432 26.3183 17.9669 26.8108 18.4375 27.5099L23.1333 34.4859L24.7636 30.9202C24.8654 30.6975 25.0457 30.5194 25.2706 30.4195C25.4955 30.3196 25.7495 30.3046 25.9847 30.3775L28.4453 31.1401C28.5738 31.18 28.693 31.2449 28.7959 31.3311C28.8988 31.4174 28.9833 31.5231 29.0444 31.6422C29.1054 31.7613 29.1419 31.8913 29.1516 32.0246C29.1613 32.1578 29.1441 32.2917 29.1009 32.4182L27.4165 37.3528C27.2035 37.977 26.8475 38.5437 26.3765 39.0084C25.9056 39.4732 25.3324 39.8233 24.7022 40.0313C24.0719 40.2393 23.4016 40.2995 22.7439 40.2072C22.0862 40.1149 21.459 39.8727 20.9115 39.4995C20.6557 39.325 20.4197 39.1237 20.2076 38.8988L13.2874 31.5627C12.9514 31.2064 12.6999 30.7801 12.5514 30.315C12.4029 29.8498 12.3611 29.3576 12.4292 28.8743C12.4972 28.3911 12.6733 27.9291 12.9446 27.5221C13.2159 27.1151 13.5755 26.7735 13.9971 26.5223Z" fill="#CCCCCC"/>
<path d="M29.1878 19.3142C29.3139 19.3173 29.4335 19.37 29.5204 19.4606C29.6073 19.5512 29.6544 19.6724 29.6513 19.7975L29.6107 21.4167L29.6926 21.4241L29.6632 22.5239L29.5832 22.514L29.438 28.315C29.433 28.5136 29.3554 28.7035 29.2197 28.8495C29.0839 28.9954 28.8993 29.0874 28.7002 29.1082L24.9823 29.4965C24.8918 29.5059 24.8003 29.4956 24.7142 29.4663C24.6282 29.437 24.5496 29.3893 24.484 29.3266C24.4185 29.264 24.3676 29.1879 24.3348 29.1036C24.302 29.0193 24.2882 28.929 24.2944 28.8389L24.8583 20.5787C24.8701 20.4052 24.9411 20.2409 25.0595 20.1127C25.178 19.9845 25.3369 19.9002 25.5101 19.8735L29.0991 19.3203C29.1284 19.3155 29.1581 19.3135 29.1878 19.3142Z" fill="#3F3D56"/>
<path d="M26.3102 20.1739L28.197 19.8831C28.231 19.8779 28.2623 19.8617 28.286 19.837C28.3098 19.8124 28.3247 19.7806 28.3284 19.7467C28.3326 19.7083 28.3495 19.6724 28.3764 19.6445C28.4033 19.6166 28.4387 19.5982 28.4772 19.5923L28.8746 19.531C28.9289 19.5227 28.9843 19.5262 29.037 19.5414C29.0897 19.5566 29.1384 19.5831 29.1796 19.6191C29.2209 19.655 29.2537 19.6994 29.2757 19.7493C29.2977 19.7992 29.3085 19.8532 29.3071 19.9077L29.1029 28.3181C29.1003 28.4225 29.0592 28.5223 28.9872 28.5985C28.9152 28.6746 28.8175 28.7218 28.7127 28.7311L24.9976 29.0588C24.9502 29.063 24.9025 29.057 24.8576 29.0412C24.8128 29.0253 24.7719 29.0001 24.7378 28.9672C24.7037 28.9343 24.6772 28.8945 24.66 28.8505C24.6428 28.8064 24.6354 28.7593 24.6383 28.7121L25.1396 20.5283C25.147 20.4077 25.1957 20.2932 25.2777 20.2039C25.3597 20.1146 25.47 20.0558 25.5903 20.0372L26.0092 19.9727C26.0246 20.0377 26.0642 20.0945 26.12 20.1318C26.1758 20.1691 26.2437 20.1842 26.3102 20.1739Z" fill="white"/>
<path d="M17.5567 99.9586L20.4437 99.9583L21.8167 88.9098L17.5557 88.9103L17.5567 99.9586Z" fill="#FFB6B6"/>
<path d="M26.0117 102.618L16.9381 102.619L16.9378 99.1404L22.5057 99.1399C22.9661 99.1399 23.4219 99.2298 23.8473 99.4045C24.2726 99.5793 24.6591 99.8355 24.9847 100.158C25.3103 100.481 25.5685 100.865 25.7447 101.287C25.921 101.709 26.0117 102.161 26.0117 102.618L26.0117 102.618Z" fill="#2F2E41"/>
<path d="M8.68363 99.9586L11.5706 99.9583L12.9437 88.9098L8.68262 88.9103L8.68363 99.9586Z" fill="#FFB6B6"/>
<path d="M17.1387 102.618L8.06504 102.619L8.06473 99.1404L13.6326 99.1399C14.5624 99.1398 15.4541 99.5062 16.1116 100.158C16.7692 100.811 17.1386 101.695 17.1387 102.618L17.1387 102.618Z" fill="#2F2E41"/>
<path d="M17.1391 22.7673C20.5647 22.7673 23.3417 20.0121 23.3417 16.6134C23.3417 13.2147 20.5647 10.4595 17.1391 10.4595C13.7135 10.4595 10.9365 13.2147 10.9365 16.6134C10.9365 20.0121 13.7135 22.7673 17.1391 22.7673Z" fill="#FFB6B6"/>
<path d="M20.3315 33.0781C20.2808 31.4959 19.8319 29.9514 19.0255 28.5855C18.2192 27.2195 17.0812 26.0755 15.7152 25.2576C14.1127 24.3208 12.3587 23.9554 10.9633 25.3399C10.1254 26.1921 9.45436 27.1913 8.98441 28.2867C7.69357 31.2718 7.60912 34.6351 8.74854 37.6802L12.0698 46.7839L19.7569 47.6101C19.9012 47.6257 20.0473 47.6101 20.1851 47.5645C20.3229 47.519 20.4491 47.4445 20.5552 47.3461C20.6614 47.2477 20.7449 47.1278 20.8001 46.9945C20.8552 46.8612 20.8808 46.7177 20.875 46.5737L20.3315 33.0781Z" fill="#2F2E41"/>
<path d="M12.5573 45.6628C12.5573 45.6628 6.81427 47.79 8.31578 56.7972C9.66315 64.8798 8.59241 91.7072 8.35838 97.1302C8.34724 97.3886 8.43737 97.6414 8.60988 97.8354C8.78238 98.0294 9.02388 98.1496 9.28375 98.1709L12.6362 98.448C12.8988 98.4697 13.1595 98.3888 13.3628 98.2225C13.5661 98.0562 13.6958 97.8176 13.7243 97.5577L15.4557 81.7793C15.4625 81.7173 15.4923 81.6602 15.5393 81.6189C15.5862 81.5776 15.647 81.5551 15.7098 81.5558C15.7726 81.5566 15.8328 81.5805 15.8788 81.623C15.9247 81.6654 15.9531 81.7233 15.9584 81.7853L17.2485 96.9679C17.2703 97.2237 17.3901 97.4615 17.5833 97.6322C17.7766 97.8029 18.0285 97.8935 18.2871 97.8854L21.1029 97.797C21.2356 97.7929 21.3662 97.7628 21.4871 97.7085C21.6081 97.6543 21.7171 97.5769 21.8079 97.4808C21.8987 97.3847 21.9695 97.2718 22.0163 97.1485C22.0631 97.0252 22.0849 96.894 22.0806 96.7624L20.4218 46.7149L12.5573 45.6628Z" fill="#2F2E41"/>
<path d="M18.3834 16.2079C20.4579 17.052 23.107 16.0659 24.1099 14.0764C25.1129 12.0868 24.3192 9.39233 22.3942 8.2518C20.4691 7.11127 17.7017 7.69588 16.412 9.51551C15.3628 7.64019 12.6144 7.16209 10.7273 8.20849C8.84022 9.25488 7.81234 11.4467 7.69043 13.5881C7.56852 15.7295 8.22471 17.8391 9.02518 19.8315C10.32 23.0543 14.4883 24.7896 17.7133 23.4484C16.2369 21.2667 16.5284 18.0741 18.3834 16.2079Z" fill="#2F2E41"/>
<path d="M26.7431 25.2953C26.6878 25.2954 26.6341 25.2776 26.5899 25.2448L26.5872 25.2427L26.0105 24.8051C25.9838 24.7847 25.9614 24.7594 25.9445 24.7305C25.9277 24.7016 25.9168 24.6697 25.9124 24.6366C25.908 24.6035 25.9102 24.5698 25.9189 24.5376C25.9276 24.5053 25.9426 24.4751 25.9631 24.4486C25.9835 24.4221 26.0091 24.3998 26.0382 24.3831C26.0673 24.3664 26.0995 24.3556 26.1329 24.3512C26.1662 24.3468 26.2001 24.349 26.2327 24.3576C26.2652 24.3663 26.2957 24.3812 26.3224 24.4015L26.6959 24.6857L27.5786 23.5431C27.5991 23.5166 27.6246 23.4944 27.6537 23.4777C27.6828 23.461 27.715 23.4502 27.7483 23.4458C27.7817 23.4414 27.8156 23.4436 27.8481 23.4522C27.8806 23.4609 27.911 23.4758 27.9377 23.4961L27.9378 23.4961L27.9323 23.5037L27.938 23.4961C27.9918 23.5372 28.0271 23.5978 28.036 23.6646C28.0448 23.7314 28.0266 23.799 27.9854 23.8525L26.9471 25.1958C26.9231 25.2267 26.8922 25.2518 26.8569 25.269C26.8215 25.2862 26.7826 25.2951 26.7433 25.295L26.7431 25.2953Z" fill="#6C63FF"/>
<path d="M140.788 0H61.4419C60.325 0.00100377 59.2542 0.441654 58.4644 1.22522C57.6746 2.00878 57.2305 3.07123 57.2295 4.17936V16.9374C57.2305 18.0455 57.6746 19.108 58.4644 19.8916C59.2542 20.6751 60.325 21.1158 61.4419 21.1168H140.788C141.905 21.1158 142.976 20.6751 143.765 19.8916C144.555 19.108 144.999 18.0455 145 16.9374V4.17936C144.999 3.07123 144.555 2.00878 143.765 1.22521C142.976 0.44165 141.905 0.00100377 140.788 0ZM144.557 16.9374C144.555 17.9287 144.158 18.8791 143.451 19.58C142.745 20.281 141.787 20.6754 140.788 20.6768H61.4419C60.4427 20.6754 59.4849 20.281 58.7784 19.58C58.0719 18.8791 57.6743 17.9287 57.6729 16.9374V4.17936C57.6743 3.18803 58.0719 2.23771 58.7784 1.53674C59.4849 0.835761 60.4427 0.441334 61.4419 0.439931H140.788C141.787 0.441334 142.745 0.835761 143.451 1.53674C144.158 2.23771 144.555 3.18803 144.557 4.17936V16.9374Z" fill="#3F3D56"/>
<path d="M77.5886 17.8326C76.1386 17.8326 74.721 17.406 73.5153 16.6067C72.3096 15.8074 71.3699 14.6714 70.8149 13.3422C70.26 12.013 70.1148 10.5504 70.3977 9.13931C70.6806 7.72825 71.3789 6.4321 72.4042 5.41477C73.4296 4.39745 74.736 3.70464 76.1582 3.42396C77.5804 3.14328 79.0546 3.28733 80.3943 3.8379C81.734 4.38846 82.8791 5.32082 83.6847 6.51706C84.4903 7.7133 84.9203 9.11969 84.9203 10.5584C84.9181 12.487 84.145 14.3359 82.7705 15.6996C81.396 17.0633 79.5324 17.8304 77.5886 17.8326Z" fill="#289672"/>
<path d="M129.961 16.4975H91.8527C91.3823 16.4975 90.9312 16.3121 90.5986 15.9821C90.266 15.6521 90.0791 15.2045 90.0791 14.7378C90.0791 14.271 90.266 13.8235 90.5986 13.4934C90.9312 13.1634 91.3823 12.978 91.8527 12.978H129.961C130.432 12.978 130.883 13.1634 131.215 13.4934C131.548 13.8235 131.735 14.271 131.735 14.7378C131.735 15.2045 131.548 15.6521 131.215 15.9821C130.883 16.3121 130.432 16.4975 129.961 16.4975Z" fill="#CCCCCC"/>
<path d="M104.465 9.01861H91.8527C91.3823 9.01861 90.9312 8.83321 90.5986 8.5032C90.266 8.17318 90.0791 7.72559 90.0791 7.25888C90.0791 6.79217 90.266 6.34458 90.5986 6.01457C90.9312 5.68455 91.3823 5.49915 91.8527 5.49915H104.465C104.936 5.49915 105.387 5.68455 105.719 6.01457C106.052 6.34458 106.239 6.79217 106.239 7.25888C106.239 7.72559 106.052 8.17318 105.719 8.5032C105.387 8.83321 104.936 9.01861 104.465 9.01861Z" fill="#CCCCCC"/>
<path d="M77.2143 13.1171C77.0324 13.1174 76.8554 13.059 76.7098 12.9507L76.7008 12.944L74.8005 11.5017C74.7123 11.4349 74.6382 11.3514 74.5826 11.2561C74.5269 11.1608 74.4907 11.0556 74.4761 10.9464C74.4615 10.8372 74.4687 10.7262 74.4973 10.6198C74.526 10.5134 74.5755 10.4136 74.643 10.3262C74.7106 10.2388 74.7948 10.1655 74.891 10.1104C74.9871 10.0553 75.0932 10.0196 75.2033 10.0053C75.3134 9.99094 75.4252 9.99828 75.5324 10.0269C75.6396 10.0555 75.7401 10.1047 75.8281 10.1719L77.059 11.1084L79.9675 7.34358C80.035 7.2563 80.1191 7.18304 80.2151 7.12801C80.311 7.07298 80.417 7.03724 80.5269 7.02284C80.6368 7.00843 80.7485 7.01565 80.8556 7.04407C80.9626 7.07249 81.063 7.12156 81.151 7.18848L81.1513 7.18866L81.1332 7.21353L81.1518 7.18866C81.3292 7.324 81.4454 7.52366 81.4746 7.74384C81.5039 7.96403 81.4439 8.18674 81.3079 8.3631L77.8868 12.7893C77.8076 12.8913 77.7059 12.9739 77.5894 13.0305C77.4729 13.0872 77.3448 13.1165 77.2151 13.1161L77.2143 13.1171Z" fill="white"/>
<path d="M106.695 34.3263H27.3491C26.2322 34.3273 25.1614 34.7679 24.3716 35.5515C23.5819 36.3351 23.1377 37.3975 23.1367 38.5057V51.2637C23.1377 52.3718 23.5819 53.4343 24.3716 54.2179C25.1614 55.0014 26.2322 55.4421 27.3491 55.4431H106.695C107.812 55.4421 108.883 55.0014 109.672 54.2179C110.462 53.4343 110.906 52.3718 110.907 51.2637V38.5057C110.906 37.3975 110.462 36.3351 109.672 35.5515C108.883 34.7679 107.812 34.3273 106.695 34.3263Z" fill="white"/>
<path d="M106.695 34.3263H27.3491C26.2322 34.3273 25.1614 34.7679 24.3716 35.5515C23.5819 36.3351 23.1377 37.3975 23.1367 38.5057V51.2637C23.1377 52.3718 23.5819 53.4343 24.3716 54.2179C25.1614 55.0014 26.2322 55.4421 27.3491 55.4431H106.695C107.812 55.4421 108.883 55.0014 109.672 54.2179C110.462 53.4343 110.906 52.3718 110.907 51.2637V38.5057C110.906 37.3975 110.462 36.3351 109.672 35.5515C108.883 34.7679 107.812 34.3273 106.695 34.3263ZM110.464 51.2637C110.463 52.255 110.065 53.2054 109.358 53.9063C108.652 54.6073 107.694 55.0017 106.695 55.0031H27.3491C26.35 55.0017 25.3921 54.6073 24.6856 53.9063C23.9791 53.2054 23.5815 52.255 23.5801 51.2637V38.5057C23.5815 37.5143 23.9791 36.564 24.6856 35.863C25.3921 35.1621 26.35 34.7676 27.3491 34.7662H106.695C107.694 34.7676 108.652 35.1621 109.358 35.863C110.065 36.564 110.463 37.5143 110.464 38.5057V51.2637Z" fill="#3F3D56"/>
<path d="M43.4959 52.1589C42.0458 52.1589 40.6283 51.7323 39.4226 50.933C38.2169 50.1337 37.2771 48.9977 36.7222 47.6685C36.1672 46.3393 36.022 44.8767 36.3049 43.4656C36.5878 42.0545 37.2861 40.7584 38.3115 39.7411C39.3368 38.7237 40.6432 38.0309 42.0654 37.7503C43.4877 37.4696 44.9618 37.6136 46.3015 38.1642C47.6412 38.7148 48.7863 39.6471 49.5919 40.8434C50.3976 42.0396 50.8275 43.446 50.8275 44.8847C50.8253 46.8133 50.0522 48.6622 48.6777 50.0259C47.3032 51.3896 45.4397 52.1567 43.4959 52.1589Z" fill="#289672"/>
<path d="M95.8685 50.8238H57.76C57.2896 50.8238 56.8384 50.6384 56.5058 50.3084C56.1732 49.9784 55.9863 49.5308 55.9863 49.0641C55.9863 48.5973 56.1732 48.1498 56.5058 47.8197C56.8384 47.4897 57.2896 47.3043 57.76 47.3043H95.8685C96.3389 47.3043 96.7901 47.4897 97.1227 47.8197C97.4553 48.1498 97.6422 48.5973 97.6422 49.0641C97.6422 49.5308 97.4553 49.9784 97.1227 50.3084C96.7901 50.6384 96.3389 50.8238 95.8685 50.8238Z" fill="#CCCCCC"/>
<path d="M70.3724 43.3449H57.76C57.527 43.3449 57.2964 43.2994 57.0812 43.211C56.866 43.1225 56.6705 42.9929 56.5058 42.8295C56.3411 42.6661 56.2105 42.4721 56.1213 42.2586C56.0322 42.0451 55.9863 41.8163 55.9863 41.5852C55.9863 41.3541 56.0322 41.1253 56.1213 40.9118C56.2105 40.6983 56.3411 40.5043 56.5058 40.3409C56.6705 40.1775 56.866 40.0478 57.0812 39.9594C57.2964 39.871 57.527 39.8254 57.76 39.8254H70.3724C70.8428 39.8254 71.2939 40.0108 71.6265 40.3409C71.9592 40.6709 72.146 41.1185 72.146 41.5852C72.146 42.0519 71.9592 42.4995 71.6265 42.8295C71.2939 43.1595 70.8428 43.3449 70.3724 43.3449Z" fill="#CCCCCC"/>
<path d="M43.1216 47.4434C42.9397 47.4437 42.7626 47.3853 42.617 47.277L42.608 47.2703L40.7077 45.828C40.6195 45.7612 40.5455 45.6777 40.4898 45.5824C40.4341 45.4871 40.398 45.3819 40.3833 45.2727C40.3687 45.1635 40.3759 45.0525 40.4046 44.9461C40.4332 44.8397 40.4827 44.7399 40.5503 44.6525C40.6178 44.5651 40.7021 44.4918 40.7982 44.4367C40.8943 44.3816 41.0005 44.3459 41.1105 44.3316C41.2206 44.3172 41.3324 44.3246 41.4396 44.3532C41.5469 44.3818 41.6473 44.431 41.7353 44.4982L42.9662 45.4347L45.8747 41.6699C45.9422 41.5826 46.0263 41.5093 46.1223 41.4543C46.2183 41.3993 46.3242 41.3635 46.4341 41.3491C46.544 41.3347 46.6557 41.3419 46.7628 41.3704C46.8699 41.3988 46.9703 41.4479 47.0582 41.5148L47.0585 41.515L47.0404 41.5398L47.059 41.515C47.2365 41.6503 47.3526 41.85 47.3819 42.0701C47.4111 42.2903 47.3512 42.513 47.2151 42.6894L43.794 47.1156C43.7149 47.2176 43.6131 47.3001 43.4966 47.3568C43.3801 47.4135 43.252 47.4428 43.1223 47.4424L43.1216 47.4434Z" fill="white"/>
<path d="M24.7761 37.2043C24.4572 37.0705 24.1127 37.0077 23.7667 37.0203C23.4208 37.0329 23.0818 37.1206 22.7737 37.2772C22.4656 37.4339 22.1959 37.6556 21.9835 37.9269C21.7712 38.1981 21.6213 38.5123 21.5445 38.8472L16.2109 39.7538L15.9756 43.1039L23.4897 41.7188C24.0653 41.8094 24.6545 41.6874 25.1455 41.3759C25.6366 41.0643 25.9954 40.5849 26.1539 40.0284C26.3125 39.472 26.2598 38.8771 26.0059 38.3566C25.7519 37.8361 25.3144 37.4261 24.7761 37.2043L24.7761 37.2043Z" fill="#FFB6B6"/>
<path d="M15.6143 27.5882C16.3872 27.9327 16.9967 28.5591 17.3166 29.3375C17.6364 30.1159 17.642 30.9866 17.3322 31.769L14.2404 39.5768L18.1219 38.869C18.3642 38.8248 18.6145 38.8701 18.8256 38.9962C19.0367 39.1223 19.1941 39.3207 19.268 39.5539L20.0418 41.9936C20.0822 42.121 20.0965 42.2552 20.0839 42.3883C20.0713 42.5213 20.032 42.6505 19.9683 42.7682C19.9047 42.886 19.8179 42.9899 19.7132 43.0739C19.6084 43.1579 19.4878 43.2202 19.3584 43.2573L14.3135 44.7025C13.6753 44.8853 13.0031 44.9189 12.3497 44.8006C11.6962 44.6823 11.0793 44.4153 10.5473 44.0207C10.0154 43.626 9.58286 43.1144 9.28373 42.526C8.9846 41.9375 8.82701 41.2883 8.82331 40.6293C8.82158 40.3214 8.85348 40.0141 8.91845 39.713L11.0383 29.8877C11.1412 29.4106 11.3504 28.9624 11.6505 28.5759C11.9507 28.1893 12.3341 27.8743 12.7728 27.6538C13.2116 27.4333 13.6944 27.313 14.1861 27.3017C14.6778 27.2903 15.1657 27.3882 15.6143 27.5882Z" fill="#CCCCCC"/>
</g>
<defs>
<clipPath id="clip0_3219_99090">
<rect width="145" height="103" fill="white"/>
</clipPath>
</defs>
</svg>
