<svg width="20" height="20" viewBox="0 0 20 20" fill="none" xmlns="http://www.w3.org/2000/svg">
<path d="M13.1948 13.8217C14.9232 14.1748 16.7173 14.0122 18.3541 13.354C17.6841 15.0213 16.5304 16.45 15.0417 17.4562C13.5529 18.4624 11.797 19.0001 10.0001 19C7.9105 18.9977 5.88674 18.2687 4.27577 16.9378C2.6648 15.6069 1.56695 13.757 1.17043 11.7054C0.773906 9.65374 1.1034 7.52805 2.10244 5.69272C3.10148 3.85739 4.70782 2.42673 6.64611 1.646C5.98791 3.28277 5.82527 5.0769 6.17839 6.80535C6.53151 8.53381 7.38484 10.1204 8.63229 11.3678C9.87974 12.6153 11.4663 13.4686 13.1948 13.8217Z" stroke="#289672" stroke-width="2" stroke-linecap="round" stroke-linejoin="round"/>
</svg>
