<svg width="400" height="267" viewBox="0 0 400 267" fill="none" xmlns="http://www.w3.org/2000/svg">
<path d="M120.336 26.8496H88.1173V70.9954H120.336V26.8496Z" fill="#F5F5F5"/>
<path d="M112.171 32.4084H79.952V76.5542H112.171V32.4084Z" fill="#E0E0E0"/>
<path d="M264.037 92.7771H263.829H263.205H260.779L251.675 92.8092L220.267 92.916H220.181V92.8305C219.836 91.6485 219.775 90.4016 220.003 89.1915C220.231 87.9814 220.741 86.8422 221.491 85.8667C222.242 84.8913 223.212 84.1072 224.323 83.5783C225.433 83.0495 226.653 82.7908 227.883 82.8234L227.771 82.9782C227.572 82.2846 227.489 81.5629 227.525 80.8422C227.562 79.6346 227.913 78.4575 228.544 77.4273C229.174 76.3971 230.062 75.5495 231.12 74.9682C232.149 74.4306 233.294 74.153 234.455 74.1595C235.616 74.166 236.758 74.4565 237.781 75.0056L237.616 75.0644C238.185 73.7462 239.02 72.5603 240.069 71.5814C241.118 70.6026 242.359 69.8521 243.712 69.3773C244.957 68.9058 246.286 68.6948 247.616 68.7573C248.946 68.8198 250.249 69.1543 251.445 69.7404C253.602 70.8788 255.298 72.7299 256.245 74.9789C257.111 76.9525 257.317 79.1533 256.832 81.2534L256.747 81.152C257.985 81.0237 259.235 81.2072 260.384 81.686C261.406 82.0993 262.327 82.7296 263.083 83.5336C263.426 83.8955 263.712 84.3079 263.931 84.7565C264.125 85.1708 264.277 85.6038 264.384 86.0487C264.567 86.8265 264.671 87.6209 264.693 88.4197C264.731 89.5165 264.636 90.6137 264.411 91.6878C264.351 91.968 264.274 92.2444 264.181 92.5155L264.085 92.7825" fill="#EBEBEB"/>
<path d="M347.808 71.7964C346.321 72.0447 344.935 72.7071 343.807 73.7077C342.678 74.7083 341.854 76.0067 341.429 77.4543C341.003 78.9019 340.994 80.4402 341.4 81.8932C341.807 83.3462 342.615 84.6551 343.73 85.6701C344.845 86.6852 346.223 87.3654 347.706 87.6329C349.189 87.9004 350.718 87.7444 352.117 87.1827C353.516 86.621 354.728 85.6763 355.616 84.4568C356.503 83.2373 357.03 81.7923 357.136 80.287L359.339 79.9185L360.533 77.4301L362.251 79.4272L365.008 78.968L366.187 76.4902L367.904 78.4874L370.272 78.0922L370.992 76.581L372.059 77.7985L373.44 77.5689L374.955 75.5611L372.357 72.6988L355.957 75.4276C355.11 74.0831 353.883 73.0206 352.433 72.3742C350.982 71.7278 349.373 71.5267 347.808 71.7964ZM343.339 80.6928C343.264 80.2434 343.324 79.782 343.511 79.3668C343.699 78.9516 344.004 78.6011 344.39 78.3596C344.776 78.1181 345.224 77.9963 345.679 78.0097C346.134 78.023 346.574 78.1708 346.945 78.4346C347.316 78.6983 347.601 79.0661 347.764 79.4915C347.926 79.917 347.959 80.3811 347.859 80.8254C347.758 81.2696 347.528 81.6742 347.199 81.9879C346.869 82.3017 346.454 82.5107 346.005 82.5885C345.706 82.6405 345.399 82.6327 345.102 82.5654C344.806 82.4981 344.526 82.3728 344.278 82.1965C344.03 82.0203 343.819 81.7967 343.658 81.5386C343.497 81.2806 343.388 80.9931 343.339 80.6928Z" fill="#EBEBEB"/>
<path d="M339.664 133.228L340.656 151.437C340.672 151.75 340.807 152.044 341.033 152.261C341.259 152.477 341.559 152.599 341.872 152.601L374.592 152.836C374.753 152.838 374.913 152.807 375.062 152.747C375.212 152.686 375.348 152.597 375.463 152.484C375.577 152.371 375.669 152.236 375.732 152.088C375.795 151.939 375.828 151.78 375.829 151.619L375.931 137.446C375.932 137.284 375.901 137.123 375.84 136.973C375.779 136.823 375.689 136.686 375.575 136.571C375.461 136.456 375.325 136.364 375.176 136.302C375.026 136.24 374.866 136.207 374.704 136.207H354.581C354.42 136.208 354.261 136.176 354.112 136.114C353.964 136.051 353.83 135.96 353.717 135.844L350.245 132.373C350.017 132.145 349.709 132.015 349.387 132.01L340.901 131.951C340.735 131.95 340.571 131.982 340.417 132.046C340.264 132.11 340.125 132.205 340.01 132.324C339.894 132.443 339.804 132.585 339.744 132.74C339.685 132.896 339.657 133.062 339.664 133.228Z" fill="#EBEBEB"/>
<path d="M375.959 134.071L340.205 133.809L340.048 155.2L375.802 155.463L375.959 134.071Z" fill="#F5F5F5"/>
<path d="M337.349 135.706L339.915 158.027C339.936 158.219 340.026 158.398 340.17 158.528C340.314 158.658 340.5 158.73 340.693 158.732L375.536 158.983C375.734 158.985 375.926 158.911 376.072 158.778C376.219 158.644 376.309 158.46 376.325 158.262L378.245 135.967C378.255 135.858 378.242 135.749 378.207 135.645C378.172 135.542 378.116 135.447 378.042 135.367C377.968 135.286 377.878 135.222 377.778 135.178C377.678 135.135 377.57 135.112 377.461 135.113L338.133 134.824C338.022 134.824 337.911 134.847 337.809 134.892C337.707 134.937 337.616 135.004 337.542 135.087C337.468 135.171 337.412 135.269 337.379 135.376C337.346 135.482 337.336 135.595 337.349 135.706Z" fill="#EBEBEB"/>
<path d="M335.536 233.759C327.243 227.959 325.36 217.205 325.691 207.507C325.744 205.905 325.568 204.186 326.336 202.77C327.104 201.355 328.891 200.384 330.336 201.062C331.536 201.628 332.059 203.027 332.731 204.18C333.624 205.721 334.935 206.976 336.512 207.801C337.541 208.335 338.816 208.661 339.829 208.1C341.221 207.331 341.387 205.403 341.376 203.796C341.355 200.798 341.335 197.804 341.317 194.814C341.22 193.207 341.384 191.595 341.803 190.04C342.304 188.513 343.403 187.098 344.933 186.665C346.464 186.233 348.347 187.119 348.667 188.694C348.726 189.36 348.741 190.029 348.709 190.697C348.757 191.364 349.067 192.101 349.696 192.299C350.325 192.496 350.981 192.032 351.461 191.556C353.12 189.954 354.24 187.845 355.291 185.768C356.341 183.691 357.365 181.56 358.869 179.787C360.373 178.014 362.448 176.615 364.736 176.487C367.024 176.359 369.488 177.779 370.069 180.038C370.651 182.297 369.328 184.604 367.893 186.446C365.76 189.167 363.245 191.564 360.427 193.564C359.886 193.872 359.457 194.343 359.2 194.91C358.853 195.978 359.867 197.046 360.923 197.398C362.117 197.799 363.419 197.671 364.656 197.82C365.893 197.97 367.264 198.52 367.739 199.705C368.395 201.345 367.024 203.07 365.675 204.196C362.975 206.453 359.908 208.229 356.608 209.445C355.424 209.878 354.181 210.257 353.232 211.09C352.283 211.923 351.701 213.365 352.277 214.497C352.853 215.629 354.331 215.992 355.568 215.763C356.805 215.533 357.909 214.86 359.088 214.417C361.296 213.584 364.144 213.734 365.557 215.645C365.988 216.302 366.261 217.05 366.353 217.83C366.446 218.611 366.356 219.402 366.091 220.142C365.553 221.615 364.726 222.966 363.659 224.114C360.16 228.309 355.612 231.498 350.48 233.358C345.365 235.136 340.624 235.617 335.547 233.753" fill="#EBEBEB"/>
<path d="M335.408 240.935C335.86 236.448 336.739 232.013 338.032 227.692C339.639 222.425 341.546 217.255 343.744 212.206L345.445 208.223C346.011 206.914 346.565 205.617 347.189 204.383C348.392 202.014 349.725 199.714 351.184 197.495C352.56 195.359 353.941 193.393 355.248 191.562C356.555 189.73 357.813 188.048 359.019 186.564C360.913 184.2 362.992 181.991 365.237 179.958C366.027 179.242 366.661 178.708 367.093 178.356L367.589 177.95C367.642 177.9 367.701 177.857 367.765 177.822L367.611 177.977C367.488 178.078 367.333 178.223 367.131 178.399C366.709 178.773 366.064 179.323 365.312 180.049C363.107 182.103 361.057 184.318 359.179 186.676C357.984 188.166 356.747 189.853 355.445 191.685C354.144 193.516 352.779 195.497 351.408 197.623C349.964 199.849 348.643 202.152 347.451 204.522C346.832 205.75 346.277 207.032 345.717 208.345L344.011 212.329C341.82 217.381 339.911 222.551 338.293 227.815C336.996 232.117 336.104 236.531 335.627 241" fill="#E0E0E0"/>
<path d="M347.275 204.351C347.201 204.127 347.149 203.896 347.12 203.662C347.035 203.219 346.933 202.594 346.821 201.772C346.592 200.17 346.357 197.954 346.101 195.503C345.845 193.052 345.568 190.841 345.328 189.25C345.205 188.454 345.099 187.808 345.024 187.365C344.966 187.136 344.935 186.901 344.933 186.665C345.026 186.883 345.094 187.11 345.136 187.343C345.248 187.776 345.387 188.411 345.536 189.212C345.84 190.814 346.144 193.02 346.395 195.471C346.645 197.922 346.859 200.074 347.029 201.745C347.109 202.498 347.179 203.139 347.232 203.646C347.274 203.879 347.288 204.115 347.275 204.351Z" fill="#E0E0E0"/>
<path d="M367.915 200.485C367.643 200.547 367.366 200.581 367.088 200.587C366.555 200.635 365.792 200.699 364.848 200.806C362.96 201.014 360.357 201.388 357.509 201.922C354.661 202.456 352.096 203.07 350.256 203.556C349.333 203.796 348.592 204.01 348.08 204.154C347.818 204.242 347.548 204.308 347.275 204.351C347.522 204.224 347.781 204.121 348.048 204.042C348.549 203.86 349.285 203.62 350.181 203.353C352.011 202.819 354.571 202.173 357.429 201.628C359.87 201.158 362.334 200.814 364.811 200.597C365.76 200.512 366.528 200.48 367.061 200.469C367.346 200.453 367.631 200.458 367.915 200.485Z" fill="#E0E0E0"/>
<path d="M338.288 227.313C338.23 227.234 338.181 227.148 338.144 227.057C338.048 226.859 337.931 226.608 337.792 226.309C337.488 225.663 337.072 224.707 336.576 223.522C335.579 221.156 334.309 217.845 332.955 214.171C331.6 210.497 330.357 207.171 329.413 204.789C328.949 203.63 328.571 202.653 328.283 201.964L327.984 201.195C327.943 201.107 327.912 201.013 327.893 200.917C327.952 200.997 328 201.083 328.037 201.174L328.389 201.921C328.693 202.568 329.109 203.523 329.605 204.709C330.603 207.075 331.872 210.385 333.227 214.065C334.581 217.744 335.824 221.06 336.768 223.442L337.899 226.266L338.197 227.035C338.238 227.124 338.269 227.217 338.288 227.313Z" fill="#E0E0E0"/>
<path d="M365.712 218.459C365.627 218.509 365.535 218.546 365.44 218.572L364.64 218.839L361.707 219.794C359.227 220.601 355.813 221.749 352.048 222.998C348.283 224.248 344.848 225.401 342.352 226.154C341.104 226.534 340.091 226.827 339.387 227.014L338.576 227.228C338.482 227.257 338.386 227.277 338.288 227.286C338.373 227.235 338.464 227.196 338.56 227.169L339.355 226.907L342.293 225.951C344.773 225.145 348.16 223.997 351.952 222.715C355.744 221.434 359.147 220.318 361.643 219.565C362.891 219.186 363.904 218.892 364.608 218.705L365.424 218.492C365.519 218.471 365.615 218.46 365.712 218.459Z" fill="#E0E0E0"/>
<path d="M369.28 240.957C369.28 241.037 292.603 241.096 198.037 241.096C103.472 241.096 26.7733 241.037 26.7733 240.957C26.7733 240.877 103.435 240.834 198.037 240.834C292.64 240.834 369.28 240.882 369.28 240.957Z" fill="#263238"/>
<path d="M329.776 222.315C330.704 223.516 332.373 223.02 333.12 222.219C333.867 221.418 334.139 220.307 334.389 219.239C334.955 216.809 335.525 214.262 334.891 211.849C334.728 211.115 334.368 210.439 333.851 209.894C333.588 209.628 333.26 209.435 332.9 209.336C332.539 209.237 332.159 209.234 331.797 209.328C330.955 209.595 330.469 210.455 330.128 211.272C329.118 213.674 328.657 216.272 328.779 218.876C328.756 220.097 329.104 221.296 329.776 222.315Z" fill="#289672"/>
<g opacity="0.2">
<path d="M329.776 222.315C330.704 223.516 332.373 223.02 333.12 222.219C333.867 221.418 334.139 220.307 334.389 219.239C334.955 216.809 335.525 214.262 334.891 211.849C334.728 211.115 334.368 210.439 333.851 209.894C333.588 209.628 333.26 209.435 332.9 209.336C332.539 209.237 332.159 209.234 331.797 209.328C330.955 209.595 330.469 210.455 330.128 211.272C329.118 213.674 328.657 216.272 328.779 218.876C328.756 220.097 329.104 221.296 329.776 222.315Z" fill="black"/>
</g>
<path d="M333.333 228.445C334.756 227.686 336.384 227.403 337.979 227.639C338.844 227.675 339.674 227.998 340.336 228.557C340.949 229.166 341.115 230.282 340.48 230.864C340.065 231.173 339.557 231.329 339.04 231.308C337.803 231.356 336.421 231.206 335.472 232.002C334.939 232.45 334.592 233.177 333.931 233.422C333.597 233.516 333.242 233.5 332.919 233.374C332.596 233.249 332.322 233.022 332.139 232.728C331.788 232.125 331.681 231.41 331.84 230.731C331.896 230.26 332.06 229.809 332.319 229.413C332.578 229.016 332.925 228.685 333.333 228.445Z" fill="#289672"/>
<path d="M327.467 224.221C327.883 223.614 328.145 222.915 328.23 222.183C328.316 221.452 328.222 220.711 327.957 220.024C327.404 218.648 326.481 217.452 325.291 216.569C323.945 215.487 322.401 214.678 320.747 214.187C320.106 213.966 319.426 213.886 318.752 213.952C318.419 213.988 318.1 214.104 317.821 214.29C317.543 214.476 317.313 214.727 317.152 215.02C316.731 215.934 317.232 216.985 317.76 217.835C318.684 219.338 319.726 220.767 320.875 222.107C321.803 223.175 322.853 224.243 324.197 224.675C325.541 225.108 326.917 224.985 327.573 224.034" fill="#289672"/>
<path d="M330.667 241.069C330.702 240.883 330.719 240.693 330.715 240.503C330.715 240.086 330.763 239.568 330.789 238.949C330.816 238.33 330.885 237.523 331.019 236.674C331.176 235.753 331.406 234.846 331.707 233.961C332.001 233.08 332.417 232.244 332.944 231.478C333.375 230.855 333.94 230.337 334.597 229.962C335.04 229.709 335.521 229.528 336.021 229.428C336.202 229.411 336.381 229.375 336.555 229.321C336.365 229.299 336.174 229.299 335.984 229.321C335.464 229.386 334.959 229.545 334.496 229.791C333.803 230.158 333.206 230.683 332.752 231.323C332.201 232.101 331.768 232.956 331.467 233.86C331.161 234.757 330.935 235.679 330.789 236.615C330.679 237.378 330.617 238.147 330.603 238.917C330.603 239.574 330.603 240.108 330.603 240.471C330.601 240.672 330.622 240.873 330.667 241.069Z" fill="#263238"/>
<path d="M330.709 239.878C330.716 239.791 330.716 239.704 330.709 239.617C330.709 239.419 330.709 239.168 330.672 238.864C330.635 238.217 330.587 237.262 330.565 236.108C330.507 233.78 330.565 230.565 330.752 227.03C330.939 223.495 331.317 220.28 331.669 217.979C331.755 217.402 331.84 216.884 331.92 216.43C332 215.976 332.064 215.581 332.133 215.261C332.203 214.94 332.235 214.727 332.272 214.524C332.29 214.438 332.301 214.35 332.304 214.262C332.265 214.342 332.238 214.426 332.224 214.513L332.043 215.245C331.963 215.56 331.883 215.95 331.792 216.404C331.701 216.857 331.6 217.375 331.509 217.952C331.017 220.958 330.685 223.989 330.517 227.03C330.309 230.581 330.299 233.812 330.4 236.14C330.443 237.31 330.517 238.249 330.581 238.901L330.661 239.649C330.667 239.727 330.683 239.804 330.709 239.878Z" fill="#263238"/>
<path d="M330.411 233.668C330.416 233.407 330.4 233.146 330.363 232.888C330.282 232.18 330.167 231.476 330.016 230.779C329.796 229.745 329.514 228.725 329.173 227.724C328.766 226.493 328.273 225.292 327.696 224.131C326.691 221.991 325.307 220.051 323.611 218.406C323.316 218.126 323.004 217.864 322.677 217.621C322.533 217.514 322.405 217.408 322.277 217.322L321.92 217.098C321.702 216.955 321.476 216.825 321.243 216.708C322.03 217.27 322.783 217.878 323.499 218.529C325.137 220.191 326.479 222.122 327.467 224.237C328.041 225.388 328.536 226.576 328.949 227.794C329.295 228.786 329.59 229.795 329.835 230.816C330.043 231.687 330.171 232.418 330.256 232.899C330.286 233.159 330.338 233.416 330.411 233.668Z" fill="#263238"/>
<path d="M78.8693 121.084H18.5707V161.519H78.8693V121.084Z" fill="#FAFAFA"/>
<path d="M62.4853 145.611H60.8853V135.93C60.8465 134.837 60.3859 133.803 59.6005 133.044C58.8151 132.285 57.7662 131.861 56.6747 131.861C55.5832 131.861 54.5343 132.285 53.7489 133.044C52.9635 133.803 52.5028 134.837 52.464 135.93V145.611H50.864V135.93C50.9098 134.416 51.5426 132.979 52.6283 131.925C53.7141 130.87 55.1673 130.28 56.68 130.28C58.1927 130.28 59.646 130.87 60.7317 131.925C61.8174 132.979 62.4502 134.416 62.496 135.93L62.4853 145.611Z" fill="#263238"/>
<path d="M62.816 141.302H50.5227C49.5241 141.302 48.7147 142.112 48.7147 143.112V149.712C48.7147 150.712 49.5241 151.522 50.5227 151.522H62.816C63.8145 151.522 64.624 150.712 64.624 149.712V143.112C64.624 142.112 63.8145 141.302 62.816 141.302Z" fill="#263238"/>
<path d="M56.672 146.412C56.4094 146.412 56.1526 146.334 55.9342 146.188C55.7158 146.042 55.5456 145.834 55.4451 145.591C55.3446 145.348 55.3183 145.081 55.3695 144.823C55.4208 144.565 55.5472 144.328 55.733 144.142C55.9187 143.956 56.1553 143.83 56.4129 143.778C56.6705 143.727 56.9375 143.753 57.1802 143.854C57.4229 143.955 57.6303 144.125 57.7762 144.344C57.9221 144.562 58 144.819 58 145.082C58 145.435 57.8601 145.773 57.611 146.023C57.362 146.272 57.0242 146.412 56.672 146.412Z" fill="#455A64"/>
<path d="M57.0347 145.611H56.3093V148.351H57.0347V145.611Z" fill="#455A64"/>
<path d="M48.32 145.494C49.4718 144.985 50.4492 144.15 51.1309 143.09C51.8126 142.031 52.1686 140.794 52.1547 139.534C52.1547 135.972 49.488 133.073 46.144 133.057C42.8 133.041 40.096 135.914 40.08 139.465C40.0523 140.737 40.4037 141.989 41.0895 143.061C41.7753 144.133 42.7644 144.976 43.9307 145.483C34.6667 146.898 35.0613 156.996 35.0613 156.996L57.0293 157.097C57.0293 157.097 57.5307 146.887 48.32 145.494Z" fill="#289672"/>
<path d="M78.864 161.524C78.864 161.524 78.864 161.268 78.864 160.782C78.864 160.296 78.864 159.58 78.864 158.646C78.864 156.772 78.864 154.027 78.832 150.513C78.832 143.486 78.8 133.393 78.7787 121.084L78.8853 121.197H18.6187L18.7573 121.058C18.7573 135.476 18.7573 149.162 18.7573 161.498L18.6347 161.369L62.064 161.428L74.48 161.465H77.7813H78.6347H78.928H77.8133H74.5333L62.1493 161.503L18.6347 161.562H18.5067V161.439C18.5067 149.103 18.5067 135.406 18.5067 120.999V120.86H18.6507L78.944 120.892H79.056V120.999C79.056 133.334 79.0133 143.454 78.9973 150.497C78.9973 154 78.9973 156.74 78.9707 158.609C78.9707 159.532 78.9707 160.237 78.9707 160.745C78.9707 161.252 78.864 161.524 78.864 161.524Z" fill="#263238"/>
<path d="M78.8533 125.944C78.8533 126.019 65.36 126.083 48.7253 126.083C32.0907 126.083 18.5973 126.019 18.5973 125.944C18.5973 125.869 32.0853 125.805 48.7253 125.805C65.3653 125.805 78.8533 125.869 78.8533 125.944Z" fill="#263238"/>
<path d="M22.5387 123.519C22.5387 123.643 22.5021 123.764 22.4335 123.866C22.3649 123.969 22.2675 124.049 22.1535 124.097C22.0394 124.144 21.914 124.156 21.7929 124.132C21.6719 124.108 21.5607 124.048 21.4734 123.961C21.3862 123.874 21.3267 123.762 21.3027 123.641C21.2786 123.52 21.2909 123.394 21.3382 123.28C21.3854 123.166 21.4654 123.068 21.568 123C21.6706 122.931 21.7913 122.895 21.9147 122.895C22.0802 122.895 22.2389 122.96 22.3559 123.078C22.4729 123.195 22.5387 123.354 22.5387 123.519Z" fill="#263238"/>
<path d="M24.5813 123.519C24.5813 123.685 24.5156 123.844 24.3986 123.961C24.2815 124.078 24.1228 124.144 23.9573 124.144C23.7918 124.144 23.6331 124.078 23.5161 123.961C23.3991 123.844 23.3333 123.685 23.3333 123.519C23.3333 123.354 23.3991 123.195 23.5161 123.078C23.6331 122.96 23.7918 122.895 23.9573 122.895C24.1228 122.895 24.2815 122.96 24.3986 123.078C24.5156 123.195 24.5813 123.354 24.5813 123.519Z" fill="#263238"/>
<path d="M26.7733 123.52C26.7733 123.642 26.7371 123.763 26.6692 123.865C26.6013 123.967 26.5048 124.047 26.3917 124.095C26.2786 124.143 26.154 124.156 26.0334 124.133C25.9128 124.11 25.8016 124.052 25.7137 123.967C25.6259 123.881 25.5652 123.771 25.5393 123.651C25.5135 123.531 25.5236 123.406 25.5684 123.291C25.6132 123.177 25.6906 123.078 25.7911 123.008C25.8916 122.937 26.0107 122.898 26.1333 122.895C26.2166 122.893 26.2995 122.907 26.377 122.938C26.4546 122.968 26.5253 123.014 26.585 123.072C26.6446 123.13 26.692 123.2 26.7244 123.277C26.7567 123.354 26.7734 123.436 26.7733 123.52Z" fill="#263238"/>
<path d="M78.864 161.524C78.864 161.524 78.864 161.268 78.864 160.782C78.864 160.296 78.864 159.58 78.864 158.646C78.864 156.772 78.864 154.027 78.832 150.513C78.832 143.486 78.8 133.393 78.7787 121.084L78.8853 121.197H18.6187L18.7573 121.058C18.7573 135.476 18.7573 149.162 18.7573 161.498L18.6347 161.369L62.064 161.428L74.48 161.465H77.7813H78.6347H78.928H77.8133H74.5333L62.1493 161.503L18.6347 161.562H18.5067V161.439C18.5067 149.103 18.5067 135.406 18.5067 120.999V120.86H18.6507L78.944 120.892H79.056V120.999C79.056 133.334 79.0133 143.454 78.9973 150.497C78.9973 154 78.9973 156.74 78.9707 158.609C78.9707 159.532 78.9707 160.237 78.9707 160.745C78.9707 161.252 78.864 161.524 78.864 161.524Z" fill="#263238"/>
<path d="M48.3253 162.87C48.2507 162.87 48.1867 162.571 48.1867 162.202C48.1867 161.834 48.2507 161.535 48.3253 161.535C48.4 161.535 48.4693 161.834 48.4693 162.202C48.4693 162.571 48.4053 162.87 48.3253 162.87Z" fill="#263238"/>
<path d="M48.3253 168.701C48.19 168.226 48.143 167.73 48.1867 167.238C48.1426 166.748 48.1897 166.253 48.3253 165.78C48.4674 166.252 48.5163 166.747 48.4693 167.238C48.5161 167.731 48.4672 168.227 48.3253 168.701Z" fill="#263238"/>
<path d="M48.3253 174.543C48.19 174.068 48.143 173.572 48.1867 173.08C48.1426 172.59 48.1897 172.095 48.3253 171.622C48.4674 172.094 48.5163 172.589 48.4693 173.08C48.5161 173.572 48.4672 174.069 48.3253 174.543Z" fill="#263238"/>
<path d="M48.3253 180.385C48.19 179.91 48.143 179.414 48.1867 178.922C48.1426 178.432 48.1897 177.937 48.3253 177.464C48.4674 177.936 48.5163 178.431 48.4693 178.922C48.5161 179.414 48.4672 179.911 48.3253 180.385Z" fill="#263238"/>
<path d="M48.3253 186.227C48.19 185.752 48.143 185.256 48.1867 184.764C48.1426 184.274 48.1897 183.779 48.3253 183.306C48.4674 183.778 48.5163 184.273 48.4693 184.764C48.5161 185.256 48.4672 185.753 48.3253 186.227Z" fill="#263238"/>
<path d="M49.6587 190.483C49.2281 190.619 48.7746 190.666 48.3253 190.622L48.1867 190.483V189.981C48.1867 189.821 48.1867 189.677 48.2187 189.554C48.2187 189.314 48.2773 189.164 48.3147 189.164C48.352 189.164 48.3893 189.314 48.416 189.554C48.416 189.677 48.416 189.821 48.416 189.981V190.232V190.483C48.352 190.419 48.5493 190.622 48.272 190.344C48.7388 190.292 49.2113 190.34 49.6587 190.483Z" fill="#263238"/>
<path d="M54.9013 190.483C54.478 190.618 54.0316 190.666 53.5893 190.622C53.1489 190.665 52.7042 190.618 52.2827 190.483C52.7042 190.348 53.1489 190.301 53.5893 190.344C54.0316 190.3 54.478 190.348 54.9013 190.483Z" fill="#263238"/>
<path d="M60.144 190.483C59.7207 190.618 59.2742 190.666 58.832 190.622C58.3898 190.666 57.9433 190.618 57.52 190.483C57.9433 190.348 58.3898 190.3 58.832 190.344C59.2742 190.3 59.7207 190.348 60.144 190.483Z" fill="#263238"/>
<path d="M65.3867 190.483C64.9634 190.618 64.5169 190.666 64.0747 190.622C63.6325 190.666 63.186 190.618 62.7627 190.483C63.186 190.348 63.6325 190.3 64.0747 190.344C64.5169 190.3 64.9634 190.348 65.3867 190.483Z" fill="#263238"/>
<path d="M70.624 190.483C69.7609 190.668 68.8684 190.668 68.0053 190.483C68.8684 190.298 69.7609 190.298 70.624 190.483Z" fill="#263238"/>
<path d="M75.8667 190.483C75.0036 190.668 74.1111 190.668 73.248 190.483C74.1111 190.298 75.0036 190.298 75.8667 190.483Z" fill="#263238"/>
<path d="M81.1093 190.483C80.2444 190.668 79.3502 190.668 78.4853 190.483C79.3502 190.298 80.2444 190.298 81.1093 190.483Z" fill="#263238"/>
<path d="M86.3467 190.483C85.4836 190.668 84.5911 190.668 83.728 190.483C84.5911 190.298 85.4836 190.298 86.3467 190.483Z" fill="#263238"/>
<path d="M91.5893 190.483C90.7262 190.668 89.8338 190.668 88.9707 190.483C89.8338 190.298 90.7262 190.298 91.5893 190.483Z" fill="#263238"/>
<path d="M96.832 190.483C95.9671 190.668 95.0729 190.668 94.208 190.483C95.0729 190.298 95.9671 190.298 96.832 190.483Z" fill="#263238"/>
<path d="M102.069 190.483C101.206 190.668 100.314 190.668 99.4507 190.483C100.314 190.298 101.206 190.298 102.069 190.483Z" fill="#263238"/>
<path d="M106.027 190.483C106.027 190.558 105.728 190.622 105.36 190.622C104.992 190.622 104.693 190.558 104.693 190.483C104.693 190.408 104.992 190.344 105.36 190.344C105.728 190.344 106.027 190.408 106.027 190.483Z" fill="#263238"/>
<path d="M106.651 39.1902H74.432V83.336H106.651V39.1902Z" fill="white"/>
<path d="M106.667 83.304C106.667 83.304 106.667 83.2292 106.667 83.085C106.667 82.9409 106.667 82.7273 106.667 82.4603C106.667 81.9263 106.667 81.0932 106.667 80.0466C106.667 77.9373 106.667 74.8614 106.624 70.9686C106.624 63.1989 106.565 52.1825 106.528 39.1475L106.672 39.2917L74.4587 39.3291L74.6187 39.1689V83.3147L74.4907 83.1865L97.888 83.2346L104.4 83.2666H106.112H106.709C106.709 83.2666 106.523 83.2666 106.144 83.2666H104.453L97.968 83.304L74.5013 83.3894H74.368V83.2559C74.368 70.8671 74.3307 55.6001 74.3093 39.1101V38.95H74.4747H106.688H106.837V39.0995C106.837 52.1718 106.8 63.2256 106.784 71.0167C106.784 74.8882 106.784 77.9586 106.752 80.0519C106.752 81.0879 106.752 81.8835 106.752 82.4336C106.752 82.6952 106.752 82.8981 106.752 83.0423C106.732 83.1322 106.704 83.2198 106.667 83.304Z" fill="#263238"/>
<path d="M94.128 48.0599C94.128 48.1507 90.624 48.2201 86.2987 48.2254C81.9733 48.2308 78.4693 48.1613 78.4693 48.0706C78.4693 47.9798 81.9733 47.905 86.2987 47.905C90.624 47.905 94.128 47.9691 94.128 48.0599Z" fill="#263238"/>
<path d="M102.597 51.8888C102.597 51.9796 97.1947 52.0543 90.5333 52.0597C83.872 52.065 78.4693 51.9956 78.4693 51.9048C78.4693 51.814 83.872 51.7393 90.5333 51.7393C97.1947 51.7393 102.597 51.798 102.597 51.8888Z" fill="#263238"/>
<path d="M102.603 55.8937C102.603 55.9791 97.2 56.0539 90.5387 56.0592C83.8773 56.0646 78.4747 55.9951 78.4747 55.9097C78.4747 55.8243 83.8773 55.7442 90.5387 55.7388C97.2 55.7335 102.603 55.8029 102.603 55.8937Z" fill="#263238"/>
<path d="M102.603 59.8934C102.603 59.9842 97.2053 60.059 90.544 60.0643C83.8827 60.0696 78.48 60.0002 78.48 59.9094C78.48 59.8187 83.8773 59.7439 90.544 59.7386C97.2107 59.7332 102.603 59.808 102.603 59.8934Z" fill="#263238"/>
<path d="M102.608 63.893C102.608 63.9838 97.2053 64.0585 90.544 64.0639C83.8827 64.0692 78.48 63.9998 78.48 63.9143C78.48 63.8289 83.8827 63.7488 90.544 63.7435C97.2053 63.7381 102.608 63.8075 102.608 63.893Z" fill="#263238"/>
<path d="M102.608 67.898C102.608 67.9888 97.2107 68.0636 90.5493 68.0689C83.888 68.0743 78.4853 68.0048 78.4853 67.9141C78.4853 67.8233 83.8827 67.7485 90.5493 67.7432C97.216 67.7378 102.608 67.8179 102.608 67.898Z" fill="#263238"/>
<path d="M102.613 71.8979C102.613 71.9886 97.2107 72.0634 90.5493 72.0687C83.888 72.0741 78.4853 72.0047 78.4853 71.9192C78.4853 71.8338 83.888 71.7537 90.5493 71.7483C97.2107 71.743 102.613 71.8124 102.613 71.8979Z" fill="#263238"/>
<path d="M91.456 75.908C91.456 75.9988 88.5547 76.0736 84.976 76.0736C81.3973 76.0736 78.4907 76.0095 78.4907 75.9187C78.4907 75.8279 81.392 75.7532 84.976 75.7532C88.56 75.7532 91.456 75.8279 91.456 75.908Z" fill="#263238"/>
<path d="M103.851 86.5348C107.465 86.5348 110.395 83.6013 110.395 79.9826C110.395 76.3639 107.465 73.4304 103.851 73.4304C100.237 73.4304 97.3067 76.3639 97.3067 79.9826C97.3067 83.6013 100.237 86.5348 103.851 86.5348Z" fill="#289672"/>
<path d="M107.605 77.4567C107.883 77.7183 106.597 79.5499 104.736 81.5524C104.432 81.8728 104.139 82.1772 103.856 82.4602L103.403 82.9088L102.949 82.5297C101.323 81.1626 100.256 79.9878 100.453 79.7315C100.651 79.4752 102.053 80.2281 103.776 81.4723L102.875 81.5417C103.136 81.2427 103.408 80.9223 103.717 80.6019C105.6 78.5994 107.323 77.195 107.605 77.4567Z" fill="#E0E0E0"/>
<path d="M88.1013 85.7445C87.9165 84.8641 87.9165 83.9548 88.1013 83.0745C88.2862 83.9548 88.2862 84.8641 88.1013 85.7445Z" fill="#263238"/>
<path d="M88.1013 91.0843C87.9165 90.2039 87.9165 89.2947 88.1013 88.4143C88.2862 89.2947 88.2862 90.2039 88.1013 91.0843Z" fill="#263238"/>
<path d="M88.1013 96.4244C87.9165 95.544 87.9165 94.6348 88.1013 93.7544C88.2862 94.6348 88.2862 95.544 88.1013 96.4244Z" fill="#263238"/>
<path d="M88.1013 101.764C87.9165 100.884 87.9165 99.9749 88.1013 99.0945C88.2862 99.9749 88.2862 100.884 88.1013 101.764Z" fill="#263238"/>
<path d="M88.1013 107.104C87.9165 106.224 87.9165 105.315 88.1013 104.434C88.2862 105.315 88.2862 106.224 88.1013 107.104Z" fill="#263238"/>
<path d="M88.1013 112.444C87.9165 111.564 87.9165 110.655 88.1013 109.774C88.2862 110.655 88.2862 111.564 88.1013 112.444Z" fill="#263238"/>
<path d="M88.1013 117.784C87.9165 116.904 87.9165 115.995 88.1013 115.114C88.2862 115.995 88.2862 116.904 88.1013 117.784Z" fill="#263238"/>
<path d="M88.1013 123.124C87.9165 122.244 87.9165 121.335 88.1013 120.454C88.2862 121.335 88.2862 122.244 88.1013 123.124Z" fill="#263238"/>
<path d="M90.6667 125.885C90.236 126.021 89.7826 126.068 89.3333 126.024C88.9174 126.034 88.5013 126.006 88.0907 125.939H88.032V125.901C88.032 125.842 88.064 125.81 88.08 125.81C88.096 125.81 88.1173 125.842 88.1333 125.901L88.08 125.853C88.4901 125.781 88.9064 125.75 89.3227 125.762C89.7744 125.712 90.2315 125.754 90.6667 125.885Z" fill="#263238"/>
<path d="M96 125.885C95.1207 126.07 94.2126 126.07 93.3333 125.885C94.2126 125.7 95.1207 125.7 96 125.885Z" fill="#263238"/>
<path d="M101.333 125.885C100.454 126.07 99.5459 126.07 98.6667 125.885C99.5459 125.7 100.454 125.7 101.333 125.885Z" fill="#263238"/>
<path d="M106.667 125.885C105.787 126.07 104.879 126.07 104 125.885C104.879 125.7 105.787 125.7 106.667 125.885Z" fill="#263238"/>
<path d="M112 125.885C111.121 126.07 110.213 126.07 109.333 125.885C110.213 125.7 111.121 125.7 112 125.885Z" fill="#263238"/>
<path d="M200.837 77.5797C200.652 76.6993 200.652 75.79 200.837 74.9097C201.022 75.79 201.022 76.6993 200.837 77.5797Z" fill="#263238"/>
<path d="M200.837 82.9195C200.652 82.0391 200.652 81.1299 200.837 80.2495C201.022 81.1299 201.022 82.0391 200.837 82.9195Z" fill="#263238"/>
<path d="M200.837 88.2596C200.652 87.3792 200.652 86.47 200.837 85.5896C201.022 86.47 201.022 87.3792 200.837 88.2596Z" fill="#263238"/>
<path d="M200.837 93.5943C200.652 92.7139 200.652 91.8047 200.837 90.9243C201.022 91.8047 201.022 92.7139 200.837 93.5943Z" fill="#263238"/>
<path d="M200.837 98.9395C200.653 98.0591 200.653 97.15 200.837 96.2695C201.021 97.15 201.021 98.0591 200.837 98.9395Z" fill="#263238"/>
<path d="M200.837 104.28C200.652 103.399 200.652 102.49 200.837 101.61C201.022 102.49 201.022 103.399 200.837 104.28Z" fill="#263238"/>
<path d="M200.837 109.62C200.652 108.739 200.652 107.83 200.837 106.95C201.022 107.83 201.022 108.739 200.837 109.62Z" fill="#263238"/>
<path d="M200.837 114.96C200.652 114.079 200.652 113.17 200.837 112.29C201.022 113.17 201.022 114.079 200.837 114.96Z" fill="#263238"/>
<path d="M237.056 81.0079H236.741H235.797H232.123L218.341 81.0559L170.773 81.1681H170.667L170.629 81.0453C170.107 79.2554 170.014 77.3672 170.359 75.5346C170.703 73.702 171.476 71.977 172.613 70.5001C173.75 69.0232 175.22 67.8363 176.902 67.0361C178.584 66.2359 180.432 65.8452 182.293 65.8957L182.117 66.1253C181.825 65.0838 181.701 64.0021 181.749 62.9213C181.893 59.2367 183.984 55.6803 187.195 54.0355C188.752 53.2204 190.484 52.799 192.241 52.8083C193.998 52.8176 195.726 53.2573 197.275 54.0889L197.029 54.1797C197.887 52.1872 199.149 50.3948 200.734 48.9158C202.319 47.4368 204.194 46.3035 206.24 45.5877C210.165 44.1565 214.517 44.3434 217.941 46.1217C221.198 47.8457 223.757 50.646 225.184 54.0462C226.495 57.034 226.809 60.3654 226.08 63.5461L225.947 63.3966C227.825 63.1972 229.723 63.4745 231.467 64.2029C233.015 64.8305 234.409 65.787 235.552 67.0064C236.075 67.551 236.508 68.1745 236.837 68.854C237.131 69.4829 237.361 70.1394 237.525 70.8138C237.802 71.9893 237.959 73.1898 237.995 74.397C238.053 76.0603 237.908 77.7244 237.563 79.3525C237.472 79.7732 237.358 80.1886 237.221 80.5967C237.125 80.8744 237.072 81.0079 237.072 81.0079" fill="#289672"/>
<path d="M231.024 62.7184H228.971V50.3509C228.971 48.9219 228.404 47.5515 227.395 46.541C226.385 45.5306 225.017 44.9629 223.589 44.9629C222.162 44.9629 220.793 45.5306 219.784 46.541C218.775 47.5515 218.208 48.9219 218.208 50.3509V62.7184H216.155V50.3509C216.155 48.3767 216.938 46.4833 218.332 45.0873C219.726 43.6913 221.618 42.907 223.589 42.907C225.561 42.907 227.452 43.6913 228.846 45.0873C230.241 46.4833 231.024 48.3767 231.024 50.3509V62.7184Z" fill="#E0E0E0"/>
<path d="M231.947 57.2129H215.232C214.233 57.2129 213.424 58.0234 213.424 59.0232V68.4643C213.424 69.4641 214.233 70.2745 215.232 70.2745H231.947C232.945 70.2745 233.755 69.4641 233.755 68.4643V59.0232C233.755 58.0234 232.945 57.2129 231.947 57.2129Z" fill="#E0E0E0"/>
<path d="M223.589 63.7436C223.252 63.7446 222.923 63.6455 222.642 63.4587C222.362 63.272 222.143 63.006 222.013 62.6945C221.884 62.383 221.85 62.04 221.915 61.7091C221.981 61.3782 222.143 61.0742 222.381 60.8356C222.619 60.597 222.923 60.4347 223.253 60.3691C223.584 60.3036 223.926 60.3378 224.238 60.4674C224.549 60.597 224.814 60.8161 225.001 61.0971C225.187 61.378 225.286 61.7081 225.285 62.0455C225.285 62.4958 225.107 62.9278 224.789 63.2462C224.471 63.5647 224.039 63.7436 223.589 63.7436Z" fill="#455A64"/>
<path d="M224.053 62.7183H223.125V66.216H224.053V62.7183Z" fill="#455A64"/>
<path d="M348.592 58.6117C350.121 57.1874 351.219 55.3608 351.759 53.341C352.299 51.3213 352.261 49.19 351.647 47.1911C351.034 45.1923 349.871 43.4067 348.292 42.0389C346.712 40.6711 344.78 39.7762 342.716 39.4568C340.652 39.1374 338.54 39.4064 336.622 40.233C334.704 41.0595 333.057 42.4102 331.869 44.1304C330.682 45.8506 330.003 47.8708 329.909 49.9597C329.815 52.0485 330.31 54.1217 331.339 55.9417L329.072 58.0777L329.605 61.8157L326.101 60.8758L323.269 63.5458L323.803 67.2838L320.288 66.2959L317.867 68.5548L318.197 70.8456L316.064 70.2475L314.667 71.5558L314.453 75.0429L319.643 76.3512L336.48 60.6195C338.473 61.5122 340.684 61.7979 342.838 61.4408C344.992 61.0838 346.993 60.0998 348.592 58.6117ZM346.949 44.9199C347.383 45.3825 347.669 45.9636 347.773 46.5894C347.876 47.2153 347.792 47.8577 347.53 48.4355C347.268 49.0132 346.841 49.5001 346.303 49.8346C345.765 50.169 345.139 50.336 344.506 50.3143C343.873 50.2925 343.26 50.0831 342.746 49.7125C342.232 49.3419 341.839 48.8268 341.618 48.2325C341.396 47.6382 341.356 46.9915 341.502 46.3742C341.648 45.7569 341.973 45.1969 342.437 44.7651C343.057 44.1884 343.88 43.881 344.725 43.91C345.571 43.939 346.37 44.3021 346.949 44.9199Z" fill="#263238"/>
<path d="M346.949 44.9201C346.949 44.9201 346.741 44.7225 346.315 44.4608C345.713 44.0957 345.008 43.9417 344.309 44.023C343.742 44.0834 343.202 44.301 342.752 44.6512C342.301 45.0014 341.956 45.4704 341.757 46.0057C341.557 46.5409 341.51 47.1213 341.622 47.6817C341.733 48.2421 341.998 48.7603 342.387 49.1783C342.776 49.5964 343.274 49.8976 343.824 50.0484C344.374 50.1991 344.956 50.1934 345.503 50.0318C346.051 49.8702 346.542 49.5592 346.923 49.1336C347.304 48.708 347.558 48.1846 347.659 47.6221C347.786 46.9278 347.681 46.2107 347.36 45.5822C347.131 45.139 346.928 44.9361 346.949 44.9201C346.971 44.9041 347.008 44.9575 347.104 45.0589C347.24 45.2026 347.358 45.3622 347.456 45.5342C347.834 46.1778 347.975 46.9333 347.856 47.6702C347.784 48.1029 347.627 48.5168 347.393 48.8878C347.159 49.2587 346.853 49.5792 346.494 49.8303C346.135 50.0815 345.73 50.2583 345.301 50.3505C344.873 50.4426 344.431 50.4482 344 50.3669C343.306 50.2379 342.671 49.8882 342.191 49.3698C341.71 48.8513 341.41 48.1917 341.333 47.4886C341.282 47.0517 341.318 46.6088 341.44 46.1862C341.563 45.7637 341.768 45.3699 342.045 45.0284C342.322 44.6868 342.665 44.4043 343.053 44.1977C343.441 43.9911 343.866 43.8645 344.304 43.8254C345.04 43.7538 345.778 43.9427 346.389 44.3594C346.554 44.4688 346.704 44.5979 346.837 44.7439C346.884 44.7963 346.922 44.8557 346.949 44.9201Z" fill="#263238"/>
<path d="M348.592 58.6117C348.543 58.6674 348.489 58.7192 348.432 58.7665L347.941 59.2044C347.282 59.738 346.567 60.1982 345.808 60.5768C344.348 61.2761 342.753 61.6502 341.135 61.6733C339.516 61.6963 337.912 61.3678 336.432 60.7103H336.523L319.717 76.4686L319.664 76.5113H319.6L314.411 75.2084L314.304 75.1817V75.0749C314.368 74.0069 314.437 72.8 314.512 71.5932V71.5398L314.555 71.5024L315.968 70.1781L316.021 70.13H316.096L318.229 70.7335L318.059 70.883C317.957 70.1674 317.845 69.3824 317.728 68.5921V68.5173L317.776 68.4693L320.213 66.1945L320.267 66.1411H320.341L323.856 67.129L323.68 67.2785C323.509 66.0877 323.323 64.806 323.147 63.5405V63.4711L323.195 63.4177L323.947 62.7181L326.027 60.7744L326.085 60.721H326.16L329.675 61.7089L329.499 61.8584C329.317 60.5946 329.14 59.3486 328.965 58.1204V58.051L329.019 58.0029L331.28 55.8669L331.253 56.0324C330.384 54.479 329.889 52.7436 329.808 50.9648C329.768 50.1007 329.831 49.2349 329.995 48.3856C330.146 47.5511 330.395 46.7374 330.736 45.9612C331.585 43.9895 332.981 42.3033 334.759 41.1029C336.537 39.9025 338.622 39.2384 340.766 39.1894C342.91 39.1405 345.022 39.7088 346.853 40.8269C348.684 41.9449 350.156 43.5657 351.093 45.4966C351.975 47.3214 352.344 49.352 352.16 51.3706C352.039 52.8648 351.614 54.3185 350.912 55.6426L350.704 56.0378L350.48 56.3902C350.325 56.6145 350.203 56.8388 350.053 57.0203C349.755 57.3835 349.52 57.7092 349.296 57.9388L348.763 58.4728L348.581 58.6383L348.747 58.4515L349.243 57.9175C349.461 57.6878 349.685 57.3834 349.973 56.999C350.117 56.8121 350.24 56.5878 350.384 56.3635L350.608 56.0111L350.805 55.6159C351.597 54.0687 352.016 52.358 352.031 50.6198C352.046 48.8816 351.655 47.1639 350.891 45.6034C349.718 43.2425 347.741 41.3798 345.316 40.3524C342.89 39.3249 340.178 39.2005 337.669 40.0018C336.181 40.4774 334.81 41.2648 333.649 42.3116C332.487 43.3584 331.562 44.6407 330.933 46.0733C330.602 46.8309 330.36 47.6249 330.213 48.439C330.053 49.2671 329.994 50.1117 330.037 50.9541C330.115 52.6929 330.601 54.389 331.456 55.9043L331.504 55.9951L331.429 56.0698L329.168 58.2058L329.211 58.0883C329.388 59.3272 329.566 60.5732 329.744 61.8263L329.776 62.0346L329.573 61.9812L326.059 60.9933L326.192 60.9613L324.112 62.905L323.36 63.6046L323.403 63.4871C323.589 64.774 323.771 66.0556 323.936 67.2251L323.968 67.4333L323.765 67.3799L320.251 66.392L320.384 66.36L317.947 68.6348L317.989 68.512C318.101 69.3023 318.213 70.0873 318.32 70.8029V71.0111L318.123 70.9577L315.989 70.3543L316.117 70.3223L314.704 71.6466L314.747 71.5558C314.672 72.7626 314.597 73.9535 314.528 75.0375L314.432 74.904L319.621 76.2176H319.504L336.368 60.5234L336.405 60.486H336.459C337.918 61.1411 339.501 61.4744 341.1 61.4634C342.7 61.4523 344.278 61.0971 345.728 60.4219C346.493 60.0583 347.217 59.6144 347.888 59.0976C348.107 58.9214 348.272 58.7825 348.389 58.6811L348.592 58.6117Z" fill="#263238"/>
<path d="M348.219 57.3514C349.748 55.9271 350.845 54.1005 351.386 52.0808C351.926 50.061 351.887 47.9297 351.274 45.9309C350.661 43.932 349.498 42.1465 347.919 40.7786C346.339 39.4108 344.407 38.516 342.343 38.1966C340.279 37.8772 338.167 38.1462 336.249 38.9727C334.33 39.7992 332.683 41.1499 331.496 42.8702C330.309 44.5904 329.629 46.6105 329.535 48.6994C329.442 50.7883 329.937 52.8614 330.965 54.6814L328.704 56.8174L329.237 60.5554L325.723 59.5675L322.891 62.2375L323.424 65.9755L319.909 64.9876L317.493 67.2838L317.824 69.5747L315.691 68.9766L314.277 70.3009L314.064 73.7826L319.253 75.0909L336.091 59.3646C338.086 60.2601 340.301 60.5467 342.458 60.1886C344.615 59.8306 346.619 58.8437 348.219 57.3514ZM346.576 43.6543C347.01 44.1167 347.298 44.6977 347.401 45.3238C347.505 45.9499 347.421 46.5928 347.16 47.1709C346.898 47.7491 346.471 48.2364 345.933 48.5712C345.394 48.906 344.769 49.0731 344.135 49.0513C343.502 49.0295 342.889 48.8199 342.374 48.4489C341.86 48.078 341.467 47.5624 341.246 46.9677C341.025 46.373 340.985 45.7258 341.131 45.1084C341.278 44.4909 341.604 43.9309 342.069 43.4995C342.689 42.9245 343.51 42.6181 344.355 42.6471C345.199 42.6761 345.997 43.0381 346.576 43.6543Z" fill="#E0E0E0"/>
<path d="M346.576 43.6545C346.576 43.6545 346.368 43.4622 345.941 43.2006C345.341 42.8332 344.635 42.6772 343.936 42.7573C343.369 42.8188 342.83 43.0371 342.38 43.3879C341.93 43.7386 341.586 44.2079 341.387 44.7432C341.188 45.2784 341.142 45.8586 341.254 46.4186C341.366 46.9786 341.632 47.4964 342.021 47.9139C342.41 48.3314 342.907 48.6322 343.458 48.7826C344.008 48.933 344.589 48.927 345.136 48.7653C345.683 48.6037 346.175 48.2927 346.555 47.8673C346.936 47.4418 347.19 46.9187 347.291 46.3565C347.419 45.6634 347.312 44.9471 346.987 44.322C346.757 43.8787 346.555 43.6758 346.576 43.6545C346.597 43.6331 346.635 43.6972 346.731 43.7933C346.867 43.937 346.985 44.0966 347.083 44.2686C347.46 44.9122 347.602 45.6676 347.483 46.4046C347.413 46.839 347.256 47.255 347.024 47.6283C346.791 48.0015 346.486 48.3244 346.127 48.5781C345.767 48.8317 345.361 49.011 344.932 49.1055C344.503 49.1999 344.059 49.2075 343.627 49.128C342.933 48.9963 342.299 48.6451 341.819 48.126C341.339 47.607 341.038 46.9474 340.96 46.2444C340.881 45.5919 341.002 44.9309 341.307 44.3487C341.56 43.8565 341.933 43.4364 342.392 43.1273C342.851 42.8183 343.38 42.6304 343.931 42.5811C344.667 42.5127 345.403 42.7014 346.016 43.1151C346.182 43.2229 346.332 43.3522 346.464 43.4996C346.546 43.5993 346.583 43.6509 346.576 43.6545Z" fill="#263238"/>
<path d="M348.219 57.3515C348.168 57.4044 348.115 57.4543 348.059 57.501L347.573 57.9389C346.914 58.4726 346.199 58.9328 345.44 59.3113C343.98 60.0106 342.385 60.3847 340.767 60.4078C339.148 60.4308 337.544 60.1023 336.064 59.4448H336.155L319.328 75.1871L319.28 75.2351H319.211L314.021 73.9322H313.915V73.8254C313.979 72.7574 314.048 71.5452 314.123 70.3384V70.285L314.16 70.2529C314.597 69.8417 315.083 69.3825 315.573 68.9286L315.632 68.8752H315.701L317.835 69.4733L317.664 69.6228C317.557 68.9073 317.445 68.1223 317.333 67.3319V67.2625L317.381 67.2091L319.819 64.9396L319.872 64.8862H319.947L323.461 65.8688L323.285 66.0237C323.115 64.8275 322.928 63.5512 322.752 62.2857V62.2162L322.805 62.1682L323.552 61.4633L325.632 59.5195L325.691 59.4661H325.765L329.28 60.454L329.104 60.6089C328.923 59.338 328.741 58.0884 328.571 56.8709V56.8015L328.624 56.7534L330.885 54.6174V54.7829C330.012 53.2309 329.515 51.495 329.435 49.7153C329.363 48.0004 329.681 46.2917 330.363 44.717C331.212 42.7454 332.608 41.0591 334.386 39.8587C336.164 38.6583 338.249 37.9942 340.392 37.9453C342.536 37.8964 344.649 38.4647 346.48 39.5827C348.311 40.7008 349.782 42.3216 350.72 44.2525C351.606 46.0647 351.984 48.0839 351.813 50.0944C351.693 51.5888 351.268 53.0426 350.565 54.3664L350.363 54.7616L350.133 55.114C349.979 55.3436 349.856 55.5626 349.712 55.7495C349.408 56.1126 349.179 56.433 348.955 56.6626L348.421 57.1966C348.304 57.3141 348.24 57.3675 348.24 57.3675C348.24 57.3675 348.293 57.2981 348.405 57.1806L348.901 56.6466C349.12 56.417 349.344 56.1126 349.637 55.7228C349.776 55.5359 349.899 55.3116 350.043 55.0873L350.267 54.7349L350.469 54.3397C351.094 53.0308 351.456 51.6115 351.533 50.1627C351.61 48.7139 351.402 47.2641 350.919 45.896C350.437 44.5279 349.69 43.2683 348.722 42.1892C347.753 41.1101 346.582 40.2325 345.275 39.6067C343.967 38.9808 342.55 38.6189 341.103 38.5415C339.656 38.4642 338.208 38.673 336.841 39.1559C335.475 39.6389 334.217 40.3866 333.139 41.3564C332.062 42.3261 331.185 43.4989 330.56 44.8078C329.896 46.3477 329.59 48.0183 329.664 49.6939C329.741 51.4311 330.227 53.1254 331.083 54.6388L331.136 54.7349L331.056 54.8043L328.795 56.9403L328.837 56.8228C329.012 58.0617 329.189 59.3077 329.371 60.5608L329.403 60.7744L329.2 60.7157L325.685 59.7278L325.819 59.6958L323.739 61.6395L322.987 62.3444L323.029 62.2216C323.216 63.5085 323.397 64.7901 323.563 65.9596L323.595 66.1732L323.392 66.1144L319.888 65.1479L320.021 65.1159L317.584 67.3907L317.627 67.2732C317.739 68.0635 317.856 68.8752 317.957 69.5641L317.984 69.767L317.787 69.7136L315.653 69.1102L315.781 69.0781L314.363 70.4025L314.405 70.3117C314.331 71.5185 314.256 72.7093 314.187 73.7934L314.091 73.6599L319.28 74.9735L319.163 75.0055L336 59.3059L336.043 59.2685H336.091C337.764 60.0179 339.595 60.3461 341.424 60.2244C342.782 60.1235 344.112 59.7798 345.349 59.2098C346.103 58.8405 346.817 58.3969 347.483 57.8855L347.984 57.4636L348.219 57.3515Z" fill="#263238"/>
<path d="M347.2 56.481C347.748 55.8938 348.247 55.2634 348.693 54.596C349.201 53.8044 349.586 52.9401 349.835 52.0328C350.177 50.8348 350.286 49.582 350.155 48.3428C350.003 46.8427 349.5 45.3993 348.688 44.1296C347.756 42.6714 346.452 41.4881 344.912 40.7013C344.086 40.273 343.199 39.9741 342.283 39.8148C341.81 39.7298 341.333 39.6745 340.853 39.6493C340.363 39.6424 339.873 39.6673 339.387 39.7241C337.345 39.9595 335.434 40.8445 333.932 42.2488C332.431 43.6532 331.419 45.5028 331.045 47.5258C330.956 48.0075 330.897 48.4944 330.869 48.9836C330.861 49.4651 330.883 49.9466 330.933 50.4254C331.035 51.3454 331.272 52.2452 331.637 53.0954C332.312 54.6895 333.401 56.074 334.789 57.1058C335.895 57.9221 337.162 58.4949 338.504 58.7867C339.847 59.0784 341.237 59.0825 342.581 58.7985C343.503 58.6138 344.392 58.2897 345.216 57.8373C345.911 57.4354 346.575 56.9801 347.2 56.4756C347.2 56.4756 347.163 56.5184 347.088 56.5878L346.741 56.8975C346.556 57.0726 346.356 57.2316 346.144 57.3728C345.864 57.5696 345.572 57.748 345.269 57.9068C344.438 58.3813 343.538 58.7252 342.603 58.9267C341.233 59.2308 339.814 59.24 338.44 58.9537C337.067 58.6674 335.77 58.0921 334.635 57.266C333.209 56.2131 332.088 54.7996 331.387 53.1702C331.01 52.3024 330.767 51.3823 330.667 50.4414C330.609 49.9524 330.585 49.4599 330.597 48.9676C330.619 48.4637 330.678 47.9622 330.773 47.4671C331.158 45.3878 332.2 43.4873 333.745 42.0454C335.29 40.6034 337.256 39.6961 339.355 39.4571C339.854 39.3993 340.356 39.3761 340.859 39.3876C341.351 39.412 341.841 39.4691 342.325 39.5585C343.267 39.7271 344.177 40.0386 345.024 40.4823C346.599 41.2938 347.929 42.5125 348.875 44.0121C349.7 45.3129 350.205 46.7919 350.347 48.3268C350.465 49.5849 350.34 50.854 349.979 52.0648C349.713 52.981 349.308 53.8509 348.779 54.644C348.594 54.9369 348.387 55.2153 348.16 55.4771C347.998 55.6705 347.82 55.8492 347.627 56.0111L347.291 56.3368C347.243 56.4489 347.2 56.4863 347.2 56.481Z" fill="#263238"/>
<path d="M346.747 48.5939C346.747 48.5939 346.981 48.3536 347.28 47.8569C347.646 47.2637 347.837 46.5791 347.832 45.8819C347.826 45.1846 347.624 44.5032 347.248 43.916C346.897 43.3699 346.405 42.9289 345.824 42.6398C345.19 42.3131 344.472 42.1865 343.765 42.2766C343.003 42.364 342.288 42.6938 341.727 43.2176C341.165 43.7414 340.786 44.4316 340.645 45.1869C340.508 45.8892 340.585 46.6164 340.864 47.2749C341.064 47.7427 341.358 48.164 341.729 48.5122C342.1 48.8604 342.538 49.128 343.017 49.2981C343.496 49.4681 344.005 49.537 344.512 49.5004C345.019 49.4637 345.513 49.3223 345.963 49.0851C346.496 48.8075 346.715 48.5511 346.736 48.5939C346.757 48.6366 346.688 48.6633 346.571 48.7701C346.41 48.9278 346.231 49.0658 346.037 49.1813C345.404 49.5465 344.679 49.7202 343.949 49.6814C343.219 49.6425 342.516 49.3928 341.925 48.9623C341.335 48.534 340.879 47.9469 340.609 47.2692C340.339 46.5914 340.266 45.8508 340.4 45.1335C340.55 44.3208 340.957 43.5779 341.561 43.0145C342.165 42.4511 342.934 42.0969 343.755 42.0043C344.263 41.9429 344.779 41.9846 345.272 42.1268C345.764 42.269 346.223 42.5089 346.621 42.8322C347.019 43.1555 347.348 43.5556 347.589 44.0087C347.829 44.4619 347.976 44.9588 348.021 45.47C348.101 46.3336 347.879 47.1982 347.392 47.9157C347.263 48.1095 347.112 48.2885 346.944 48.4497C346.886 48.5073 346.819 48.5558 346.747 48.5939Z" fill="#263238"/>
<path d="M317.867 74.4769C317.813 74.4235 321.6 70.7977 326.331 66.3815C331.061 61.9653 334.939 58.4249 334.992 58.4836C335.045 58.5424 331.259 62.1629 326.523 66.5844C321.787 71.0059 317.936 74.5357 317.867 74.4769Z" fill="#263238"/>
<path d="M301.499 122.718C300.619 122.904 299.711 122.904 298.832 122.718C299.711 122.533 300.619 122.533 301.499 122.718Z" fill="#263238"/>
<path d="M306.832 122.718C305.953 122.904 305.045 122.904 304.165 122.718C305.045 122.533 305.953 122.533 306.832 122.718Z" fill="#263238"/>
<path d="M312.165 122.718C311.286 122.904 310.378 122.904 309.499 122.718C310.378 122.533 311.286 122.533 312.165 122.718Z" fill="#263238"/>
<path d="M317.499 122.718C316.619 122.904 315.711 122.904 314.832 122.718C315.711 122.533 316.619 122.533 317.499 122.718Z" fill="#263238"/>
<path d="M322.832 122.718C321.953 122.904 321.045 122.904 320.165 122.718C321.045 122.533 321.953 122.533 322.832 122.718Z" fill="#263238"/>
<path d="M328.165 122.718C327.286 122.904 326.378 122.904 325.499 122.718C326.378 122.533 327.286 122.533 328.165 122.718Z" fill="#263238"/>
<path d="M332.693 121.912C332.747 121.912 332.8 122.243 332.821 122.718V122.82H332.688H332.155C331.705 122.864 331.252 122.816 330.821 122.681C331.252 122.546 331.705 122.499 332.155 122.542H332.688L332.56 122.67C332.587 122.243 332.635 121.912 332.693 121.912Z" fill="#263238"/>
<path d="M332.693 116.572C332.878 117.452 332.878 118.362 332.693 119.242C332.508 118.362 332.508 117.452 332.693 116.572Z" fill="#263238"/>
<path d="M332.693 111.232C332.878 112.113 332.878 113.022 332.693 113.902C332.508 113.022 332.508 112.113 332.693 111.232Z" fill="#263238"/>
<path d="M332.693 105.892C332.878 106.772 332.878 107.682 332.693 108.562C332.508 107.682 332.508 106.772 332.693 105.892Z" fill="#263238"/>
<path d="M332.693 100.552C332.878 101.432 332.878 102.342 332.693 103.222C332.508 102.342 332.508 101.432 332.693 100.552Z" fill="#263238"/>
<path d="M332.693 95.2122C332.878 96.0925 332.878 97.0018 332.693 97.8822C332.508 97.0018 332.508 96.0925 332.693 95.2122Z" fill="#263238"/>
<path d="M332.693 89.8721C332.878 90.7524 332.878 91.6617 332.693 92.5421C332.508 91.6617 332.508 90.7524 332.693 89.8721Z" fill="#263238"/>
<path d="M332.693 84.532C332.878 85.4124 332.878 86.3216 332.693 87.202C332.508 86.3216 332.508 85.4124 332.693 84.532Z" fill="#263238"/>
<path d="M332.693 79.1921C332.878 80.0725 332.878 80.9818 332.693 81.8621C332.508 80.9818 332.508 80.0725 332.693 79.1921Z" fill="#263238"/>
<path d="M332.693 73.8521C332.878 74.7324 332.878 75.6417 332.693 76.5221C332.508 75.6417 332.508 74.7324 332.693 73.8521Z" fill="#263238"/>
<path d="M332.693 68.5122C332.878 69.3926 332.878 70.3018 332.693 71.1822C332.508 70.3018 332.508 69.3926 332.693 68.5122Z" fill="#263238"/>
<path d="M292.704 175.942C291.825 176.127 290.917 176.127 290.037 175.942C290.917 175.757 291.825 175.757 292.704 175.942Z" fill="#263238"/>
<path d="M298.037 175.942C297.158 176.127 296.25 176.127 295.371 175.942C296.25 175.757 297.158 175.757 298.037 175.942Z" fill="#263238"/>
<path d="M303.371 175.942C302.491 176.127 301.583 176.127 300.704 175.942C301.583 175.757 302.491 175.757 303.371 175.942Z" fill="#263238"/>
<path d="M308.704 175.942C307.825 176.127 306.917 176.127 306.037 175.942C306.917 175.757 307.825 175.757 308.704 175.942Z" fill="#263238"/>
<path d="M314.037 175.942C313.158 176.127 312.25 176.127 311.371 175.942C312.25 175.757 313.158 175.757 314.037 175.942Z" fill="#263238"/>
<path d="M319.371 175.942C318.491 176.127 317.583 176.127 316.704 175.942C317.583 175.757 318.491 175.757 319.371 175.942Z" fill="#263238"/>
<path d="M324.704 175.942C323.825 176.127 322.917 176.127 322.037 175.942C322.917 175.757 323.825 175.757 324.704 175.942Z" fill="#263238"/>
<path d="M330.037 175.942C329.158 176.127 328.25 176.127 327.371 175.942C328.25 175.757 329.158 175.757 330.037 175.942Z" fill="#263238"/>
<path d="M335.371 175.942C334.491 176.127 333.583 176.127 332.704 175.942C333.583 175.757 334.491 175.757 335.371 175.942Z" fill="#263238"/>
<path d="M340.704 175.942C339.825 176.127 338.917 176.127 338.037 175.942C338.917 175.757 339.825 175.757 340.704 175.942Z" fill="#263238"/>
<path d="M345.541 175.446C345.589 175.446 345.621 175.638 345.648 175.948V176.044H345.531C345.307 176.044 344.997 176.071 344.699 176.071C344.249 176.117 343.795 176.07 343.365 175.932C343.796 175.796 344.249 175.749 344.699 175.793C345.019 175.793 345.307 175.793 345.531 175.825L345.424 175.932C345.456 175.638 345.499 175.446 345.541 175.446Z" fill="#263238"/>
<path d="M345.6 170.106C345.735 170.537 345.778 170.992 345.728 171.441C345.768 171.892 345.715 172.346 345.573 172.776C345.442 172.344 345.4 171.889 345.451 171.441C345.41 170.99 345.461 170.536 345.6 170.106Z" fill="#263238"/>
<path d="M345.648 164.766C345.779 165.198 345.823 165.652 345.776 166.101C345.816 166.552 345.763 167.006 345.621 167.436C345.49 167.004 345.448 166.549 345.499 166.101C345.458 165.65 345.509 165.196 345.648 164.766Z" fill="#263238"/>
<path d="M345.701 159.426C345.833 159.858 345.876 160.312 345.829 160.761C345.866 161.212 345.814 161.665 345.675 162.096C345.543 161.664 345.5 161.21 345.547 160.761C345.51 160.31 345.562 159.856 345.701 159.426Z" fill="#263238"/>
<path d="M328.053 142.69L329.035 160.734C329.05 161.044 329.183 161.337 329.407 161.552C329.632 161.766 329.93 161.886 330.24 161.887L362.672 162.128C362.995 162.129 363.305 162.002 363.535 161.775C363.765 161.548 363.896 161.239 363.899 160.916L364 146.871C364.001 146.711 363.971 146.551 363.911 146.402C363.85 146.253 363.761 146.118 363.648 146.004C363.535 145.889 363.4 145.799 363.252 145.737C363.104 145.675 362.945 145.643 362.784 145.643H342.837C342.515 145.643 342.206 145.514 341.979 145.285L338.539 141.841C338.427 141.728 338.294 141.638 338.148 141.577C338.001 141.516 337.844 141.484 337.685 141.483L329.275 141.419C329.11 141.419 328.947 141.452 328.796 141.517C328.645 141.581 328.508 141.675 328.394 141.794C328.28 141.913 328.191 142.053 328.132 142.207C328.074 142.361 328.047 142.526 328.053 142.69Z" fill="#289672"/>
<path d="M364.023 143.521L328.584 143.26L328.429 164.46L363.868 164.72L364.023 143.521Z" fill="#F5F5F5"/>
<path d="M325.755 145.141L328.299 167.27C328.319 167.461 328.409 167.638 328.552 167.767C328.695 167.895 328.88 167.965 329.072 167.964L363.605 168.221C363.803 168.223 363.994 168.149 364.14 168.015C364.285 167.881 364.374 167.697 364.389 167.5L366.293 145.403C366.302 145.295 366.289 145.186 366.254 145.084C366.218 144.982 366.163 144.888 366.089 144.808C366.016 144.728 365.927 144.664 365.829 144.621C365.73 144.577 365.623 144.554 365.515 144.554L326.539 144.271C326.428 144.27 326.319 144.293 326.218 144.338C326.116 144.382 326.026 144.448 325.952 144.53C325.878 144.612 325.822 144.709 325.788 144.814C325.754 144.92 325.743 145.031 325.755 145.141Z" fill="#289672"/>
<path d="M296.811 110.736H118.309C114.018 110.736 110.539 114.219 110.539 118.516V231.436C110.539 235.733 114.018 239.216 118.309 239.216H296.811C301.102 239.216 304.581 235.733 304.581 231.436V118.516C304.581 114.219 301.102 110.736 296.811 110.736Z" fill="#263238"/>
<path d="M102.4 229.716H312.656V231.452C312.656 233.972 311.656 236.39 309.875 238.173C308.095 239.955 305.68 240.957 303.163 240.957H111.92C109.402 240.957 106.988 239.955 105.207 238.173C103.427 236.39 102.427 233.972 102.427 231.452V229.716H102.4Z" fill="#263238"/>
<path d="M298.832 115.841H115.749V224.339H298.832V115.841Z" fill="#455A64"/>
<path d="M188.432 229.716L191.04 233.871H227.749L230.176 229.716H188.432Z" fill="#455A64"/>
<path d="M293.696 119.515H121.264C120.301 119.515 119.52 120.296 119.52 121.261V222.246C119.52 223.21 120.301 223.992 121.264 223.992H293.696C294.659 223.992 295.44 223.21 295.44 222.246V121.261C295.44 120.296 294.659 119.515 293.696 119.515Z" fill="#EBEBEB"/>
<path d="M295.44 127.172H119.52V223.997H295.44V127.172Z" fill="#FAFAFA"/>
<path d="M133.947 123.552C133.947 123.831 133.864 124.103 133.709 124.335C133.554 124.567 133.334 124.748 133.076 124.855C132.819 124.961 132.535 124.989 132.262 124.934C131.989 124.879 131.738 124.744 131.541 124.547C131.344 124.349 131.211 124.097 131.157 123.823C131.103 123.55 131.132 123.266 131.239 123.008C131.347 122.751 131.528 122.531 131.76 122.377C131.993 122.223 132.265 122.141 132.544 122.142C132.729 122.142 132.911 122.178 133.082 122.249C133.253 122.32 133.407 122.424 133.538 122.555C133.668 122.686 133.771 122.842 133.841 123.013C133.912 123.184 133.947 123.367 133.947 123.552Z" fill="#263238"/>
<path d="M125.435 123.552C125.435 123.83 125.352 124.103 125.197 124.335C125.043 124.567 124.823 124.747 124.565 124.854C124.308 124.961 124.025 124.989 123.752 124.934C123.479 124.88 123.228 124.746 123.031 124.548C122.834 124.351 122.7 124.1 122.646 123.827C122.591 123.553 122.619 123.27 122.726 123.012C122.832 122.755 123.013 122.534 123.244 122.379C123.476 122.225 123.748 122.142 124.027 122.142C124.4 122.142 124.758 122.29 125.022 122.555C125.286 122.819 125.435 123.178 125.435 123.552Z" fill="#263238"/>
<path d="M129.52 123.552C129.52 123.831 129.437 124.103 129.282 124.335C129.127 124.567 128.907 124.748 128.65 124.855C128.392 124.961 128.109 124.989 127.835 124.934C127.562 124.879 127.311 124.744 127.115 124.547C126.918 124.349 126.784 124.097 126.73 123.823C126.677 123.55 126.705 123.266 126.813 123.008C126.92 122.751 127.101 122.531 127.334 122.377C127.566 122.223 127.839 122.141 128.117 122.142C128.302 122.142 128.485 122.178 128.655 122.249C128.826 122.32 128.981 122.424 129.111 122.555C129.241 122.686 129.345 122.842 129.415 123.013C129.485 123.184 129.521 123.367 129.52 123.552Z" fill="#263238"/>
<path d="M302.933 229.716C302.933 229.785 259.867 229.844 206.752 229.844C153.637 229.844 110.555 229.785 110.555 229.716C110.555 229.647 153.616 229.588 206.752 229.588C259.888 229.588 302.933 229.647 302.933 229.716Z" fill="#455A64"/>
<path d="M171.856 175.948H131.712V178.639H171.856V175.948Z" fill="#E0E0E0"/>
<path d="M223.707 138.616H183.563V141.307H223.707V138.616Z" fill="#E0E0E0"/>
<path d="M283.413 148.628C283.413 148.698 261.061 148.756 233.488 148.756C205.915 148.756 183.563 148.698 183.563 148.628C183.563 148.559 205.915 148.505 233.488 148.505C261.061 148.505 283.413 148.559 283.413 148.628Z" fill="#E0E0E0"/>
<path d="M283.413 154.502C283.413 154.572 261.061 154.625 233.488 154.625C205.915 154.625 183.563 154.572 183.563 154.502C183.563 154.433 205.915 154.374 233.488 154.374C261.061 154.374 283.413 154.433 283.413 154.502Z" fill="#E0E0E0"/>
<path d="M283.413 160.371C283.413 160.44 261.061 160.499 233.488 160.499C205.915 160.499 183.563 160.44 183.563 160.371C183.563 160.301 205.915 160.248 233.488 160.248C261.061 160.248 283.413 160.301 283.413 160.371Z" fill="#E0E0E0"/>
<path d="M283.413 166.245C283.413 166.314 261.061 166.368 233.488 166.368C205.915 166.368 183.563 166.314 183.563 166.245C183.563 166.175 205.915 166.117 233.488 166.117C261.061 166.117 283.413 166.175 283.413 166.245Z" fill="#E0E0E0"/>
<path d="M283.413 172.114C283.413 172.183 261.061 172.242 233.488 172.242C205.915 172.242 183.563 172.183 183.563 172.114C183.563 172.044 205.915 171.991 233.488 171.991C261.061 171.991 283.413 172.044 283.413 172.114Z" fill="#E0E0E0"/>
<path d="M222.539 177.988C222.539 178.057 213.813 178.11 203.051 178.11C192.288 178.11 183.563 178.057 183.563 177.988C183.563 177.918 192.288 177.859 203.051 177.859C213.813 177.859 222.539 177.918 222.539 177.988Z" fill="#E0E0E0"/>
<path d="M282.667 189.378C282.667 189.447 267.973 189.506 249.856 189.506C231.739 189.506 217.04 189.447 217.04 189.378C217.04 189.308 231.728 189.255 249.856 189.255C267.984 189.255 282.667 189.308 282.667 189.378Z" fill="#E0E0E0"/>
<path d="M282.667 195.615C282.667 195.684 267.973 195.738 249.856 195.738C231.739 195.738 217.04 195.684 217.04 195.615C217.04 195.546 231.728 195.487 249.856 195.487C267.984 195.487 282.667 195.546 282.667 195.615Z" fill="#E0E0E0"/>
<path d="M282.667 201.852C282.667 201.921 267.973 201.975 249.856 201.975C231.739 201.975 217.067 201.916 217.067 201.852C217.067 201.788 231.755 201.724 249.883 201.724C268.011 201.724 282.667 201.777 282.667 201.852Z" fill="#E0E0E0"/>
<path d="M282.667 208.078C282.667 208.148 267.973 208.201 249.856 208.201C231.739 208.201 217.04 208.148 217.04 208.078C217.04 208.009 231.728 207.95 249.856 207.95C267.984 207.95 282.667 208.009 282.667 208.078Z" fill="#E0E0E0"/>
<path d="M171.957 188.785C171.957 188.855 163.2 188.908 152.395 188.908C141.589 188.908 132.832 188.855 132.832 188.785C132.832 188.716 141.589 188.657 152.395 188.657C163.2 188.657 171.957 188.716 171.957 188.785Z" fill="#E0E0E0"/>
<path d="M171.957 193.677C171.957 193.746 163.2 193.805 152.395 193.805C141.589 193.805 132.832 193.746 132.832 193.677C132.832 193.607 141.589 193.554 152.395 193.554C163.2 193.554 171.957 193.607 171.957 193.677Z" fill="#E0E0E0"/>
<path d="M171.957 198.573C171.957 198.643 163.2 198.701 152.395 198.701C141.589 198.701 132.832 198.643 132.832 198.573C132.832 198.504 141.589 198.445 152.395 198.445C163.2 198.445 171.957 198.504 171.957 198.573Z" fill="#E0E0E0"/>
<path d="M171.957 203.454C171.957 203.524 163.2 203.577 152.395 203.577C141.589 203.577 132.832 203.524 132.832 203.454C132.832 203.385 141.589 203.326 152.395 203.326C163.2 203.326 171.957 203.401 171.957 203.454Z" fill="#E0E0E0"/>
<path d="M171.957 208.362C171.957 208.431 163.2 208.49 152.395 208.49C141.589 208.49 132.832 208.431 132.832 208.362C132.832 208.292 141.589 208.239 152.395 208.239C163.2 208.239 171.957 208.292 171.957 208.362Z" fill="#E0E0E0"/>
<path d="M212.016 186.409H183.536V214H212.016V186.409Z" fill="#F5F5F5"/>
<path d="M185.744 211.635L193.627 197.436L200.069 206.514L203.989 201.692L209.813 211.635H185.744Z" fill="#EBEBEB"/>
<path d="M202.816 194.675C202.817 195.082 202.697 195.48 202.472 195.819C202.247 196.158 201.926 196.423 201.551 196.579C201.176 196.735 200.762 196.776 200.363 196.697C199.965 196.618 199.598 196.422 199.311 196.134C199.023 195.846 198.828 195.479 198.749 195.08C198.669 194.681 198.711 194.267 198.867 193.891C199.023 193.515 199.287 193.194 199.625 192.969C199.964 192.743 200.361 192.623 200.768 192.625C201.311 192.625 201.832 192.841 202.216 193.225C202.6 193.61 202.816 194.131 202.816 194.675Z" fill="#EBEBEB"/>
<path d="M209.813 211.715C209.808 211.676 209.808 211.637 209.813 211.598C209.813 211.517 209.813 211.411 209.813 211.277C209.813 210.983 209.813 210.572 209.813 210.038C209.813 208.944 209.813 207.368 209.781 205.35C209.781 201.318 209.749 195.583 209.723 188.689L209.84 188.806H185.776L185.909 188.673V194.91C185.909 196.939 185.909 198.926 185.909 200.853C185.909 204.72 185.909 208.372 185.909 211.736L185.792 211.614L203.189 211.678L208.096 211.704H209.397H209.739H209.856H209.424H208.144L203.264 211.731L185.792 211.795H185.669V211.678C185.669 208.313 185.669 204.661 185.669 200.795C185.669 198.867 185.669 196.881 185.669 194.851V188.7L185.808 188.561H209.872H209.989V188.673C209.963 195.615 209.941 201.361 209.931 205.409C209.931 207.406 209.904 208.981 209.899 210.07C209.899 210.594 209.899 210.999 209.899 211.288C209.899 211.416 209.899 211.517 209.899 211.598C209.874 211.64 209.846 211.679 209.813 211.715Z" fill="#EBEBEB"/>
<path d="M171.099 134.023H132.469V171.446H171.099V134.023Z" fill="#F5F5F5"/>
<path d="M135.461 168.242L146.149 148.986L154.891 161.295L160.203 154.759L168.101 168.242H135.461Z" fill="#E0E0E0"/>
<path d="M158.613 145.248C158.613 145.798 158.45 146.336 158.145 146.794C157.84 147.251 157.406 147.608 156.898 147.818C156.39 148.029 155.832 148.084 155.293 147.977C154.754 147.869 154.258 147.604 153.87 147.215C153.481 146.826 153.217 146.33 153.109 145.791C153.002 145.251 153.057 144.692 153.268 144.183C153.478 143.675 153.834 143.24 154.291 142.935C154.748 142.629 155.285 142.466 155.835 142.466C156.572 142.466 157.278 142.759 157.799 143.281C158.321 143.802 158.613 144.51 158.613 145.248Z" fill="#E0E0E0"/>
<path d="M168.101 168.349C168.101 168.349 168.101 168.296 168.101 168.194C168.101 168.093 168.101 167.938 168.101 167.756C168.101 167.361 168.101 166.8 168.101 166.074C168.101 164.59 168.075 162.443 168.059 159.72C168.059 154.251 168.011 146.471 167.979 137.126L168.133 137.281L135.499 137.308C135.456 137.345 135.845 136.96 135.68 137.131V145.526C135.68 148.278 135.68 150.965 135.68 153.589C135.68 158.828 135.68 163.783 135.68 168.344L135.52 168.183L159.12 168.264L165.776 168.306H167.547H168H168.16H168.021H167.579H165.845L159.227 168.349L135.52 168.429H135.36V168.269C135.36 163.708 135.36 158.753 135.36 153.514C135.36 150.894 135.36 148.206 135.36 145.451V137.137C135.195 137.297 135.584 136.902 135.547 136.944L168.181 136.971H168.341V137.131C168.309 146.519 168.283 154.337 168.261 159.826C168.261 162.534 168.229 164.67 168.219 166.144C168.219 166.854 168.219 167.409 168.219 167.799C168.219 167.975 168.219 168.109 168.219 168.215C168.191 168.269 168.15 168.314 168.101 168.349Z" fill="#E0E0E0"/>
<path d="M176.277 148.244L178.187 152.115L182.453 152.735L179.365 155.752L180.091 160.008L176.277 158L172.459 160.008L173.189 155.752L170.101 152.735L174.368 152.115L176.277 148.244Z" fill="#289672"/>
<path d="M189.717 134.787L191.627 138.658L195.893 139.278L192.805 142.295L193.536 146.551L189.717 144.538L185.899 146.551L186.629 142.295L183.541 139.278L187.808 138.658L189.717 134.787Z" fill="#289672"/>
<path d="M207.68 129.506L209.589 133.377L213.856 133.997L210.768 137.008L211.499 141.264L207.68 139.256L203.861 141.264L204.592 137.008L201.504 133.997L205.771 133.377L207.68 129.506Z" fill="#289672"/>
<path d="M226.272 134.915L228.181 138.787L232.448 139.406L229.36 142.418L230.091 146.674L226.272 144.666L222.453 146.674L223.184 142.418L220.096 139.406L224.363 138.787L226.272 134.915Z" fill="#289672"/>
<path d="M239.083 147.742L240.992 151.613L245.259 152.233L242.171 155.25L242.901 159.5L239.083 157.493L235.269 159.5L235.995 155.25L232.907 152.233L237.173 151.613L239.083 147.742Z" fill="#289672"/>
<path d="M243.733 166.357L245.643 170.228L249.909 170.848L246.821 173.86L247.547 178.116L243.733 176.108L239.915 178.116L240.645 173.86L237.557 170.848L241.824 170.228L243.733 166.357Z" fill="#289672"/>
<path d="M239.211 184.844L241.12 188.715L245.387 189.335L242.299 192.352L243.029 196.608L239.211 194.595L235.392 196.608L236.123 192.352L233.035 189.335L237.301 188.715L239.211 184.844Z" fill="#289672"/>
<path d="M225.6 197.676L227.509 201.548L231.776 202.167L228.688 205.179L229.419 209.435L225.6 207.427L221.787 209.435L222.512 205.179L219.429 202.167L223.696 201.548L225.6 197.676Z" fill="#289672"/>
<path d="M207.317 202.963L209.227 206.834L213.493 207.454L210.405 210.471L211.136 214.721L207.317 212.713L203.504 214.721L204.229 210.471L201.141 207.454L205.408 206.834L207.317 202.963Z" fill="#289672"/>
<path d="M189.856 197.681L191.765 201.553L196.032 202.172L192.944 205.184L193.675 209.44L189.856 207.432L186.043 209.44L186.768 205.184L183.68 202.172L187.952 201.553L189.856 197.681Z" fill="#289672"/>
<path d="M176.043 184.508L177.947 188.379L182.213 189.004L179.131 192.016L179.856 196.272L176.043 194.264L172.224 196.272L172.955 192.016L169.867 189.004L174.133 188.379L176.043 184.508Z" fill="#289672"/>
<path d="M171.392 166.378L173.301 170.25L177.568 170.869L174.48 173.886L175.211 178.137L171.392 176.129L167.573 178.137L168.304 173.886L165.216 170.869L169.483 170.25L171.392 166.378Z" fill="#289672"/>
<path d="M220.848 179.659H217.115V159.314C217.115 157.011 216.201 154.802 214.575 153.174C212.948 151.546 210.743 150.631 208.443 150.631C206.143 150.631 203.937 151.546 202.311 153.174C200.684 154.802 199.771 157.011 199.771 159.314V179.659H196.037V159.314C196.037 157.683 196.358 156.067 196.982 154.56C197.605 153.053 198.519 151.684 199.671 150.531C200.823 149.377 202.19 148.463 203.695 147.838C205.2 147.214 206.814 146.893 208.443 146.893C210.072 146.893 211.685 147.214 213.19 147.838C214.695 148.463 216.063 149.377 217.215 150.531C218.367 151.684 219.28 153.053 219.904 154.56C220.527 156.067 220.848 157.683 220.848 159.314V179.659Z" fill="#263238"/>
<path d="M222.064 170.608H194.821C193.11 170.608 191.723 171.997 191.723 173.71V188.988C191.723 190.701 193.11 192.09 194.821 192.09H222.064C223.775 192.09 225.163 190.701 225.163 188.988V173.71C225.163 171.997 223.775 170.608 222.064 170.608Z" fill="#289672"/>
<path d="M211.237 178.548C211.237 179.102 211.073 179.643 210.766 180.103C210.459 180.563 210.023 180.922 209.512 181.133C209.002 181.345 208.44 181.401 207.897 181.293C207.355 181.185 206.857 180.918 206.467 180.527C206.076 180.135 205.81 179.637 205.702 179.094C205.594 178.551 205.649 177.989 205.861 177.477C206.072 176.966 206.43 176.529 206.89 176.222C207.35 175.914 207.89 175.75 208.443 175.75C209.184 175.75 209.895 176.045 210.419 176.57C210.943 177.094 211.237 177.806 211.237 178.548Z" fill="#263238"/>
<path d="M209.205 179.659H207.68V185.415H209.205V179.659Z" fill="#263238"/>
<path d="M193.504 190.051C193.429 190.051 193.365 186.467 193.365 182.041C193.365 177.614 193.429 174.031 193.504 174.031C193.579 174.031 193.643 177.614 193.643 182.041C193.643 186.467 193.6 190.051 193.504 190.051Z" fill="#FAFAFA"/>
<path d="M206.256 182.137C206.256 182.137 206.123 182.094 205.925 181.95C205.649 181.743 205.406 181.494 205.205 181.213C204.86 180.752 204.619 180.221 204.502 179.657C204.384 179.093 204.392 178.51 204.525 177.949C204.658 177.388 204.912 176.864 205.271 176.413C205.629 175.961 206.082 175.595 206.597 175.339C206.904 175.179 207.233 175.067 207.573 175.008C207.696 174.982 207.824 174.982 207.947 175.008C207.516 175.154 207.097 175.333 206.693 175.542C206.219 175.803 205.805 176.161 205.477 176.592C205.15 177.023 204.916 177.518 204.791 178.045C204.666 178.572 204.652 179.12 204.751 179.653C204.85 180.185 205.059 180.691 205.365 181.138C205.635 181.494 205.933 181.828 206.256 182.137Z" fill="#FAFAFA"/>
<path d="M90.8107 161.07C90.4344 162.293 90.4644 163.605 90.896 164.808C91.3334 166.002 91.8985 167.144 92.5813 168.215C93.4613 166.082 94.2181 163.9 94.848 161.679C94.9491 161.446 94.9909 161.191 94.9694 160.938C94.948 160.684 94.8642 160.44 94.7253 160.227C94.5785 160.105 94.4075 160.016 94.2236 159.965C94.0397 159.914 93.8471 159.903 93.6587 159.933C92.5222 160.002 91.4445 160.463 90.608 161.236" fill="#263238"/>
<path d="M43.7813 220.969L35.056 240.936H47.0667L55.6213 220.809L43.7813 220.969Z" fill="#263238"/>
<path d="M95.664 240.7C107.435 236.797 99.3653 221.209 99.3653 221.209L47.9147 226.053C45.939 226.053 44.0438 226.837 42.6443 228.233C41.2448 229.629 40.4551 231.524 40.448 233.502C40.448 235.485 41.2347 237.386 42.6349 238.788C44.0352 240.191 45.9344 240.978 47.9147 240.978L95.712 240.722" fill="#455A64"/>
<path d="M107.365 240.957C118.837 237.08 111.275 221.199 111.275 221.199L61.1413 225.93C56.2453 225.994 53.8507 228.36 53.8507 233.369C53.8507 237.481 55.376 240.952 61.1253 240.845L107.387 240.962" fill="#455A64"/>
<path d="M96.064 223.837H95.9253H95.504L93.904 223.901L88.0053 224.195L68.544 225.263C67.5893 225.311 66.6507 225.391 65.728 225.407C64.8053 225.423 63.8827 225.46 62.9867 225.514C62.0907 225.567 61.2107 225.636 60.32 225.727C59.464 225.79 58.6206 225.969 57.8133 226.261C57.0321 226.554 56.3215 227.009 55.728 227.596C55.1638 228.175 54.7308 228.869 54.4587 229.631C54.2021 230.341 54.0232 231.077 53.9253 231.826C53.8305 232.514 53.7841 233.208 53.7867 233.903C53.767 235.102 53.992 236.292 54.448 237.401C54.7947 238.225 55.3299 238.957 56.0107 239.537C56.4269 239.895 56.9087 240.169 57.4293 240.343C57.7813 240.455 57.792 240.418 57.4293 240.289C56.9251 240.095 56.4592 239.813 56.0533 239.456C55.4024 238.877 54.8932 238.155 54.5653 237.347C54.1317 236.256 53.9231 235.088 53.952 233.913C53.9551 233.229 54.0068 232.545 54.1067 231.868C54.2045 231.139 54.3834 230.422 54.64 229.732C54.8992 229.004 55.3163 228.342 55.8613 227.794C56.4339 227.231 57.1192 226.796 57.872 226.518C58.6639 226.243 59.489 226.076 60.3253 226.021C61.1787 225.936 62.0587 225.866 62.9547 225.818C63.8507 225.77 64.7573 225.727 65.6853 225.711C66.6133 225.695 67.552 225.62 68.5013 225.572L88 224.392L93.8987 224.013L95.4987 223.896L95.9147 223.858C95.9654 223.861 96.0162 223.854 96.064 223.837Z" fill="#263238"/>
<path d="M107.392 228.755C107.27 228.847 107.133 228.916 106.987 228.958C106.594 229.1 106.182 229.185 105.765 229.209C105.071 229.262 104.373 229.161 103.721 228.915C103.07 228.668 102.48 228.282 101.994 227.782C101.508 227.283 101.137 226.682 100.908 226.024C100.678 225.365 100.596 224.664 100.667 223.97C100.699 223.554 100.794 223.145 100.949 222.758C100.992 222.612 101.062 222.476 101.157 222.358C101.01 222.891 100.912 223.436 100.864 223.986C100.821 224.647 100.917 225.309 101.146 225.93C101.375 226.551 101.732 227.117 102.194 227.591C102.656 228.065 103.212 228.436 103.826 228.681C104.44 228.926 105.099 229.038 105.76 229.011C106.311 228.98 106.858 228.894 107.392 228.755Z" fill="#263238"/>
<path d="M81.8773 197.18L77.1147 213.488L59.4987 215.378V218.508L85.3867 218.865L88.9067 197.634L81.8773 197.18Z" fill="#FFBE9D"/>
<path d="M104.848 180.145C107.973 180.145 116.437 181.747 117.179 187.461C117.851 192.619 118.853 198.472 118.853 198.472L107.717 198.771L111.509 199.78L113.109 223.858L84.2773 222.854L85.808 210.476L87.088 198.114L80.7893 197.58C80.7893 197.58 82.9227 186.809 86.704 183.483C89.0754 181.564 91.9651 180.398 95.0027 180.134C98.2818 179.949 101.569 179.949 104.848 180.134" fill="#289672"/>
<path d="M88.1227 190.104C88.192 190.104 87.7493 194.461 87.1413 199.823C86.5333 205.184 85.984 209.526 85.9147 209.515C85.8453 209.504 86.288 205.157 86.9013 199.796C87.5147 194.435 88.0587 190.104 88.1227 190.104Z" fill="#263238"/>
<path d="M105.707 180.182C105.707 180.182 105.707 180.252 105.739 180.385C105.771 180.519 105.765 180.716 105.771 180.967C105.786 181.692 105.679 182.414 105.456 183.103C105.165 184.156 104.602 185.114 103.824 185.88C103.345 186.337 102.776 186.69 102.155 186.916C101.478 187.138 100.771 187.25 100.059 187.247C99.3446 187.265 98.6304 187.217 97.9253 187.103C97.2668 186.999 96.6409 186.745 96.096 186.361C95.2248 185.684 94.6128 184.728 94.3627 183.653C94.1734 182.958 94.0924 182.237 94.1227 181.517C94.1227 181.266 94.1493 181.069 94.1653 180.935C94.1689 180.866 94.1815 180.798 94.2027 180.732C94.2175 180.994 94.2175 181.256 94.2027 181.517C94.2068 182.229 94.3091 182.937 94.5067 183.621C94.7704 184.648 95.3715 185.557 96.2133 186.201C96.7346 186.561 97.331 186.799 97.9573 186.895C98.6415 187.004 99.3341 187.05 100.027 187.034C100.713 187.033 101.395 186.925 102.048 186.713C102.645 186.505 103.19 186.172 103.648 185.736C104.409 184.999 104.969 184.08 105.275 183.066C105.503 182.392 105.631 181.689 105.653 180.978C105.696 180.492 105.691 180.182 105.707 180.182Z" fill="#263238"/>
<g opacity="0.2">
<path d="M107.253 190.104C106.187 195.214 104.795 200.464 103.728 205.59C103.577 206.692 103.191 207.748 102.597 208.687C102.158 209.225 101.644 209.698 101.072 210.092C99.014 211.74 96.7245 213.075 94.2773 214.054C97.8494 213.748 101.388 213.132 104.853 212.212C105.143 212.195 105.426 212.122 105.687 211.995C105.948 211.868 106.181 211.691 106.373 211.474C106.565 211.256 106.712 211.003 106.805 210.728C106.899 210.453 106.937 210.162 106.917 209.873C107.685 203.32 107.451 196.715 107.253 190.115" fill="black"/>
</g>
<path d="M119.035 198.557C118.758 198.605 118.478 198.627 118.197 198.621L115.909 198.707C113.984 198.771 111.317 198.835 108.368 198.894H107.424H107.307V198.776C107.2 196.037 107.248 193.602 107.307 191.834C107.307 190.964 107.365 190.259 107.397 189.773C107.398 189.52 107.422 189.268 107.467 189.02C107.487 189.271 107.487 189.522 107.467 189.773C107.467 190.307 107.467 190.996 107.467 191.84C107.467 193.591 107.435 196.026 107.547 198.75L107.424 198.632H108.373C111.317 198.573 113.984 198.536 115.915 198.52H118.203C118.481 198.511 118.759 198.524 119.035 198.557Z" fill="#263238"/>
<path d="M37.4347 199.716L47.2747 219.1H78.304L77.0453 216.575L68.0587 216.302L60.7307 199.972C60.508 199.475 60.1462 199.053 59.6891 198.758C59.2319 198.462 58.6989 198.305 58.1547 198.306H38.3093C38.144 198.308 37.9817 198.351 37.8375 198.432C37.6934 198.514 37.572 198.63 37.4848 198.77C37.3975 198.911 37.3472 199.072 37.3384 199.237C37.3297 199.402 37.3628 199.567 37.4347 199.716Z" fill="#E0E0E0"/>
<path d="M51.7867 209.595C52.4435 209.595 52.976 209.062 52.976 208.404C52.976 207.747 52.4435 207.213 51.7867 207.213C51.1298 207.213 50.5973 207.747 50.5973 208.404C50.5973 209.062 51.1298 209.595 51.7867 209.595Z" fill="#263238"/>
<path d="M105.861 165.54L104.752 181.304C104.663 182.543 104.109 183.703 103.2 184.55C102.292 185.397 101.097 185.869 99.856 185.87C99.1845 185.869 98.5201 185.731 97.904 185.464C97.2878 185.197 96.7329 184.806 96.2735 184.316C95.8142 183.825 95.4602 183.246 95.2333 182.613C95.0065 181.98 94.9116 181.307 94.9547 180.636C95.056 179.136 95.1413 177.902 95.1413 177.902C95.1413 177.902 91.3387 177.309 91.2853 173.497C91.2853 171.697 91.4987 168.157 91.7653 164.798C91.9165 162.917 92.7682 161.163 94.1513 159.882C95.5344 158.601 97.3479 157.887 99.232 157.883C100.174 157.936 101.096 158.179 101.943 158.595C102.79 159.012 103.545 159.595 104.163 160.309C104.781 161.023 105.25 161.853 105.542 162.752C105.833 163.651 105.942 164.599 105.861 165.54Z" fill="#FFBE9D"/>
<path d="M95.12 178.1C96.8806 178.134 98.6113 177.641 100.091 176.685C100.091 176.685 98.912 179.429 95.1093 179.088L95.12 178.1Z" fill="#EB996E"/>
<path d="M92.96 167.286C92.96 167.428 93.0162 167.564 93.1162 167.664C93.2162 167.764 93.3519 167.82 93.4933 167.82C93.6322 167.828 93.7685 167.78 93.8731 167.689C93.9777 167.597 94.0424 167.468 94.0533 167.329C94.0533 167.187 93.9971 167.051 93.8971 166.951C93.7971 166.851 93.6615 166.795 93.52 166.795C93.3811 166.788 93.2448 166.835 93.1402 166.927C93.0356 167.018 92.9709 167.147 92.96 167.286Z" fill="#263238"/>
<path d="M92.6187 166.539C92.688 166.608 93.0987 166.304 93.6853 166.304C94.272 166.304 94.6987 166.597 94.752 166.528C94.8053 166.459 94.7147 166.368 94.528 166.229C94.2736 166.055 93.9723 165.961 93.664 165.962C93.3592 165.963 93.0625 166.06 92.816 166.24C92.6453 166.378 92.5867 166.507 92.6187 166.539Z" fill="#263238"/>
<path d="M98.4747 167.446C98.4747 167.588 98.5309 167.724 98.6309 167.824C98.7309 167.924 98.8666 167.98 99.008 167.98C99.1424 167.981 99.2719 167.93 99.3708 167.839C99.4697 167.748 99.5306 167.623 99.5413 167.489C99.5413 167.347 99.4851 167.212 99.3851 167.111C99.2851 167.011 99.1494 166.955 99.008 166.955C98.8736 166.955 98.7441 167.005 98.6452 167.096C98.5463 167.187 98.4854 167.312 98.4747 167.446Z" fill="#263238"/>
<path d="M98.3733 166.645C98.4427 166.715 98.8587 166.411 99.44 166.416C100.021 166.421 100.453 166.71 100.507 166.635C100.56 166.56 100.469 166.475 100.283 166.341C100.03 166.164 99.7275 166.07 99.4187 166.074C99.1142 166.072 98.8172 166.168 98.5707 166.346C98.4053 166.485 98.3413 166.608 98.3733 166.645Z" fill="#263238"/>
<path d="M96.2507 170.992C95.9423 170.897 95.6235 170.84 95.3013 170.821C95.152 170.821 95.008 170.779 94.9813 170.677C94.9696 170.521 95.0049 170.365 95.0827 170.229L95.5253 169.091C95.9337 168.126 96.2654 167.129 96.5173 166.112C96.0319 167.043 95.62 168.01 95.2853 169.006C95.1413 169.406 94.9973 169.785 94.864 170.149C94.7677 170.33 94.7412 170.541 94.7893 170.741C94.8115 170.794 94.845 170.841 94.8874 170.878C94.9299 170.916 94.9801 170.944 95.0347 170.96C95.1168 170.98 95.2009 170.991 95.2853 170.992C95.6056 171.037 95.9304 171.037 96.2507 170.992Z" fill="#263238"/>
<path d="M97.9733 171.414C97.8773 171.414 97.8773 172.044 97.3333 172.482C96.7893 172.92 96.112 172.867 96.1067 172.952C96.1013 173.037 96.2613 173.075 96.544 173.085C96.917 173.092 97.28 172.965 97.568 172.728C97.8444 172.501 98.0222 172.175 98.064 171.82C98.0907 171.553 98.016 171.414 97.9733 171.414Z" fill="#263238"/>
<path d="M98.224 164.349C98.2827 164.509 98.8693 164.435 99.552 164.515C100.235 164.595 100.795 164.787 100.885 164.643C100.976 164.499 100.832 164.424 100.608 164.269C100.31 164.08 99.9718 163.961 99.6206 163.922C99.2694 163.883 98.9139 163.925 98.5813 164.045C98.3253 164.146 98.1973 164.274 98.224 164.349Z" fill="#263238"/>
<path d="M92.8373 164.841C92.9387 164.974 93.3707 164.841 93.8293 164.841C94.288 164.841 94.72 164.931 94.816 164.787C94.912 164.643 94.816 164.59 94.6133 164.461C94.3723 164.309 94.0911 164.232 93.806 164.24C93.5208 164.249 93.2448 164.343 93.0133 164.509C92.848 164.638 92.8 164.776 92.8373 164.841Z" fill="#263238"/>
<path d="M104.576 168.653C104.64 168.621 107.195 167.879 107.109 170.485C107.024 173.091 104.443 172.471 104.443 172.397C104.443 172.322 104.576 168.653 104.576 168.653Z" fill="#FFBE9D"/>
<path d="M105.253 171.414C105.253 171.414 105.301 171.446 105.376 171.484C105.429 171.506 105.486 171.517 105.544 171.517C105.602 171.517 105.659 171.506 105.712 171.484C105.88 171.381 106.018 171.235 106.112 171.062C106.205 170.888 106.252 170.693 106.245 170.496C106.256 170.272 106.22 170.048 106.139 169.839C106.116 169.757 106.074 169.682 106.016 169.62C105.959 169.558 105.888 169.51 105.808 169.481C105.757 169.465 105.701 169.467 105.652 169.488C105.602 169.508 105.561 169.546 105.536 169.593C105.499 169.668 105.536 169.721 105.499 169.721C105.461 169.721 105.445 169.679 105.499 169.572C105.513 169.507 105.551 169.45 105.605 169.412C105.641 169.386 105.682 169.367 105.725 169.357C105.768 169.347 105.812 169.345 105.856 169.353C105.963 169.377 106.061 169.427 106.143 169.5C106.224 169.573 106.285 169.666 106.32 169.769C106.422 170.001 106.468 170.254 106.453 170.506C106.457 170.739 106.392 170.967 106.268 171.163C106.144 171.359 105.966 171.515 105.755 171.612C105.683 171.627 105.609 171.627 105.538 171.612C105.466 171.598 105.398 171.568 105.339 171.526C105.259 171.5 105.248 171.441 105.253 171.414Z" fill="#EB996E"/>
<path d="M81.6053 219.132H43.68V220.985H81.6053V219.132Z" fill="#263238"/>
<path d="M69.9253 220.062L81.4613 240.957H91.792L81.6053 220.985L69.9253 220.062Z" fill="#263238"/>
<path d="M81.6 220.985C81.6 221.06 73.0987 221.167 62.6133 221.22C52.128 221.274 43.6267 221.252 43.6267 221.177C43.6267 221.103 52.128 220.996 62.6133 220.943C73.0987 220.889 81.6 220.91 81.6 220.985Z" fill="#455A64"/>
<path d="M90.7147 163.1C91.0609 163.227 91.4302 163.279 91.798 163.252C92.1658 163.226 92.5238 163.121 92.848 162.945C92.7902 163.01 92.7467 163.086 92.7205 163.169C92.6943 163.252 92.686 163.339 92.6961 163.425C92.7062 163.512 92.7344 163.595 92.779 163.669C92.8236 163.744 92.8834 163.808 92.9547 163.858C93.2543 164.043 93.608 164.12 93.9573 164.077C95.8525 164.003 97.6543 163.233 99.0187 161.914C99.0488 162.244 99.1752 162.557 99.3819 162.815C99.5886 163.074 99.8666 163.265 100.181 163.367C100.816 163.556 101.493 163.556 102.128 163.367C101.892 164.332 101.853 165.334 102.011 166.314C102.096 166.802 102.323 167.255 102.662 167.615C103.001 167.976 103.439 168.229 103.92 168.344C104.042 168.848 104.083 169.369 104.043 169.887C104.08 170.421 104.379 170.998 104.901 171.014C105.424 171.03 105.696 170.554 105.76 170.1C105.824 169.647 105.552 168.723 105.877 167.991C106.203 167.26 106.091 167.34 106.437 166.544C106.784 165.748 106.971 164.648 107.259 163.821C107.571 162.997 107.596 162.091 107.328 161.252C107.181 160.841 106.911 160.485 106.555 160.232C106.2 159.979 105.775 159.841 105.339 159.837C105.498 159.424 105.523 158.972 105.41 158.545C105.298 158.117 105.053 157.736 104.711 157.456C104.369 157.176 103.948 157.011 103.507 156.985C103.066 156.959 102.628 157.073 102.256 157.311C102.256 157.311 99.2907 155.293 96.0107 156.409C92.7307 157.525 92.24 160.504 91.5253 160.595C90.8107 160.686 88.6453 159.527 89.0187 160.253C89.392 160.98 90.0107 161.711 90.32 161.743C90.6293 161.775 87.84 160.595 88.8 161.653C89.3342 162.259 89.9855 162.752 90.7147 163.1Z" fill="#263238"/>
<path d="M116.859 188.502C116.554 188.135 116.208 187.804 115.829 187.514C114.756 186.774 113.473 186.4 112.171 186.446C110.523 186.446 108.635 187.156 106.779 188.294C104.923 189.431 103.019 190.964 100.661 191.994C98.434 193.002 95.901 193.096 93.6053 192.256C92.6175 191.886 91.6956 191.36 90.8747 190.697C90.1013 190.099 89.4187 189.495 88.7413 189.009C87.7315 188.184 86.4982 187.68 85.2 187.562C84.7221 187.551 84.2453 187.614 83.7867 187.749C83.7867 187.749 83.7867 187.749 83.872 187.706C83.9569 187.667 84.0442 187.633 84.1333 187.605C84.4793 187.501 84.8389 187.451 85.2 187.455C86.5339 187.531 87.8118 188.018 88.8587 188.849C90.224 189.794 91.616 191.295 93.6587 192.016C95.897 192.809 98.3541 192.712 100.523 191.743C102.827 190.739 104.715 189.186 106.619 188.075C108.523 186.964 110.443 186.217 112.139 186.249C113.481 186.219 114.794 186.638 115.872 187.439C116.159 187.657 116.415 187.912 116.635 188.198C116.722 188.289 116.797 188.392 116.859 188.502Z" fill="#FAFAFA"/>
<path d="M107.371 202.557C107.371 202.557 107.109 202.386 106.635 202.114C105.962 201.726 105.233 201.445 104.475 201.281C103.355 201.032 102.193 201.052 101.083 201.34C99.824 201.655 98.5387 202.317 97.1093 202.845C96.4097 203.104 95.6834 203.283 94.944 203.379C94.254 203.466 93.5567 203.479 92.864 203.417C91.6927 203.313 90.5494 203 89.488 202.493C88.7711 202.16 88.105 201.726 87.5093 201.206C87.344 201.07 87.1889 200.922 87.0453 200.763C86.944 200.661 86.8907 200.603 86.9013 200.592C86.912 200.581 87.1413 200.784 87.5787 201.126C88.191 201.604 88.859 202.005 89.568 202.322C90.6184 202.789 91.7398 203.076 92.8853 203.171C94.2881 203.28 95.6977 203.078 97.0133 202.578C98.3203 202.009 99.6574 201.512 101.019 201.089C101.978 200.849 102.975 200.807 103.951 200.966C104.926 201.125 105.86 201.481 106.693 202.012C106.878 202.131 107.056 202.259 107.227 202.397C107.323 202.498 107.376 202.552 107.371 202.557Z" fill="#FAFAFA"/>
<path d="M111.568 211.534C111.232 211.401 110.889 211.29 110.539 211.202C109.567 211.045 108.571 211.135 107.643 211.464C106.998 211.676 106.374 211.944 105.776 212.265C105.125 212.607 104.448 213.013 103.717 213.408C102.952 213.842 102.142 214.191 101.301 214.449C100.381 214.719 99.4087 214.76 98.4693 214.567C96.5333 214.145 95.0027 213.023 93.5947 212.185C92.3948 211.349 91.0188 210.801 89.5733 210.583C88.5955 210.479 87.6103 210.693 86.7627 211.192C86.4599 211.389 86.1807 211.62 85.9307 211.881C85.9737 211.796 86.0275 211.717 86.0907 211.646C86.2687 211.439 86.4752 211.26 86.704 211.112C87.5618 210.554 88.5818 210.302 89.6 210.396C90.8907 210.46 92.3147 211.096 93.7387 211.955C95.1627 212.815 96.6827 213.883 98.5387 214.284C99.4353 214.468 100.363 214.432 101.243 214.177C102.065 213.926 102.859 213.59 103.611 213.173C104.341 212.788 105.024 212.388 105.685 212.046C106.301 211.73 106.943 211.469 107.605 211.267C108.561 210.94 109.588 210.879 110.576 211.09C110.842 211.154 111.1 211.249 111.344 211.373C111.493 211.464 111.573 211.523 111.568 211.534Z" fill="#FAFAFA"/>
<path d="M112.928 221.738C112.846 221.79 112.756 221.827 112.661 221.85C112.392 221.927 112.115 221.974 111.835 221.989C110.801 221.99 109.779 221.775 108.832 221.359C108.181 221.104 107.514 220.888 106.837 220.713C106.057 220.549 105.258 220.502 104.464 220.574C102.779 220.718 101.003 221.359 99.1307 221.904C98.2036 222.18 97.2542 222.375 96.2933 222.486C95.3933 222.57 94.4867 222.558 93.5893 222.448C92.0797 222.238 90.6019 221.842 89.1893 221.268C88.2387 220.896 87.3078 220.475 86.4 220.008C86.0747 219.848 85.8293 219.709 85.664 219.618C85.5745 219.577 85.4903 219.525 85.4133 219.463C85.5091 219.484 85.6009 219.52 85.6853 219.57L86.4427 219.912C87.104 220.211 88.0427 220.644 89.2587 221.092C90.6623 221.632 92.125 222.003 93.616 222.197C94.5022 222.295 95.3965 222.295 96.2827 222.197C97.2275 222.087 98.1609 221.894 99.072 221.621C100.955 221.087 102.752 220.441 104.485 220.307C105.305 220.236 106.131 220.292 106.933 220.473C107.618 220.658 108.29 220.888 108.944 221.161C109.866 221.582 110.86 221.821 111.872 221.866C112.227 221.853 112.58 221.811 112.928 221.738Z" fill="#FAFAFA"/>
<path d="M118.4 195.861C118.31 195.991 118.2 196.106 118.075 196.202C117.745 196.481 117.374 196.708 116.976 196.875C116.38 197.124 115.739 197.249 115.093 197.244C114.301 197.214 113.524 197.008 112.821 196.64C112.075 196.283 111.403 195.893 110.747 195.658C110.172 195.449 109.556 195.381 108.949 195.46C108.541 195.513 108.155 195.673 107.829 195.925C107.605 196.117 107.509 196.256 107.488 196.24C107.543 196.088 107.634 195.952 107.755 195.845C108.075 195.541 108.478 195.341 108.912 195.268C109.554 195.155 110.215 195.206 110.832 195.417C111.562 195.698 112.275 196.022 112.965 196.389C113.626 196.738 114.353 196.942 115.099 196.987C115.713 197.006 116.325 196.906 116.901 196.694C117.427 196.467 117.929 196.188 118.4 195.861Z" fill="#FAFAFA"/>
<path d="M87.424 195.594C87.424 195.594 87.392 195.684 87.2533 195.78C87.0517 195.905 86.8178 195.966 86.5813 195.957C86.2343 195.944 85.8957 195.847 85.5947 195.674C85.2587 195.487 84.9387 195.225 84.592 195.001C84.0041 194.614 83.2889 194.47 82.5973 194.6C82.064 194.696 81.7707 194.894 81.744 194.851C81.9609 194.622 82.2446 194.467 82.5547 194.408C82.9238 194.308 83.3102 194.289 83.6875 194.351C84.0648 194.414 84.4242 194.557 84.7413 194.771C85.1093 195.006 85.4187 195.268 85.7227 195.449C85.9859 195.616 86.2828 195.722 86.592 195.759C86.8792 195.78 87.1666 195.723 87.424 195.594Z" fill="#FAFAFA"/>
<path d="M72.9387 212.837L80.6987 211.902L86.1653 215.491L107.072 210.476L107.685 198.792L117.072 198.557L116.853 212.271C116.831 213.32 116.602 214.354 116.179 215.314C115.756 216.274 115.148 217.141 114.389 217.865C113.63 218.588 112.735 219.154 111.757 219.531C110.779 219.907 109.736 220.085 108.688 220.056L78.064 219.207L76.7627 216.596L70.192 216.404L72.9387 212.837Z" fill="#FFBE9D"/>
<path d="M106.811 210.476C106.682 210.523 106.55 210.563 106.416 210.594L105.28 210.893L101.083 211.961L87.216 215.325L85.9307 215.629H85.8773L85.8347 215.597L80.368 211.998H80.4427L72.6827 212.895H72.7307L70.6827 215.501C70.448 215.784 70.2667 216.035 70.1493 216.185C70.0888 216.267 70.021 216.344 69.9467 216.414C69.9962 216.324 70.0533 216.238 70.1173 216.158L70.6507 215.448L72.6453 212.778H72.6773L80.432 211.806H80.4747H80.512L85.984 215.384H85.888L87.1787 215.074L101.045 211.779L105.264 210.807L106.411 210.556C106.541 210.517 106.675 210.49 106.811 210.476Z" fill="#EB996E"/>
<path d="M77.1787 215.063C76.1772 215.183 75.1679 215.224 74.16 215.186H73.6267H73.7067C73.0981 215.743 72.4433 216.247 71.7493 216.692C72.2983 216.078 72.8997 215.514 73.5467 215.004L73.584 214.972H74.176C75.1777 214.921 76.1819 214.951 77.1787 215.063Z" fill="#EB996E"/>
<path d="M110.661 212.815C110.291 212.168 109.767 211.622 109.137 211.224C108.507 210.826 107.788 210.59 107.045 210.535C107.261 210.459 107.493 210.44 107.717 210.481C108.269 210.538 108.8 210.721 109.269 211.015C109.738 211.31 110.131 211.71 110.416 212.185C110.553 212.369 110.637 212.587 110.661 212.815Z" fill="#EB996E"/>
</svg>
