<svg width="20" height="20" viewBox="0 0 20 20" fill="none" xmlns="http://www.w3.org/2000/svg">
<path d="M6.5983 10.8333C7.16342 10.8333 7.54632 10.9073 7.94767 11.1219C8.34487 11.3344 8.66557 11.6551 8.878 12.0523C9.06879 12.409 9.14842 12.7512 9.16376 13.2197L9.16659 13.4016V15.5984C9.16659 16.1635 9.09264 16.5464 8.878 16.9478C8.66557 17.345 8.34487 17.6657 7.94767 17.8781C7.59091 18.0689 7.24874 18.1485 6.7802 18.1638L6.5983 18.1667H4.40154C3.83642 18.1667 3.45352 18.0927 3.05217 17.8781C2.65496 17.6657 2.33426 17.345 2.12184 16.9478C1.93104 16.591 1.85142 16.2488 1.83608 15.7803L1.83325 15.5984V13.4016C1.83325 12.8365 1.90719 12.4536 2.12184 12.0523C2.33426 11.6551 2.65496 11.3344 3.05217 11.1219C3.40892 10.9311 3.7511 10.8515 4.21964 10.8362L4.40154 10.8333H6.5983ZM15.5983 10.8333C16.1634 10.8333 16.5463 10.9073 16.9477 11.1219C17.3449 11.3344 17.6656 11.6551 17.878 12.0523C18.0688 12.409 18.1484 12.7512 18.1638 13.2197L18.1666 13.4016V15.5984C18.1666 16.1635 18.0926 16.5464 17.878 16.9478C17.6656 17.345 17.3449 17.6657 16.9477 17.8781C16.5909 18.0689 16.2487 18.1485 15.7802 18.1638L15.5983 18.1667H13.4015C12.8364 18.1667 12.4535 18.0927 12.0522 17.8781C11.655 17.6657 11.3343 17.345 11.1218 16.9478C10.931 16.591 10.8514 16.2488 10.8361 15.7803L10.8333 15.5984V13.4016C10.8333 12.8365 10.9072 12.4536 11.1218 12.0523C11.3343 11.6551 11.655 11.3344 12.0522 11.1219C12.4089 10.9311 12.7511 10.8515 13.2196 10.8362L13.4015 10.8333H15.5983ZM6.5983 12.3333H4.40154C4.03007 12.3333 3.89537 12.372 3.75957 12.4446C3.62376 12.5173 3.51719 12.6239 3.44456 12.7597C3.38101 12.8785 3.34345 12.9965 3.33506 13.273L3.33325 13.4016V15.5984C3.33325 15.9699 3.37193 16.1046 3.44456 16.2404C3.51719 16.3762 3.62376 16.4827 3.75957 16.5554C3.87839 16.6189 3.99638 16.6565 4.27287 16.6649L4.40154 16.6667H6.5983C6.96977 16.6667 7.10447 16.628 7.24027 16.5554C7.37607 16.4827 7.48265 16.3762 7.55528 16.2404C7.61883 16.1215 7.65639 16.0036 7.66478 15.7271L7.66658 15.5984V13.4016C7.66658 13.0302 7.62791 12.8955 7.55528 12.7597C7.48265 12.6239 7.37607 12.5173 7.24027 12.4446C7.10447 12.372 6.96977 12.3333 6.5983 12.3333ZM15.5983 12.3333H13.4015C13.0301 12.3333 12.8954 12.372 12.7596 12.4446C12.6238 12.5173 12.5172 12.6239 12.4446 12.7597C12.381 12.8785 12.3435 12.9965 12.3351 13.273L12.3333 13.4016V15.5984C12.3333 15.9699 12.3719 16.1046 12.4446 16.2404C12.5172 16.3762 12.6238 16.4827 12.7596 16.5554C12.8784 16.6189 12.9964 16.6565 13.2729 16.6649L13.4015 16.6667H15.5983C15.9698 16.6667 16.1045 16.628 16.2403 16.5554C16.3761 16.4827 16.4827 16.3762 16.5553 16.2404C16.6188 16.1215 16.6564 16.0036 16.6648 15.7271L16.6666 15.5984V13.4016C16.6666 13.0302 16.6279 12.8955 16.5553 12.7597C16.4827 12.6239 16.3761 12.5173 16.2403 12.4446C16.1045 12.372 15.9698 12.3333 15.5983 12.3333ZM15.1578 1.38052C15.5389 1.49604 15.8339 1.67775 16.1693 1.98907L16.316 2.13061L17.8693 3.68396C18.2689 4.08356 18.4874 4.40659 18.6194 4.84217C18.7501 5.27324 18.7501 5.72678 18.6194 6.15785C18.5039 6.53898 18.3222 6.83394 18.0109 7.16943L17.8693 7.31606L16.316 8.86941C15.9164 9.26901 15.5933 9.48747 15.1578 9.6195C14.7267 9.75015 14.2732 9.75015 13.8421 9.6195C13.4609 9.50398 13.166 9.32227 12.8305 9.01095L12.6839 8.86941L11.1305 7.31606C10.7309 6.91646 10.5125 6.59343 10.3804 6.15785C10.2498 5.72678 10.2498 5.27324 10.3804 4.84217C10.496 4.46104 10.6777 4.16608 10.989 3.83059L11.1305 3.68396L12.6839 2.13061C13.0835 1.73101 13.4065 1.51255 13.8421 1.38052C14.2732 1.24987 14.7267 1.24987 15.1578 1.38052ZM6.5983 1.83334C7.16342 1.83334 7.54632 1.90728 7.94767 2.12193C8.34487 2.33436 8.66557 2.65505 8.878 3.05226C9.09264 3.45361 9.16659 3.83651 9.16659 4.40163V6.59839C9.16659 7.16351 9.09264 7.54641 8.878 7.94776C8.66557 8.34497 8.34487 8.66566 7.94767 8.87809C7.54632 9.09274 7.16342 9.16668 6.5983 9.16668H4.40154C3.83642 9.16668 3.45352 9.09274 3.05217 8.87809C2.65496 8.66566 2.33426 8.34497 2.12184 7.94776C1.90719 7.54641 1.83325 7.16351 1.83325 6.59839V4.40163C1.83325 3.83651 1.90719 3.45361 2.12184 3.05226C2.33426 2.65505 2.65496 2.33436 3.05217 2.12193C3.45352 1.90728 3.83642 1.83334 4.40154 1.83334H6.5983ZM14.2772 2.81604C14.1482 2.85512 14.0382 2.91199 13.8368 3.10157L13.7445 3.19127L12.1912 4.74462C11.9285 5.00728 11.8606 5.12988 11.8159 5.27726C11.7713 5.42465 11.7713 5.57537 11.8159 5.72275C11.855 5.85171 11.9119 5.9617 12.1015 6.16315L12.1912 6.2554L13.7445 7.80875C14.0072 8.07141 14.1298 8.13931 14.2772 8.18398C14.4246 8.22866 14.5753 8.22866 14.7227 8.18398C14.8516 8.1449 14.9616 8.08803 15.1631 7.89845L15.2553 7.80875L16.8087 6.2554C17.0713 5.99274 17.1392 5.87014 17.1839 5.72275C17.2286 5.57537 17.2286 5.42465 17.1839 5.27726C17.1448 5.1483 17.0879 5.03832 16.8984 4.83687L16.8087 4.74462L15.2553 3.19127C14.9926 2.92861 14.87 2.86071 14.7227 2.81604C14.5753 2.77136 14.4246 2.77136 14.2772 2.81604ZM6.5983 3.33334H4.40154C4.03007 3.33334 3.89537 3.37202 3.75957 3.44465C3.62376 3.51728 3.51719 3.62386 3.44456 3.75966C3.37193 3.89546 3.33325 4.03016 3.33325 4.40163V6.59839C3.33325 6.96986 3.37193 7.10456 3.44456 7.24036C3.51719 7.37617 3.62376 7.48274 3.75957 7.55537C3.89537 7.628 4.03007 7.66668 4.40154 7.66668H6.5983C6.96977 7.66668 7.10447 7.628 7.24027 7.55537C7.37607 7.48274 7.48265 7.37617 7.55528 7.24036C7.62791 7.10456 7.66658 6.96986 7.66658 6.59839V4.40163C7.66658 4.03016 7.62791 3.89546 7.55528 3.75966C7.48265 3.62386 7.37607 3.51728 7.24027 3.44465C7.10447 3.37202 6.96977 3.33334 6.5983 3.33334Z" fill="#8491A5"/>
</svg>
