<svg width="24" height="24" viewBox="0 0 24 24" fill="none" xmlns="http://www.w3.org/2000/svg">
<rect x="4" y="4" width="16" height="16" rx="3.75" stroke="white" stroke-width="1.8"/>
<path d="M16 2.3999V5.5999" stroke="white" stroke-width="1.8" stroke-linecap="round" stroke-linejoin="round"/>
<path d="M8 2.3999V5.5999" stroke="white" stroke-width="1.8" stroke-linecap="round" stroke-linejoin="round"/>
<path d="M4 10H20" stroke="white" stroke-width="1.8"/>
<circle cx="15.5" cy="15.5" r="1" stroke="white"/>
<path fill-rule="evenodd" clip-rule="evenodd" d="M16.0001 1.5C16.4972 1.5 16.9001 1.90294 16.9001 2.4V3.19126C17.4325 3.25787 17.9121 3.37803 18.3612 3.60686C19.2361 4.05267 19.9475 4.76403 20.3933 5.63898C20.6731 6.18809 20.7904 6.78278 20.846 7.46376C20.9001 8.12585 20.9001 8.94407 20.9001 9.96134V14.0387C20.9001 15.056 20.9001 15.8742 20.846 16.5363C20.7904 17.2173 20.6731 17.812 20.3933 18.3611C19.9475 19.236 19.2361 19.9474 18.3612 20.3932C17.812 20.673 17.2174 20.7903 16.5364 20.846C15.8743 20.9001 15.0561 20.9 14.0388 20.9H9.9614C8.94413 20.9 8.12591 20.9001 7.46382 20.846C6.78284 20.7903 6.18815 20.673 5.63904 20.3932C4.76409 19.9474 4.05273 19.236 3.60692 18.3611C3.32713 17.812 3.20982 17.2173 3.15418 16.5363C3.10008 15.8742 3.10009 15.056 3.1001 14.0387V9.96134C3.10009 8.94407 3.10008 8.12585 3.15418 7.46376C3.20982 6.78278 3.32713 6.18809 3.60692 5.63898C4.05273 4.76403 4.76409 4.05267 5.63904 3.60686C6.08814 3.37803 6.56774 3.25788 7.1001 3.19126V2.4C7.1001 1.90294 7.50304 1.5 8.0001 1.5C8.49715 1.5 8.9001 1.90294 8.9001 2.4V3.10287C9.22743 3.10003 9.58042 3.10003 9.96131 3.10004H9.9614H14.0388H14.0389C14.4198 3.10003 14.7728 3.10003 15.1001 3.10287V2.4C15.1001 1.90294 15.503 1.5 16.0001 1.5ZM7.1001 5.01069V5.6C7.1001 6.09706 7.50304 6.5 8.0001 6.5C8.49715 6.5 8.9001 6.09706 8.9001 5.6V4.903C9.22493 4.90014 9.5886 4.90004 10.0001 4.90004H14.0001C14.4116 4.90004 14.7753 4.90014 15.1001 4.903V5.6C15.1001 6.09706 15.503 6.5 16.0001 6.5C16.4972 6.5 16.9001 6.09706 16.9001 5.6V5.01069C17.1784 5.0596 17.3781 5.12613 17.544 5.21067C18.0802 5.48391 18.5162 5.9199 18.7895 6.45616C18.9184 6.70923 19.0055 7.04067 19.052 7.61033C19.0848 8.01124 19.0952 8.49065 19.0985 9.10004H4.90166C4.90499 8.49065 4.91544 8.01124 4.9482 7.61033C4.99474 7.04067 5.08179 6.70923 5.21073 6.45616C5.48397 5.9199 5.91996 5.48391 6.45622 5.21067C6.62214 5.12613 6.82175 5.0596 7.1001 5.01069ZM4.9001 10.9H19.1001V14C19.1001 15.065 19.0994 15.8096 19.052 16.3897C19.0055 16.9594 18.9184 17.2908 18.7895 17.5439C18.5162 18.0802 18.0802 18.5162 17.544 18.7894C17.2909 18.9183 16.9595 19.0054 16.3898 19.0519C15.8096 19.0993 15.065 19.1 14.0001 19.1H10.0001C8.93515 19.1 8.19056 19.0993 7.61039 19.0519C7.04073 19.0054 6.70929 18.9183 6.45622 18.7894C5.91996 18.5162 5.48397 18.0802 5.21073 17.5439C5.08179 17.2908 4.99474 16.9594 4.9482 16.3897C4.9008 15.8096 4.9001 15.065 4.9001 14V10.9ZM15.5001 17C16.3285 17 17.0001 16.3284 17.0001 15.5C17.0001 14.6716 16.3285 14 15.5001 14C14.6717 14 14.0001 14.6716 14.0001 15.5C14.0001 16.3284 14.6717 17 15.5001 17Z" fill="white"/>
</svg>
