<svg width="20" height="20" viewBox="0 0 20 20" fill="none" xmlns="http://www.w3.org/2000/svg">
<path fill-rule="evenodd" clip-rule="evenodd" d="M4.16637 4.16637C5.6585 2.67423 7.72203 1.75 10 1.75C12.278 1.75 14.3415 2.67423 15.8336 4.16637C17.3258 5.6585 18.25 7.72203 18.25 10C18.25 12.278 17.3258 14.3415 15.8336 15.8336C14.3415 17.3258 12.278 18.25 10 18.25C7.72203 18.25 5.6585 17.3258 4.16637 15.8336C2.67423 14.3415 1.75 12.278 1.75 10C1.75 7.72203 2.67423 5.6585 4.16637 4.16637ZM10 3.25C8.13583 3.25 6.44936 4.0047 5.22703 5.22703C4.0047 6.44936 3.25 8.13583 3.25 10C3.25 11.8642 4.0047 13.5506 5.22703 14.773C6.44936 15.9953 8.13583 16.75 10 16.75C11.8642 16.75 13.5506 15.9953 14.773 14.773C15.9953 13.5506 16.75 11.8642 16.75 10C16.75 8.13583 15.9953 6.44936 14.773 5.22703C13.5506 4.0047 11.8642 3.25 10 3.25Z" fill="#fff"/>
<path fill-rule="evenodd" clip-rule="evenodd" d="M8.12303 6.47351C8.64458 6.08754 9.30461 5.91667 9.93974 5.91667C10.9834 5.91667 12.1147 6.36877 12.5125 7.41628C12.6596 7.80351 12.4649 8.23664 12.0777 8.3837C11.6904 8.53077 11.2573 8.33608 11.1102 7.94886C11.024 7.72182 10.6613 7.41667 9.93974 7.41667C9.55407 7.41667 9.22634 7.52309 9.01532 7.67925C8.82515 7.81998 8.71421 8.00675 8.71421 8.2806C8.71421 8.44425 8.74974 8.53741 8.78517 8.59674C8.82301 8.66013 8.88792 8.72975 9.00714 8.80473C9.27667 8.97426 9.66754 9.08418 10.2159 9.22953C10.2311 9.23355 10.2464 9.23761 10.2619 9.2417C10.7395 9.3681 11.355 9.53099 11.8434 9.8429C12.1109 10.0137 12.3667 10.2437 12.5528 10.5601C12.741 10.88 12.8333 11.2466 12.8333 11.6508C12.8333 12.5112 12.3994 13.1521 11.8063 13.5482C11.2394 13.9268 10.5353 14.0833 9.88876 14.0833C8.83552 14.0833 7.86213 13.7094 7.29837 12.8883C7.06392 12.5468 7.15069 12.0799 7.49216 11.8455C7.83364 11.611 8.30052 11.6978 8.53497 12.0393C8.73719 12.3338 9.16523 12.5833 9.88876 12.5833C10.319 12.5833 10.7122 12.4752 10.9733 12.3008C11.2083 12.1438 11.3333 11.9434 11.3333 11.6508C11.3333 11.4816 11.2969 11.3836 11.2599 11.3207C11.2208 11.2541 11.1548 11.1829 11.036 11.1071C10.7679 10.9359 10.3778 10.8242 9.83162 10.6795C9.8121 10.6743 9.79232 10.6691 9.7723 10.6638C9.29863 10.5385 8.69093 10.3779 8.20851 10.0745C7.94156 9.90654 7.68467 9.6796 7.49724 9.36567C7.3074 9.0477 7.21421 8.68281 7.21421 8.2806C7.21421 7.49509 7.58064 6.8749 8.12303 6.47351Z" fill="#fff"/>
<path fill-rule="evenodd" clip-rule="evenodd" d="M10 4.66667C10.4142 4.66667 10.75 5.00245 10.75 5.41667V6.25C10.75 6.66421 10.4142 7 10 7C9.58579 7 9.25 6.66421 9.25 6.25V5.41667C9.25 5.00245 9.58579 4.66667 10 4.66667Z" fill="#fff"/>
<path fill-rule="evenodd" clip-rule="evenodd" d="M10 13C10.4142 13 10.75 13.3358 10.75 13.75V14.5833C10.75 14.9975 10.4142 15.3333 10 15.3333C9.58579 15.3333 9.25 14.9975 9.25 14.5833V13.75C9.25 13.3358 9.58579 13 10 13Z" fill="#fff"/>
</svg>
