<svg width="20" height="20" viewBox="0 0 20 20" fill="none" xmlns="http://www.w3.org/2000/svg">
<path d="M12.7868 3.09132C13.1853 2.61694 13.8315 2.50851 14.3125 2.80316C14.7908 3.09623 15.2755 3.41966 15.6194 3.70859C15.9554 3.99086 16.3389 4.3933 16.6926 4.79585C17.0595 5.21358 17.0632 5.86165 16.6666 6.33368L8.48905 16.0663C8.14776 16.4724 7.68552 16.742 7.18041 16.8237C6.57215 16.9221 5.8095 17.0317 5.16542 17.0831C4.84113 17.1089 4.56735 17.1183 4.36656 17.1083C4.34778 17.1074 4.3303 17.1063 4.31407 17.1051C4.31011 17.0893 4.30604 17.0723 4.30189 17.054C4.25747 16.8579 4.21948 16.5866 4.18907 16.2627C4.12868 15.6194 4.10523 14.8493 4.09732 14.2332C4.09075 13.7215 4.27657 13.2198 4.61786 12.8136L12.7868 3.09132ZM4.15176 17.0821C4.15191 17.082 4.15484 17.0828 4.16007 17.0847C4.15422 17.0832 4.15161 17.0822 4.15176 17.0821ZM4.36075 17.2533C4.3635 17.2581 4.36475 17.2609 4.36469 17.261C4.36463 17.2612 4.36325 17.2588 4.36075 17.2533Z" stroke="black" stroke-width="1.4"/>
<path d="M11.6772 4.77734C11.6772 4.77734 12.6532 6.17869 13.5049 6.73947C14.3567 7.30025 15.4169 7.91669 15.4169 7.91669" stroke="black" stroke-width="1.4" stroke-linecap="round"/>
</svg>
