<svg width="24" height="24" viewBox="0 0 24 24" fill="none" xmlns="http://www.w3.org/2000/svg">
<rect width="24" height="24" rx="4" fill="#F0FFF8"/>
<path d="M18.6666 8.33392L10.4891 18.0665C10.1478 18.4727 9.68552 18.7422 9.18041 18.8239C8.57215 18.9223 7.8095 19.0319 7.16542 19.0833C6.84113 19.1092 6.56735 19.1185 6.36656 19.1086C6.34778 19.1076 6.3303 19.1065 6.31407 19.1054C6.31012 19.0896 6.30604 19.0726 6.30189 19.0542C6.25747 18.8582 6.21948 18.5869 6.18907 18.263C6.12868 17.6197 6.10524 16.8495 6.09732 16.2334C6.09075 15.7218 6.27656 15.22 6.61786 14.8138L14.7868 5.09157C15.1853 4.61719 15.8315 4.50875 16.3125 4.8034C16.7908 5.09648 17.2755 5.4199 17.6194 5.70883C17.9554 5.99111 18.3389 6.39355 18.6926 6.7961C19.0595 7.21383 19.0632 7.8619 18.6666 8.33392ZM6.15176 19.0824C6.15191 19.0823 6.15485 19.083 6.16009 19.0849C6.15422 19.0834 6.15161 19.0825 6.15176 19.0824ZM6.36075 19.2535C6.3635 19.2584 6.36475 19.2611 6.36469 19.2613C6.36463 19.2615 6.36325 19.2591 6.36075 19.2535Z" stroke="#289672" stroke-width="1.4"/>
<path d="M13.6768 6.77734C13.6768 6.77734 14.6527 8.17869 15.5044 8.73947C16.3562 9.30025 17.4164 9.91669 17.4164 9.91669" stroke="#289672" stroke-width="1.4" stroke-linecap="round"/>
</svg>
