<svg width="14" height="14" viewBox="0 0 14 14" fill="none" xmlns="http://www.w3.org/2000/svg">
<path fill-rule="evenodd" clip-rule="evenodd" d="M6.99967 1.3335C3.87501 1.3335 1.33301 3.8755 1.33301 7.00016C1.33301 10.1248 3.87501 12.6668 6.99967 12.6668C10.1243 12.6668 12.6663 10.1248 12.6663 7.00016C12.6663 3.8755 10.1243 1.3335 6.99967 1.3335ZM6.99967 13.6668C3.32367 13.6668 0.333008 10.6762 0.333008 7.00016C0.333008 3.32416 3.32367 0.333496 6.99967 0.333496C10.6757 0.333496 13.6663 3.32416 13.6663 7.00016C13.6663 10.6762 10.6757 13.6668 6.99967 13.6668Z" fill="#F31B1B"/>
<path fill-rule="evenodd" clip-rule="evenodd" d="M6.99609 7.91573C6.72009 7.91573 6.49609 7.69173 6.49609 7.41573V4.46973C6.49609 4.19373 6.72009 3.96973 6.99609 3.96973C7.27209 3.96973 7.49609 4.19373 7.49609 4.46973V7.41573C7.49609 7.69173 7.27209 7.91573 6.99609 7.91573Z" fill="#F31B1B"/>
<path fill-rule="evenodd" clip-rule="evenodd" d="M7.00203 10.1976C6.63336 10.1976 6.33203 9.89959 6.33203 9.53092C6.33203 9.16226 6.62736 8.86426 6.99536 8.86426H7.00203C7.3707 8.86426 7.6687 9.16226 7.6687 9.53092C7.6687 9.89959 7.3707 10.1976 7.00203 10.1976Z" fill="#F31B1B"/>
</svg>
