<svg width="14" height="13" viewBox="0 0 14 13" fill="none" xmlns="http://www.w3.org/2000/svg">
<path d="M7 8.44458L7 1.77791" stroke="white" stroke-width="1.4" stroke-linecap="round"/>
<line x1="7" y1="1.51528" x2="5.18186" y2="3.33341" stroke="white" stroke-width="1.2" stroke-linecap="round"/>
<line x1="0.6" y1="-0.6" x2="3.17124" y2="-0.6" transform="matrix(0.707107 0.707107 0.707107 -0.707107 7 0.666748)" stroke="white" stroke-width="1.2" stroke-linecap="round"/>
<path d="M1.7 6.3335C1.7 5.9469 1.3866 5.6335 1 5.6335C0.613401 5.6335 0.3 5.9469 0.3 6.3335H1.7ZM13.7 6.3335C13.7 5.9469 13.3866 5.6335 13 5.6335C12.6134 5.6335 12.3 5.9469 12.3 6.3335H13.7ZM12.3 6.3335C12.3 6.3348 12.3 6.33611 12.3 6.33741C12.3 6.33872 12.3 6.34003 12.3 6.34133C12.3 6.34264 12.3 6.34394 12.3 6.34525C12.3 6.34655 12.3 6.34786 12.3 6.34916C12.3 6.35047 12.3 6.35177 12.3 6.35308C12.3 6.35438 12.3 6.35569 12.3 6.35699C12.3 6.3583 12.3 6.3596 12.3 6.36091C12.3 6.36221 12.3 6.36352 12.3 6.36482C12.3 6.36612 12.3 6.36743 12.3 6.36873C12.3 6.37004 12.3 6.37134 12.3 6.37265C12.3 6.37395 12.3 6.37525 12.3 6.37656C12.3 6.37786 12.3 6.37916 12.3 6.38047C12.3 6.38177 12.3 6.38308 12.3 6.38438C12.3 6.38568 12.3 6.38699 12.3 6.38829C12.3 6.38959 12.3 6.3909 12.3 6.3922C12.3 6.3935 12.3 6.39481 12.3 6.39611C12.3 6.39741 12.3 6.39871 12.3 6.40002C12.3 6.40132 12.3 6.40262 12.3 6.40392C12.3 6.40523 12.3 6.40653 12.3 6.40783C12.3 6.40913 12.3 6.41044 12.3 6.41174C12.3 6.41304 12.3 6.41434 12.3 6.41565C12.3 6.41695 12.3 6.41825 12.3 6.41955C12.3 6.42085 12.3 6.42215 12.3 6.42346C12.3 6.42476 12.3 6.42606 12.3 6.42736C12.3 6.42866 12.3 6.42996 12.3 6.43127C12.3 6.43257 12.3 6.43387 12.3 6.43517C12.3 6.43647 12.3 6.43777 12.3 6.43907C12.3 6.44037 12.3 6.44167 12.3 6.44297C12.3 6.44427 12.3 6.44558 12.3 6.44688C12.3 6.44818 12.3 6.44948 12.3 6.45078C12.3 6.45208 12.3 6.45338 12.3 6.45468C12.3 6.45598 12.3 6.45728 12.3 6.45858C12.3 6.45988 12.3 6.46118 12.3 6.46248C12.3 6.46378 12.3 6.46508 12.3 6.46638C12.3 6.46768 12.3 6.46898 12.3 6.47027C12.3 6.47157 12.3 6.47287 12.3 6.47417C12.3 6.47547 12.3 6.47677 12.3 6.47807C12.3 6.47937 12.3 6.48067 12.3 6.48197C12.3 6.48326 12.3 6.48456 12.3 6.48586C12.3 6.48716 12.3 6.48846 12.3 6.48976C12.3 6.49106 12.3 6.49235 12.3 6.49365C12.3 6.49495 12.3 6.49625 12.3 6.49755C12.3 6.49884 12.3 6.50014 12.3 6.50144C12.3 6.50274 12.3 6.50404 12.3 6.50533C12.3 6.50663 12.3 6.50793 12.3 6.50922C12.3 6.51052 12.3 6.51182 12.3 6.51312C12.3 6.51441 12.3 6.51571 12.3 6.51701C12.3 6.5183 12.3 6.5196 12.3 6.5209C12.3 6.5222 12.3 6.52349 12.3 6.52479C12.3 6.52608 12.3 6.52738 12.3 6.52868C12.3 6.52997 12.3 6.53127 12.3 6.53257C12.3 6.53386 12.3 6.53516 12.3 6.53645C12.3 6.53775 12.3 6.53905 12.3 6.54034C12.3 6.54164 12.3 6.54293 12.3 6.54423C12.3 6.54552 12.3 6.54682 12.3 6.54812C12.3 6.54941 12.3 6.55071 12.3 6.552C12.3 6.5533 12.3 6.55459 12.3 6.55589C12.3 6.55718 12.3 6.55848 12.3 6.55977C12.3 6.56106 12.3 6.56236 12.3 6.56365C12.3 6.56495 12.3 6.56624 12.3 6.56754C12.3 6.56883 12.3 6.57013 12.3 6.57142C12.3 6.57271 12.3 6.57401 12.3 6.5753C12.3 6.5766 12.3 6.57789 12.3 6.57918C12.3 6.58048 12.3 6.58177 12.3 6.58306C12.3 6.58436 12.3 6.58565 12.3 6.58694C12.3 6.58824 12.3 6.58953 12.3 6.59082C12.3 6.59212 12.3 6.59341 12.3 6.5947C12.3 6.59599 12.3 6.59729 12.3 6.59858C12.3 6.59987 12.3 6.60116 12.3 6.60246C12.3 6.60375 12.3 6.60504 12.3 6.60633C12.3 6.60763 12.3 6.60892 12.3 6.61021C12.3 6.6115 12.3 6.61279 12.3 6.61409C12.3 6.61538 12.3 6.61667 12.3 6.61796C12.3 6.61925 12.3 6.62054 12.3 6.62183C12.3 6.62313 12.3 6.62442 12.3 6.62571C12.3 6.627 12.3 6.62829 12.3 6.62958C12.3 6.63087 12.3 6.63216 12.3 6.63345C12.3 6.63474 12.3 6.63603 12.3 6.63732C12.3 6.63861 12.3 6.6399 12.3 6.6412C12.3 6.64249 12.3 6.64378 12.3 6.64507C12.3 6.64636 12.3 6.64765 12.3 6.64893C12.3 6.65022 12.3 6.65151 12.3 6.6528C12.3 6.65409 12.3 6.65538 12.3 6.65667C12.3 6.65796 12.3 6.65925 12.3 6.66054C12.3 6.66183 12.3 6.66312 12.3 6.66441C12.3 6.6657 12.3 6.66698 12.3 6.66827C12.3 6.66956 12.3 6.67085 12.3 6.67214C12.3 6.67343 12.3 6.67472 12.3 6.676C12.3 6.67729 12.3 6.67858 12.3 6.67987C12.3 6.68116 12.3 6.68244 12.3 6.68373C12.3 6.68502 12.3 6.68631 12.3 6.68759C12.3 6.68888 12.3 6.69017 12.3 6.69146C12.3 6.69274 12.3 6.69403 12.3 6.69532C12.3 6.6966 12.3 6.69789 12.3 6.69918C12.3 6.70047 12.3 6.70175 12.3 6.70304C12.3 6.70432 12.3 6.70561 12.3 6.7069C12.3 6.70818 12.3 6.70947 12.3 6.71076C12.3 6.71204 12.3 6.71333 12.3 6.71461C12.3 6.7159 12.3 6.71719 12.3 6.71847C12.3 6.71976 12.3 6.72104 12.3 6.72233C12.3 6.72361 12.3 6.7249 12.3 6.72618C12.3 6.72747 12.3 6.72875 12.3 6.73004C12.3 6.73132 12.3 6.73261 12.3 6.73389C12.3 6.73518 12.3 6.73646 12.3 6.73775C12.3 6.73903 12.3 6.74032 12.3 6.7416C12.3 6.74289 12.3 6.74417 12.3 6.74545C12.3 6.74674 12.3 6.74802 12.3 6.74931C12.3 6.75059 12.3 6.75187 12.3 6.75316C12.3 6.75444 12.3 6.75572 12.3 6.75701C12.3 6.75829 12.3 6.75957 12.3 6.76086C12.3 6.76214 12.3 6.76342 12.3 6.76471C12.3 6.76599 12.3 6.76727 12.3 6.76855C12.3 6.76984 12.3 6.77112 12.3 6.7724C12.3 6.77368 12.3 6.77497 12.3 6.77625C12.3 6.77753 12.3 6.77881 12.3 6.78009C12.3 6.78138 12.3 6.78266 12.3 6.78394C12.3 6.78522 12.3 6.7865 12.3 6.78778C12.3 6.78906 12.3 6.79035 12.3 6.79163C12.3 6.79291 12.3 6.79419 12.3 6.79547C12.3 6.79675 12.3 6.79803 12.3 6.79931C12.3 6.80059 12.3 6.80187 12.3 6.80315C12.3 6.80443 12.3 6.80572 12.3 6.807C12.3 6.80828 12.3 6.80956 12.3 6.81084C12.3 6.81212 12.3 6.8134 12.3 6.81468C12.3 6.81595 12.3 6.81723 12.3 6.81851C12.3 6.81979 12.3 6.82107 12.3 6.82235C12.3 6.82363 12.3 6.82491 12.3 6.82619C12.3 6.82747 12.3 6.82875 12.3 6.83003C12.3 6.8313 12.3 6.83258 12.3 6.83386C12.3 6.83514 12.3 6.83642 12.3 6.8377C12.3 6.83897 12.3 6.84025 12.3 6.84153C12.3 6.84281 12.3 6.84409 12.3 6.84536C12.3 6.84664 12.3 6.84792 12.3 6.8492C12.3 6.85047 12.3 6.85175 12.3 6.85303C12.3 6.85431 12.3 6.85558 12.3 6.85686C12.3 6.85814 12.3 6.85941 12.3 6.86069C12.3 6.86197 12.3 6.86324 12.3 6.86452C12.3 6.8658 12.3 6.86707 12.3 6.86835C12.3 6.86963 12.3 6.8709 12.3 6.87218C12.3 6.87345 12.3 6.87473 12.3 6.876C12.3 6.87728 12.3 6.87856 12.3 6.87983C12.3 6.88111 12.3 6.88238 12.3 6.88366C12.3 6.88493 12.3 6.88621 12.3 6.88748C12.3 6.88876 12.3 6.89003 12.3 6.89131C12.3 6.89258 12.3 6.89386 12.3 6.89513C12.3 6.89641 12.3 6.89768 12.3 6.89895C12.3 6.90023 12.3 6.9015 12.3 6.90278C12.3 6.90405 12.3 6.90532 12.3 6.9066C12.3 6.90787 12.3 6.90914 12.3 6.91042C12.3 6.91169 12.3 6.91296 12.3 6.91424C12.3 6.91551 12.3 6.91678 12.3 6.91806C12.3 6.91933 12.3 6.9206 12.3 6.92187C12.3 6.92315 12.3 6.92442 12.3 6.92569C12.3 6.92696 12.3 6.92824 12.3 6.92951C12.3 6.93078 12.3 6.93205 12.3 6.93332C12.3 6.9346 12.3 6.93587 12.3 6.93714C12.3 6.93841 12.3 6.93968 12.3 6.94095C12.3 6.94222 12.3 6.9435 12.3 6.94477C12.3 6.94604 12.3 6.94731 12.3 6.94858C12.3 6.94985 12.3 6.95112 12.3 6.95239C12.3 6.95366 12.3 6.95493 12.3 6.9562C12.3 6.95747 12.3 6.95874 12.3 6.96001C12.3 6.96128 12.3 6.96255 12.3 6.96382C12.3 6.96509 12.3 6.96636 12.3 6.96763C12.3 6.9689 12.3 6.97017 12.3 6.97144C12.3 6.97271 12.3 6.97398 12.3 6.97525C12.3 6.97651 12.3 6.97778 12.3 6.97905C12.3 6.98032 12.3 6.98159 12.3 6.98286C12.3 6.98413 12.3 6.98539 12.3 6.98666C12.3 6.98793 12.3 6.9892 12.3 6.99047C12.3 6.99173 12.3 6.993 12.3 6.99427C12.3 6.99554 12.3 6.9968 12.3 6.99807C12.3 6.99934 12.3 7.0006 12.3 7.00187C12.3 7.00314 12.3 7.00441 12.3 7.00567C12.3 7.00694 12.3 7.00821 12.3 7.00947C12.3 7.01074 12.3 7.012 12.3 7.01327C12.3 7.01454 12.3 7.0158 12.3 7.01707C12.3 7.01833 12.3 7.0196 12.3 7.02087C12.3 7.02213 12.3 7.0234 12.3 7.02466C12.3 7.02593 12.3 7.02719 12.3 7.02846C12.3 7.02972 12.3 7.03099 12.3 7.03225C12.3 7.03352 12.3 7.03478 12.3 7.03605C12.3 7.03731 12.3 7.03858 12.3 7.03984C12.3 7.0411 12.3 7.04237 12.3 7.04363C12.3 7.0449 12.3 7.04616 12.3 7.04742C12.3 7.04869 12.3 7.04995 12.3 7.05121C12.3 7.05248 12.3 7.05374 12.3 7.055C12.3 7.05627 12.3 7.05753 12.3 7.05879C12.3 7.06005 12.3 7.06132 12.3 7.06258C12.3 7.06384 12.3 7.0651 12.3 7.06637C12.3 7.06763 12.3 7.06889 12.3 7.07015C12.3 7.07142 12.3 7.07268 12.3 7.07394C12.3 7.0752 12.3 7.07646 12.3 7.07772C12.3 7.07898 12.3 7.08025 12.3 7.08151C12.3 7.08277 12.3 7.08403 12.3 7.08529C12.3 7.08655 12.3 7.08781 12.3 7.08907C12.3 7.09033 12.3 7.09159 12.3 7.09285C12.3 7.09411 12.3 7.09537 12.3 7.09663C12.3 7.09789 12.3 7.09915 12.3 7.10041C12.3 7.10167 12.3 7.10293 12.3 7.10419C12.3 7.10545 12.3 7.10671 12.3 7.10797C12.3 7.10923 12.3 7.11049 12.3 7.11175C12.3 7.113 12.3 7.11426 12.3 7.11552C12.3 7.11678 12.3 7.11804 12.3 7.1193C12.3 7.12056 12.3 7.12181 12.3 7.12307C12.3 7.12433 12.3 7.12559 12.3 7.12684C12.3 7.1281 12.3 7.12936 12.3 7.13062C12.3 7.13187 12.3 7.13313 12.3 7.13439C12.3 7.13565 12.3 7.1369 12.3 7.13816C12.3 7.13942 12.3 7.14067 12.3 7.14193C12.3 7.14319 12.3 7.14444 12.3 7.1457C12.3 7.14695 12.3 7.14821 12.3 7.14947C12.3 7.15072 12.3 7.15198 12.3 7.15323C12.3 7.15449 12.3 7.15574 12.3 7.157C12.3 7.15825 12.3 7.15951 12.3 7.16077C12.3 7.16202 12.3 7.16327 12.3 7.16453C12.3 7.16578 12.3 7.16704 12.3 7.16829C12.3 7.16955 12.3 7.1708 12.3 7.17206C12.3 7.17331 12.3 7.17456 12.3 7.17582C12.3 7.17707 12.3 7.17833 12.3 7.17958C12.3 7.18083 12.3 7.18209 12.3 7.18334C12.3 7.18459 12.3 7.18584 12.3 7.1871C12.3 7.18835 12.3 7.1896 12.3 7.19086C12.3 7.19211 12.3 7.19336 12.3 7.19461C12.3 7.19587 12.3 7.19712 12.3 7.19837C12.3 7.19962 12.3 7.20087 12.3 7.20213C12.3 7.20338 12.3 7.20463 12.3 7.20588C12.3 7.20713 12.3 7.20838 12.3 7.20963C12.3 7.21088 12.3 7.21214 12.3 7.21339C12.3 7.21464 12.3 7.21589 12.3 7.21714C12.3 7.21839 12.3 7.21964 12.3 7.22089C12.3 7.22214 12.3 7.22339 12.3 7.22464C12.3 7.22589 12.3 7.22714 12.3 7.22839C12.3 7.22964 12.3 7.23089 12.3 7.23214C12.3 7.23339 12.3 7.23463 12.3 7.23588C12.3 7.23713 12.3 7.23838 12.3 7.23963C12.3 7.24088 12.3 7.24213 12.3 7.24338C12.3 7.24462 12.3 7.24587 12.3 7.24712C12.3 7.24837 12.3 7.24962 12.3 7.25086C12.3 7.25211 12.3 7.25336 12.3 7.25461C12.3 7.25585 12.3 7.2571 12.3 7.25835C12.3 7.25959 12.3 7.26084 12.3 7.26209C12.3 7.26333 12.3 7.26458 12.3 7.26583C12.3 7.26707 12.3 7.26832 12.3 7.26957C12.3 7.27081 12.3 7.27206 12.3 7.2733C12.3 7.27455 12.3 7.2758 12.3 7.27704C12.3 7.27829 12.3 7.27953 12.3 7.28078C12.3 7.28202 12.3 7.28327 12.3 7.28451C12.3 7.28576 12.3 7.287 12.3 7.28825C12.3 7.28949 12.3 7.29074 12.3 7.29198C12.3 7.29322 12.3 7.29447 12.3 7.29571C12.3 7.29696 12.3 7.2982 12.3 7.29944C12.3 7.30069 12.3 7.30193 12.3 7.30317C12.3 7.30442 12.3 7.30566 12.3 7.3069C12.3 7.30815 12.3 7.30939 12.3 7.31063C12.3 7.31187 12.3 7.31312 12.3 7.31436C12.3 7.3156 12.3 7.31684 12.3 7.31809C12.3 7.31933 12.3 7.32057 12.3 7.32181C12.3 7.32305 12.3 7.32429 12.3 7.32554C12.3 7.32678 12.3 7.32802 12.3 7.32926C12.3 7.3305 12.3 7.33174 12.3 7.33298C12.3 7.33422 12.3 7.33546 12.3 7.3367C12.3 7.33794 12.3 7.33918 12.3 7.34042C12.3 7.34166 12.3 7.3429 12.3 7.34414C12.3 7.34538 12.3 7.34662 12.3 7.34786C12.3 7.3491 12.3 7.35034 12.3 7.35158C12.3 7.35282 12.3 7.35406 12.3 7.3553C12.3 7.35654 12.3 7.35777 12.3 7.35901C12.3 7.36025 12.3 7.36149 12.3 7.36273C12.3 7.36397 12.3 7.3652 12.3 7.36644C12.3 7.36768 12.3 7.36892 12.3 7.37015C12.3 7.37139 12.3 7.37263 12.3 7.37387C12.3 7.3751 12.3 7.37634 12.3 7.37758C12.3 7.37881 12.3 7.38005 12.3 7.38129C12.3 7.38252 12.3 7.38376 12.3 7.385C12.3 7.38623 12.3 7.38747 12.3 7.3887C12.3 7.38994 12.3 7.39117 12.3 7.39241C12.3 7.39365 12.3 7.39488 12.3 7.39612C12.3 7.39735 12.3 7.39859 12.3 7.39982C12.3 7.40106 12.3 7.40229 12.3 7.40352C12.3 7.40476 12.3 7.40599 12.3 7.40723C12.3 7.40846 12.3 7.4097 12.3 7.41093C12.3 7.41216 12.3 7.4134 12.3 7.41463C12.3 7.41586 12.3 7.4171 12.3 7.41833C12.3 7.41956 12.3 7.4208 12.3 7.42203C12.3 7.42326 12.3 7.42449 12.3 7.42573C12.3 7.42696 12.3 7.42819 12.3 7.42942C12.3 7.43066 12.3 7.43189 12.3 7.43312C12.3 7.43435 12.3 7.43558 12.3 7.43681C12.3 7.43805 12.3 7.43928 12.3 7.44051C12.3 7.44174 12.3 7.44297 12.3 7.4442C12.3 7.44543 12.3 7.44666 12.3 7.44789C12.3 7.44912 12.3 7.45035 12.3 7.45158C12.3 7.45281 12.3 7.45404 12.3 7.45527C12.3 7.4565 12.3 7.45773 12.3 7.45896C12.3 7.46019 12.3 7.46142 12.3 7.46265C12.3 7.46388 12.3 7.46511 12.3 7.46634C12.3 7.46756 12.3 7.46879 12.3 7.47002C12.3 7.47125 12.3 7.47248 12.3 7.47371C12.3 7.47493 12.3 7.47616 12.3 7.47739C12.3 7.47862 12.3 7.47984 12.3 7.48107C12.3 7.4823 12.3 7.48353 12.3 7.48475C12.3 7.48598 12.3 7.48721 12.3 7.48843C12.3 7.48966 12.3 7.49089 12.3 7.49211C12.3 7.49334 12.3 7.49457 12.3 7.49579C12.3 7.49702 12.3 7.49824 12.3 7.49947C12.3 7.50069 12.3 7.50192 12.3 7.50315C12.3 7.50437 12.3 7.5056 12.3 7.50682C12.3 7.50805 12.3 7.50927 12.3 7.51049C12.3 7.51172 12.3 7.51294 12.3 7.51417C12.3 7.51539 12.3 7.51662 12.3 7.51784C12.3 7.51906 12.3 7.52029 12.3 7.52151C12.3 7.52273 12.3 7.52396 12.3 7.52518C12.3 7.5264 12.3 7.52763 12.3 7.52885C12.3 7.53007 12.3 7.53129 12.3 7.53252C12.3 7.53374 12.3 7.53496 12.3 7.53618C12.3 7.53741 12.3 7.53863 12.3 7.53985C12.3 7.54107 12.3 7.54229 12.3 7.54351C12.3 7.54474 12.3 7.54596 12.3 7.54718C12.3 7.5484 12.3 7.54962 12.3 7.55084C12.3 7.55206 12.3 7.55328 12.3 7.5545C12.3 7.55572 12.3 7.55694 12.3 7.55816C12.3 7.55938 12.3 7.5606 12.3 7.56182C12.3 7.56304 12.3 7.56426 12.3 7.56548C12.3 7.5667 12.3 7.56792 12.3 7.56914C12.3 7.57036 12.3 7.57157 12.3 7.57279C12.3 7.57401 12.3 7.57523 12.3 7.57645C12.3 7.57767 12.3 7.57888 12.3 7.5801C12.3 7.58132 12.3 7.58254 12.3 7.58375C12.3 7.58497 12.3 7.58619 12.3 7.58741C12.3 7.58862 12.3 7.58984 12.3 7.59106C12.3 7.59227 12.3 7.59349 12.3 7.59471C12.3 7.59592 12.3 7.59714 12.3 7.59835C12.3 7.59957 12.3 7.60079 12.3 7.602C12.3 7.60322 12.3 7.60443 12.3 7.60565C12.3 7.60686 12.3 7.60808 12.3 7.60929C12.3 7.61051 12.3 7.61172 12.3 7.61294C12.3 7.61415 12.3 7.61537 12.3 7.61658C12.3 7.61779 12.3 7.61901 12.3 7.62022C12.3 7.62144 12.3 7.62265 12.3 7.62386C12.3 7.62508 12.3 7.62629 12.3 7.6275C12.3 7.62872 12.3 7.62993 12.3 7.63114C12.3 7.63235 12.3 7.63357 12.3 7.63478C12.3 7.63599 12.3 7.6372 12.3 7.63841C12.3 7.63963 12.3 7.64084 12.3 7.64205C12.3 7.64326 12.3 7.64447 12.3 7.64568C12.3 7.6469 12.3 7.64811 12.3 7.64932C12.3 7.65053 12.3 7.65174 12.3 7.65295C12.3 7.65416 12.3 7.65537 12.3 7.65658C12.3 7.65779 12.3 7.659 12.3 7.66021C12.3 7.66142 12.3 7.66263 12.3 7.66384C12.3 7.66505 12.3 7.66626 12.3 7.66747C12.3 7.66867 12.3 7.66988 12.3 7.67109C12.3 7.6723 12.3 7.67351 12.3 7.67472C12.3 7.67593 12.3 7.67713 12.3 7.67834C12.3 7.67955 12.3 7.68076 12.3 7.68196C12.3 7.68317 12.3 7.68438 12.3 7.68559C12.3 7.68679 12.3 7.688 12.3 7.68921C12.3 7.69041 12.3 7.69162 12.3 7.69283C12.3 7.69403 12.3 7.69524 12.3 7.69644C12.3 7.69765 12.3 7.69886 12.3 7.70006C12.3 7.70127 12.3 7.70247 12.3 7.70368C12.3 7.70488 12.3 7.70609 12.3 7.70729C12.3 7.7085 12.3 7.7097 12.3 7.71091C12.3 7.71211 12.3 7.71331 12.3 7.71452C12.3 7.71572 12.3 7.71693 12.3 7.71813C12.3 7.71933 12.3 7.72054 12.3 7.72174C12.3 7.72294 12.3 7.72415 12.3 7.72535C12.3 7.72655 12.3 7.72776 12.3 7.72896C12.3 7.73016 12.3 7.73136 12.3 7.73256C12.3 7.73377 12.3 7.73497 12.3 7.73617C12.3 7.73737 12.3 7.73857 12.3 7.73977C12.3 7.74098 12.3 7.74218 12.3 7.74338C12.3 7.74458 12.3 7.74578 12.3 7.74698C12.3 7.74818 12.3 7.74938 12.3 7.75058C12.3 7.75178 12.3 7.75298 12.3 7.75418C12.3 7.75538 12.3 7.75658 12.3 7.75778C12.3 7.75898 12.3 7.76018 12.3 7.76138C12.3 7.76258 12.3 7.76378 12.3 7.76497C12.3 7.76617 12.3 7.76737 12.3 7.76857C12.3 7.76977 12.3 7.77097 12.3 7.77216C12.3 7.77336 12.3 7.77456 12.3 7.77576C12.3 7.77695 12.3 7.77815 12.3 7.77935C12.3 7.78055 12.3 7.78174 12.3 7.78294C12.3 7.78414 12.3 7.78533 12.3 7.78653C12.3 7.78772 12.3 7.78892 12.3 7.79012C12.3 7.79131 12.3 7.79251 12.3 7.7937C12.3 7.7949 12.3 7.79609 12.3 7.79729C12.3 7.79848 12.3 7.79968 12.3 7.80087C12.3 7.80207 12.3 7.80326 12.3 7.80446C12.3 7.80565 12.3 7.80685 12.3 7.80804C12.3 7.80923 12.3 7.81043 12.3 7.81162C12.3 7.81281 12.3 7.81401 12.3 7.8152C12.3 7.81639 12.3 7.81759 12.3 7.81878C12.3 7.81997 12.3 7.82117 12.3 7.82236C12.3 7.82355 12.3 7.82474 12.3 7.82593C12.3 7.82713 12.3 7.82832 12.3 7.82951C12.3 7.8307 12.3 7.83189 12.3 7.83308C12.3 7.83427 12.3 7.83546 12.3 7.83666C12.3 7.83785 12.3 7.83904 12.3 7.84023C12.3 7.84142 12.3 7.84261 12.3 7.8438C12.3 7.84499 12.3 7.84618 12.3 7.84737C12.3 7.84856 12.3 7.84975 12.3 7.85093C12.3 7.85212 12.3 7.85331 12.3 7.8545C12.3 7.85569 12.3 7.85688 12.3 7.85807C12.3 7.85925 12.3 7.86044 12.3 7.86163C12.3 7.86282 12.3 7.86401 12.3 7.86519C12.3 7.86638 12.3 7.86757 12.3 7.86876C12.3 7.86994 12.3 7.87113 12.3 7.87232C12.3 7.8735 12.3 7.87469 12.3 7.87588C12.3 7.87706 12.3 7.87825 12.3 7.87943C12.3 7.88062 12.3 7.88181 12.3 7.88299C12.3 7.88418 12.3 7.88536 12.3 7.88655C12.3 7.88773 12.3 7.88892 12.3 7.8901C12.3 7.89129 12.3 7.89247 12.3 7.89365C12.3 7.89484 12.3 7.89602 12.3 7.89721C12.3 7.89839 12.3 7.89957 12.3 7.90076C12.3 7.90194 12.3 7.90312 12.3 7.90431C12.3 7.90549 12.3 7.90667 12.3 7.90785C12.3 7.90904 12.3 7.91022 12.3 7.9114C12.3 7.91258 12.3 7.91377 12.3 7.91495C12.3 7.91613 12.3 7.91731 12.3 7.91849C12.3 7.91967 12.3 7.92085 12.3 7.92204C12.3 7.92322 12.3 7.9244 12.3 7.92558C12.3 7.92676 12.3 7.92794 12.3 7.92912C12.3 7.9303 12.3 7.93148 12.3 7.93266C12.3 7.93384 12.3 7.93502 12.3 7.9362C12.3 7.93738 12.3 7.93856 12.3 7.93973C12.3 7.94091 12.3 7.94209 12.3 7.94327C12.3 7.94445 12.3 7.94563 12.3 7.9468C12.3 7.94798 12.3 7.94916 12.3 7.95034C12.3 7.95152 12.3 7.95269 12.3 7.95387C12.3 7.95505 12.3 7.95622 12.3 7.9574C12.3 7.95858 12.3 7.95975 12.3 7.96093C12.3 7.96211 12.3 7.96328 12.3 7.96446C12.3 7.96563 12.3 7.96681 12.3 7.96799C12.3 7.96916 12.3 7.97034 12.3 7.97151C12.3 7.97269 12.3 7.97386 12.3 7.97504C12.3 7.97621 12.3 7.97738 12.3 7.97856C12.3 7.97973 12.3 7.98091 12.3 7.98208C12.3 7.98325 12.3 7.98443 12.3 7.9856C12.3 7.98678 12.3 7.98795 12.3 7.98912C12.3 7.99029 12.3 7.99147 12.3 7.99264C12.3 7.99381 12.3 7.99498 12.3 7.99616C12.3 7.99733 12.3 7.9985 12.3 7.99967C12.3 8.00084 12.3 8.00201 12.3 8.00319C12.3 8.00436 12.3 8.00553 12.3 8.0067C12.3 8.00787 12.3 8.00904 12.3 8.01021C12.3 8.01138 12.3 8.01255 12.3 8.01372C12.3 8.01489 12.3 8.01606 12.3 8.01723C12.3 8.0184 12.3 8.01957 12.3 8.02074C12.3 8.02191 12.3 8.02308 12.3 8.02424C12.3 8.02541 12.3 8.02658 12.3 8.02775C12.3 8.02892 12.3 8.03009 12.3 8.03125C12.3 8.03242 12.3 8.03359 12.3 8.03476C12.3 8.03592 12.3 8.03709 12.3 8.03826C12.3 8.03943 12.3 8.04059 12.3 8.04176C12.3 8.04292 12.3 8.04409 12.3 8.04526C12.3 8.04642 12.3 8.04759 12.3 8.04875C12.3 8.04992 12.3 8.05109 12.3 8.05225C12.3 8.05342 12.3 8.05458 12.3 8.05575C12.3 8.05691 12.3 8.05807 12.3 8.05924C12.3 8.0604 12.3 8.06157 12.3 8.06273C12.3 8.0639 12.3 8.06506 12.3 8.06622C12.3 8.06739 12.3 8.06855 12.3 8.06971C12.3 8.07087 12.3 8.07204 12.3 8.0732C12.3 8.07436 12.3 8.07553 12.3 8.07669C12.3 8.07785 12.3 8.07901 12.3 8.08017C12.3 8.08133 12.3 8.0825 12.3 8.08366C12.3 8.08482 12.3 8.08598 12.3 8.08714C12.3 8.0883 12.3 8.08946 12.3 8.09062C12.3 8.09178 12.3 8.09294 12.3 8.0941C12.3 8.09526 12.3 8.09642 12.3 8.09758C12.3 8.09874 12.3 8.0999 12.3 8.10106C12.3 8.10222 12.3 8.10338 12.3 8.10454C12.3 8.10569 12.3 8.10685 12.3 8.10801C12.3 8.10917 12.3 8.11033 12.3 8.11148C12.3 8.11264 12.3 8.1138 12.3 8.11496C12.3 8.11611 12.3 8.11727 12.3 8.11843C12.3 8.11958 12.3 8.12074 12.3 8.1219C12.3 8.12305 12.3 8.12421 12.3 8.12537C12.3 8.12652 12.3 8.12768 12.3 8.12883C12.3 8.12999 12.3 8.13114 12.3 8.1323C12.3 8.13345 12.3 8.13461 12.3 8.13576C12.3 8.13692 12.3 8.13807 12.3 8.13923C12.3 8.14038 12.3 8.14153 12.3 8.14269C12.3 8.14384 12.3 8.14499 12.3 8.14615C12.3 8.1473 12.3 8.14845 12.3 8.14961C12.3 8.15076 12.3 8.15191 12.3 8.15306C12.3 8.15422 12.3 8.15537 12.3 8.15652C12.3 8.15767 12.3 8.15882 12.3 8.15998C12.3 8.16113 12.3 8.16228 12.3 8.16343C12.3 8.16458 12.3 8.16573 12.3 8.16688C12.3 8.16803 12.3 8.16918 12.3 8.17033C12.3 8.17148 12.3 8.17263 12.3 8.17378C12.3 8.17493 12.3 8.17608 12.3 8.17723C12.3 8.17838 12.3 8.17953 12.3 8.18068C12.3 8.18182 12.3 8.18297 12.3 8.18412C12.3 8.18527 12.3 8.18642 12.3 8.18756C12.3 8.18871 12.3 8.18986 12.3 8.19101C12.3 8.19215 12.3 8.1933 12.3 8.19445C12.3 8.1956 12.3 8.19674 12.3 8.19789C12.3 8.19903 12.3 8.20018 12.3 8.20133C12.3 8.20247 12.3 8.20362 12.3 8.20476C12.3 8.20591 12.3 8.20705 12.3 8.2082C12.3 8.20934 12.3 8.21049 12.3 8.21163C12.3 8.21278 12.3 8.21392 12.3 8.21507C12.3 8.21621 12.3 8.21735 12.3 8.2185C12.3 8.21964 12.3 8.22079 12.3 8.22193C12.3 8.22307 12.3 8.22421 12.3 8.22536C12.3 8.2265 12.3 8.22764 12.3 8.22878C12.3 8.22993 12.3 8.23107 12.3 8.23221H13.7C13.7 8.23107 13.7 8.22993 13.7 8.22878C13.7 8.22764 13.7 8.2265 13.7 8.22536C13.7 8.22421 13.7 8.22307 13.7 8.22193C13.7 8.22079 13.7 8.21964 13.7 8.2185C13.7 8.21735 13.7 8.21621 13.7 8.21507C13.7 8.21392 13.7 8.21278 13.7 8.21163C13.7 8.21049 13.7 8.20934 13.7 8.2082C13.7 8.20705 13.7 8.20591 13.7 8.20476C13.7 8.20362 13.7 8.20247 13.7 8.20133C13.7 8.20018 13.7 8.19903 13.7 8.19789C13.7 8.19674 13.7 8.1956 13.7 8.19445C13.7 8.1933 13.7 8.19215 13.7 8.19101C13.7 8.18986 13.7 8.18871 13.7 8.18756C13.7 8.18642 13.7 8.18527 13.7 8.18412C13.7 8.18297 13.7 8.18182 13.7 8.18068C13.7 8.17953 13.7 8.17838 13.7 8.17723C13.7 8.17608 13.7 8.17493 13.7 8.17378C13.7 8.17263 13.7 8.17148 13.7 8.17033C13.7 8.16918 13.7 8.16803 13.7 8.16688C13.7 8.16573 13.7 8.16458 13.7 8.16343C13.7 8.16228 13.7 8.16113 13.7 8.15998C13.7 8.15882 13.7 8.15767 13.7 8.15652C13.7 8.15537 13.7 8.15422 13.7 8.15306C13.7 8.15191 13.7 8.15076 13.7 8.14961C13.7 8.14845 13.7 8.1473 13.7 8.14615C13.7 8.14499 13.7 8.14384 13.7 8.14269C13.7 8.14153 13.7 8.14038 13.7 8.13923C13.7 8.13807 13.7 8.13692 13.7 8.13576C13.7 8.13461 13.7 8.13345 13.7 8.1323C13.7 8.13114 13.7 8.12999 13.7 8.12883C13.7 8.12768 13.7 8.12652 13.7 8.12537C13.7 8.12421 13.7 8.12305 13.7 8.1219C13.7 8.12074 13.7 8.11958 13.7 8.11843C13.7 8.11727 13.7 8.11611 13.7 8.11496C13.7 8.1138 13.7 8.11264 13.7 8.11148C13.7 8.11033 13.7 8.10917 13.7 8.10801C13.7 8.10685 13.7 8.10569 13.7 8.10454C13.7 8.10338 13.7 8.10222 13.7 8.10106C13.7 8.0999 13.7 8.09874 13.7 8.09758C13.7 8.09642 13.7 8.09526 13.7 8.0941C13.7 8.09294 13.7 8.09178 13.7 8.09062C13.7 8.08946 13.7 8.0883 13.7 8.08714C13.7 8.08598 13.7 8.08482 13.7 8.08366C13.7 8.0825 13.7 8.08133 13.7 8.08017C13.7 8.07901 13.7 8.07785 13.7 8.07669C13.7 8.07553 13.7 8.07436 13.7 8.0732C13.7 8.07204 13.7 8.07087 13.7 8.06971C13.7 8.06855 13.7 8.06739 13.7 8.06622C13.7 8.06506 13.7 8.0639 13.7 8.06273C13.7 8.06157 13.7 8.0604 13.7 8.05924C13.7 8.05807 13.7 8.05691 13.7 8.05575C13.7 8.05458 13.7 8.05342 13.7 8.05225C13.7 8.05109 13.7 8.04992 13.7 8.04875C13.7 8.04759 13.7 8.04642 13.7 8.04526C13.7 8.04409 13.7 8.04292 13.7 8.04176C13.7 8.04059 13.7 8.03943 13.7 8.03826C13.7 8.03709 13.7 8.03592 13.7 8.03476C13.7 8.03359 13.7 8.03242 13.7 8.03125C13.7 8.03009 13.7 8.02892 13.7 8.02775C13.7 8.02658 13.7 8.02541 13.7 8.02424C13.7 8.02308 13.7 8.02191 13.7 8.02074C13.7 8.01957 13.7 8.0184 13.7 8.01723C13.7 8.01606 13.7 8.01489 13.7 8.01372C13.7 8.01255 13.7 8.01138 13.7 8.01021C13.7 8.00904 13.7 8.00787 13.7 8.0067C13.7 8.00553 13.7 8.00436 13.7 8.00319C13.7 8.00201 13.7 8.00084 13.7 7.99967C13.7 7.9985 13.7 7.99733 13.7 7.99616C13.7 7.99498 13.7 7.99381 13.7 7.99264C13.7 7.99147 13.7 7.99029 13.7 7.98912C13.7 7.98795 13.7 7.98678 13.7 7.9856C13.7 7.98443 13.7 7.98325 13.7 7.98208C13.7 7.98091 13.7 7.97973 13.7 7.97856C13.7 7.97738 13.7 7.97621 13.7 7.97504C13.7 7.97386 13.7 7.97269 13.7 7.97151C13.7 7.97034 13.7 7.96916 13.7 7.96799C13.7 7.96681 13.7 7.96563 13.7 7.96446C13.7 7.96328 13.7 7.96211 13.7 7.96093C13.7 7.95975 13.7 7.95858 13.7 7.9574C13.7 7.95622 13.7 7.95505 13.7 7.95387C13.7 7.95269 13.7 7.95152 13.7 7.95034C13.7 7.94916 13.7 7.94798 13.7 7.9468C13.7 7.94563 13.7 7.94445 13.7 7.94327C13.7 7.94209 13.7 7.94091 13.7 7.93973C13.7 7.93856 13.7 7.93738 13.7 7.9362C13.7 7.93502 13.7 7.93384 13.7 7.93266C13.7 7.93148 13.7 7.9303 13.7 7.92912C13.7 7.92794 13.7 7.92676 13.7 7.92558C13.7 7.9244 13.7 7.92322 13.7 7.92204C13.7 7.92085 13.7 7.91967 13.7 7.91849C13.7 7.91731 13.7 7.91613 13.7 7.91495C13.7 7.91377 13.7 7.91258 13.7 7.9114C13.7 7.91022 13.7 7.90904 13.7 7.90785C13.7 7.90667 13.7 7.90549 13.7 7.90431C13.7 7.90312 13.7 7.90194 13.7 7.90076C13.7 7.89957 13.7 7.89839 13.7 7.89721C13.7 7.89602 13.7 7.89484 13.7 7.89365C13.7 7.89247 13.7 7.89129 13.7 7.8901C13.7 7.88892 13.7 7.88773 13.7 7.88655C13.7 7.88536 13.7 7.88418 13.7 7.88299C13.7 7.88181 13.7 7.88062 13.7 7.87943C13.7 7.87825 13.7 7.87706 13.7 7.87588C13.7 7.87469 13.7 7.8735 13.7 7.87232C13.7 7.87113 13.7 7.86994 13.7 7.86876C13.7 7.86757 13.7 7.86638 13.7 7.86519C13.7 7.86401 13.7 7.86282 13.7 7.86163C13.7 7.86044 13.7 7.85925 13.7 7.85807C13.7 7.85688 13.7 7.85569 13.7 7.8545C13.7 7.85331 13.7 7.85212 13.7 7.85093C13.7 7.84975 13.7 7.84856 13.7 7.84737C13.7 7.84618 13.7 7.84499 13.7 7.8438C13.7 7.84261 13.7 7.84142 13.7 7.84023C13.7 7.83904 13.7 7.83785 13.7 7.83666C13.7 7.83546 13.7 7.83427 13.7 7.83308C13.7 7.83189 13.7 7.8307 13.7 7.82951C13.7 7.82832 13.7 7.82713 13.7 7.82593C13.7 7.82474 13.7 7.82355 13.7 7.82236C13.7 7.82117 13.7 7.81997 13.7 7.81878C13.7 7.81759 13.7 7.81639 13.7 7.8152C13.7 7.81401 13.7 7.81281 13.7 7.81162C13.7 7.81043 13.7 7.80923 13.7 7.80804C13.7 7.80685 13.7 7.80565 13.7 7.80446C13.7 7.80326 13.7 7.80207 13.7 7.80087C13.7 7.79968 13.7 7.79848 13.7 7.79729C13.7 7.79609 13.7 7.7949 13.7 7.7937C13.7 7.79251 13.7 7.79131 13.7 7.79012C13.7 7.78892 13.7 7.78772 13.7 7.78653C13.7 7.78533 13.7 7.78414 13.7 7.78294C13.7 7.78174 13.7 7.78055 13.7 7.77935C13.7 7.77815 13.7 7.77695 13.7 7.77576C13.7 7.77456 13.7 7.77336 13.7 7.77216C13.7 7.77097 13.7 7.76977 13.7 7.76857C13.7 7.76737 13.7 7.76617 13.7 7.76497C13.7 7.76378 13.7 7.76258 13.7 7.76138C13.7 7.76018 13.7 7.75898 13.7 7.75778C13.7 7.75658 13.7 7.75538 13.7 7.75418C13.7 7.75298 13.7 7.75178 13.7 7.75058C13.7 7.74938 13.7 7.74818 13.7 7.74698C13.7 7.74578 13.7 7.74458 13.7 7.74338C13.7 7.74218 13.7 7.74098 13.7 7.73977C13.7 7.73857 13.7 7.73737 13.7 7.73617C13.7 7.73497 13.7 7.73377 13.7 7.73256C13.7 7.73136 13.7 7.73016 13.7 7.72896C13.7 7.72776 13.7 7.72655 13.7 7.72535C13.7 7.72415 13.7 7.72294 13.7 7.72174C13.7 7.72054 13.7 7.71933 13.7 7.71813C13.7 7.71693 13.7 7.71572 13.7 7.71452C13.7 7.71331 13.7 7.71211 13.7 7.71091C13.7 7.7097 13.7 7.7085 13.7 7.70729C13.7 7.70609 13.7 7.70488 13.7 7.70368C13.7 7.70247 13.7 7.70127 13.7 7.70006C13.7 7.69886 13.7 7.69765 13.7 7.69644C13.7 7.69524 13.7 7.69403 13.7 7.69283C13.7 7.69162 13.7 7.69041 13.7 7.68921C13.7 7.688 13.7 7.68679 13.7 7.68559C13.7 7.68438 13.7 7.68317 13.7 7.68196C13.7 7.68076 13.7 7.67955 13.7 7.67834C13.7 7.67713 13.7 7.67593 13.7 7.67472C13.7 7.67351 13.7 7.6723 13.7 7.67109C13.7 7.66988 13.7 7.66867 13.7 7.66747C13.7 7.66626 13.7 7.66505 13.7 7.66384C13.7 7.66263 13.7 7.66142 13.7 7.66021C13.7 7.659 13.7 7.65779 13.7 7.65658C13.7 7.65537 13.7 7.65416 13.7 7.65295C13.7 7.65174 13.7 7.65053 13.7 7.64932C13.7 7.64811 13.7 7.6469 13.7 7.64568C13.7 7.64447 13.7 7.64326 13.7 7.64205C13.7 7.64084 13.7 7.63963 13.7 7.63841C13.7 7.6372 13.7 7.63599 13.7 7.63478C13.7 7.63357 13.7 7.63235 13.7 7.63114C13.7 7.62993 13.7 7.62872 13.7 7.6275C13.7 7.62629 13.7 7.62508 13.7 7.62386C13.7 7.62265 13.7 7.62144 13.7 7.62022C13.7 7.61901 13.7 7.61779 13.7 7.61658C13.7 7.61537 13.7 7.61415 13.7 7.61294C13.7 7.61172 13.7 7.61051 13.7 7.60929C13.7 7.60808 13.7 7.60686 13.7 7.60565C13.7 7.60443 13.7 7.60322 13.7 7.602C13.7 7.60079 13.7 7.59957 13.7 7.59835C13.7 7.59714 13.7 7.59592 13.7 7.59471C13.7 7.59349 13.7 7.59227 13.7 7.59106C13.7 7.58984 13.7 7.58862 13.7 7.58741C13.7 7.58619 13.7 7.58497 13.7 7.58375C13.7 7.58254 13.7 7.58132 13.7 7.5801C13.7 7.57888 13.7 7.57767 13.7 7.57645C13.7 7.57523 13.7 7.57401 13.7 7.57279C13.7 7.57157 13.7 7.57036 13.7 7.56914C13.7 7.56792 13.7 7.5667 13.7 7.56548C13.7 7.56426 13.7 7.56304 13.7 7.56182C13.7 7.5606 13.7 7.55938 13.7 7.55816C13.7 7.55694 13.7 7.55572 13.7 7.5545C13.7 7.55328 13.7 7.55206 13.7 7.55084C13.7 7.54962 13.7 7.5484 13.7 7.54718C13.7 7.54596 13.7 7.54474 13.7 7.54351C13.7 7.54229 13.7 7.54107 13.7 7.53985C13.7 7.53863 13.7 7.53741 13.7 7.53618C13.7 7.53496 13.7 7.53374 13.7 7.53252C13.7 7.53129 13.7 7.53007 13.7 7.52885C13.7 7.52763 13.7 7.5264 13.7 7.52518C13.7 7.52396 13.7 7.52273 13.7 7.52151C13.7 7.52029 13.7 7.51906 13.7 7.51784C13.7 7.51662 13.7 7.51539 13.7 7.51417C13.7 7.51294 13.7 7.51172 13.7 7.51049C13.7 7.50927 13.7 7.50805 13.7 7.50682C13.7 7.5056 13.7 7.50437 13.7 7.50315C13.7 7.50192 13.7 7.50069 13.7 7.49947C13.7 7.49824 13.7 7.49702 13.7 7.49579C13.7 7.49457 13.7 7.49334 13.7 7.49211C13.7 7.49089 13.7 7.48966 13.7 7.48843C13.7 7.48721 13.7 7.48598 13.7 7.48475C13.7 7.48353 13.7 7.4823 13.7 7.48107C13.7 7.47984 13.7 7.47862 13.7 7.47739C13.7 7.47616 13.7 7.47493 13.7 7.47371C13.7 7.47248 13.7 7.47125 13.7 7.47002C13.7 7.46879 13.7 7.46756 13.7 7.46634C13.7 7.46511 13.7 7.46388 13.7 7.46265C13.7 7.46142 13.7 7.46019 13.7 7.45896C13.7 7.45773 13.7 7.4565 13.7 7.45527C13.7 7.45404 13.7 7.45281 13.7 7.45158C13.7 7.45035 13.7 7.44912 13.7 7.44789C13.7 7.44666 13.7 7.44543 13.7 7.4442C13.7 7.44297 13.7 7.44174 13.7 7.44051C13.7 7.43928 13.7 7.43805 13.7 7.43681C13.7 7.43558 13.7 7.43435 13.7 7.43312C13.7 7.43189 13.7 7.43066 13.7 7.42942C13.7 7.42819 13.7 7.42696 13.7 7.42573C13.7 7.42449 13.7 7.42326 13.7 7.42203C13.7 7.4208 13.7 7.41956 13.7 7.41833C13.7 7.4171 13.7 7.41586 13.7 7.41463C13.7 7.4134 13.7 7.41216 13.7 7.41093C13.7 7.4097 13.7 7.40846 13.7 7.40723C13.7 7.40599 13.7 7.40476 13.7 7.40352C13.7 7.40229 13.7 7.40106 13.7 7.39982C13.7 7.39859 13.7 7.39735 13.7 7.39612C13.7 7.39488 13.7 7.39365 13.7 7.39241C13.7 7.39117 13.7 7.38994 13.7 7.3887C13.7 7.38747 13.7 7.38623 13.7 7.385C13.7 7.38376 13.7 7.38252 13.7 7.38129C13.7 7.38005 13.7 7.37881 13.7 7.37758C13.7 7.37634 13.7 7.3751 13.7 7.37387C13.7 7.37263 13.7 7.37139 13.7 7.37015C13.7 7.36892 13.7 7.36768 13.7 7.36644C13.7 7.3652 13.7 7.36397 13.7 7.36273C13.7 7.36149 13.7 7.36025 13.7 7.35901C13.7 7.35777 13.7 7.35654 13.7 7.3553C13.7 7.35406 13.7 7.35282 13.7 7.35158C13.7 7.35034 13.7 7.3491 13.7 7.34786C13.7 7.34662 13.7 7.34538 13.7 7.34414C13.7 7.3429 13.7 7.34166 13.7 7.34042C13.7 7.33918 13.7 7.33794 13.7 7.3367C13.7 7.33546 13.7 7.33422 13.7 7.33298C13.7 7.33174 13.7 7.3305 13.7 7.32926C13.7 7.32802 13.7 7.32678 13.7 7.32554C13.7 7.32429 13.7 7.32305 13.7 7.32181C13.7 7.32057 13.7 7.31933 13.7 7.31809C13.7 7.31684 13.7 7.3156 13.7 7.31436C13.7 7.31312 13.7 7.31187 13.7 7.31063C13.7 7.30939 13.7 7.30815 13.7 7.3069C13.7 7.30566 13.7 7.30442 13.7 7.30317C13.7 7.30193 13.7 7.30069 13.7 7.29944C13.7 7.2982 13.7 7.29696 13.7 7.29571C13.7 7.29447 13.7 7.29322 13.7 7.29198C13.7 7.29074 13.7 7.28949 13.7 7.28825C13.7 7.287 13.7 7.28576 13.7 7.28451C13.7 7.28327 13.7 7.28202 13.7 7.28078C13.7 7.27953 13.7 7.27829 13.7 7.27704C13.7 7.2758 13.7 7.27455 13.7 7.2733C13.7 7.27206 13.7 7.27081 13.7 7.26957C13.7 7.26832 13.7 7.26707 13.7 7.26583C13.7 7.26458 13.7 7.26333 13.7 7.26209C13.7 7.26084 13.7 7.25959 13.7 7.25835C13.7 7.2571 13.7 7.25585 13.7 7.25461C13.7 7.25336 13.7 7.25211 13.7 7.25086C13.7 7.24962 13.7 7.24837 13.7 7.24712C13.7 7.24587 13.7 7.24462 13.7 7.24338C13.7 7.24213 13.7 7.24088 13.7 7.23963C13.7 7.23838 13.7 7.23713 13.7 7.23588C13.7 7.23463 13.7 7.23339 13.7 7.23214C13.7 7.23089 13.7 7.22964 13.7 7.22839C13.7 7.22714 13.7 7.22589 13.7 7.22464C13.7 7.22339 13.7 7.22214 13.7 7.22089C13.7 7.21964 13.7 7.21839 13.7 7.21714C13.7 7.21589 13.7 7.21464 13.7 7.21339C13.7 7.21214 13.7 7.21088 13.7 7.20963C13.7 7.20838 13.7 7.20713 13.7 7.20588C13.7 7.20463 13.7 7.20338 13.7 7.20213C13.7 7.20087 13.7 7.19962 13.7 7.19837C13.7 7.19712 13.7 7.19587 13.7 7.19461C13.7 7.19336 13.7 7.19211 13.7 7.19086C13.7 7.1896 13.7 7.18835 13.7 7.1871C13.7 7.18584 13.7 7.18459 13.7 7.18334C13.7 7.18209 13.7 7.18083 13.7 7.17958C13.7 7.17833 13.7 7.17707 13.7 7.17582C13.7 7.17456 13.7 7.17331 13.7 7.17206C13.7 7.1708 13.7 7.16955 13.7 7.16829C13.7 7.16704 13.7 7.16578 13.7 7.16453C13.7 7.16327 13.7 7.16202 13.7 7.16077C13.7 7.15951 13.7 7.15825 13.7 7.157C13.7 7.15574 13.7 7.15449 13.7 7.15323C13.7 7.15198 13.7 7.15072 13.7 7.14947C13.7 7.14821 13.7 7.14695 13.7 7.1457C13.7 7.14444 13.7 7.14319 13.7 7.14193C13.7 7.14067 13.7 7.13942 13.7 7.13816C13.7 7.1369 13.7 7.13565 13.7 7.13439C13.7 7.13313 13.7 7.13187 13.7 7.13062C13.7 7.12936 13.7 7.1281 13.7 7.12684C13.7 7.12559 13.7 7.12433 13.7 7.12307C13.7 7.12181 13.7 7.12056 13.7 7.1193C13.7 7.11804 13.7 7.11678 13.7 7.11552C13.7 7.11426 13.7 7.113 13.7 7.11175C13.7 7.11049 13.7 7.10923 13.7 7.10797C13.7 7.10671 13.7 7.10545 13.7 7.10419C13.7 7.10293 13.7 7.10167 13.7 7.10041C13.7 7.09915 13.7 7.09789 13.7 7.09663C13.7 7.09537 13.7 7.09411 13.7 7.09285C13.7 7.09159 13.7 7.09033 13.7 7.08907C13.7 7.08781 13.7 7.08655 13.7 7.08529C13.7 7.08403 13.7 7.08277 13.7 7.08151C13.7 7.08025 13.7 7.07898 13.7 7.07772C13.7 7.07646 13.7 7.0752 13.7 7.07394C13.7 7.07268 13.7 7.07142 13.7 7.07015C13.7 7.06889 13.7 7.06763 13.7 7.06637C13.7 7.0651 13.7 7.06384 13.7 7.06258C13.7 7.06132 13.7 7.06005 13.7 7.05879C13.7 7.05753 13.7 7.05627 13.7 7.055C13.7 7.05374 13.7 7.05248 13.7 7.05121C13.7 7.04995 13.7 7.04869 13.7 7.04742C13.7 7.04616 13.7 7.0449 13.7 7.04363C13.7 7.04237 13.7 7.0411 13.7 7.03984C13.7 7.03858 13.7 7.03731 13.7 7.03605C13.7 7.03478 13.7 7.03352 13.7 7.03225C13.7 7.03099 13.7 7.02972 13.7 7.02846C13.7 7.02719 13.7 7.02593 13.7 7.02466C13.7 7.0234 13.7 7.02213 13.7 7.02087C13.7 7.0196 13.7 7.01833 13.7 7.01707C13.7 7.0158 13.7 7.01454 13.7 7.01327C13.7 7.012 13.7 7.01074 13.7 7.00947C13.7 7.00821 13.7 7.00694 13.7 7.00567C13.7 7.00441 13.7 7.00314 13.7 7.00187C13.7 7.0006 13.7 6.99934 13.7 6.99807C13.7 6.9968 13.7 6.99554 13.7 6.99427C13.7 6.993 13.7 6.99173 13.7 6.99047C13.7 6.9892 13.7 6.98793 13.7 6.98666C13.7 6.98539 13.7 6.98413 13.7 6.98286C13.7 6.98159 13.7 6.98032 13.7 6.97905C13.7 6.97778 13.7 6.97651 13.7 6.97525C13.7 6.97398 13.7 6.97271 13.7 6.97144C13.7 6.97017 13.7 6.9689 13.7 6.96763C13.7 6.96636 13.7 6.96509 13.7 6.96382C13.7 6.96255 13.7 6.96128 13.7 6.96001C13.7 6.95874 13.7 6.95747 13.7 6.9562C13.7 6.95493 13.7 6.95366 13.7 6.95239C13.7 6.95112 13.7 6.94985 13.7 6.94858C13.7 6.94731 13.7 6.94604 13.7 6.94477C13.7 6.9435 13.7 6.94222 13.7 6.94095C13.7 6.93968 13.7 6.93841 13.7 6.93714C13.7 6.93587 13.7 6.9346 13.7 6.93332C13.7 6.93205 13.7 6.93078 13.7 6.92951C13.7 6.92824 13.7 6.92696 13.7 6.92569C13.7 6.92442 13.7 6.92315 13.7 6.92187C13.7 6.9206 13.7 6.91933 13.7 6.91806C13.7 6.91678 13.7 6.91551 13.7 6.91424C13.7 6.91296 13.7 6.91169 13.7 6.91042C13.7 6.90914 13.7 6.90787 13.7 6.9066C13.7 6.90532 13.7 6.90405 13.7 6.90278C13.7 6.9015 13.7 6.90023 13.7 6.89895C13.7 6.89768 13.7 6.89641 13.7 6.89513C13.7 6.89386 13.7 6.89258 13.7 6.89131C13.7 6.89003 13.7 6.88876 13.7 6.88748C13.7 6.88621 13.7 6.88493 13.7 6.88366C13.7 6.88238 13.7 6.88111 13.7 6.87983C13.7 6.87856 13.7 6.87728 13.7 6.876C13.7 6.87473 13.7 6.87345 13.7 6.87218C13.7 6.8709 13.7 6.86963 13.7 6.86835C13.7 6.86707 13.7 6.8658 13.7 6.86452C13.7 6.86324 13.7 6.86197 13.7 6.86069C13.7 6.85941 13.7 6.85814 13.7 6.85686C13.7 6.85558 13.7 6.85431 13.7 6.85303C13.7 6.85175 13.7 6.85047 13.7 6.8492C13.7 6.84792 13.7 6.84664 13.7 6.84536C13.7 6.84409 13.7 6.84281 13.7 6.84153C13.7 6.84025 13.7 6.83897 13.7 6.8377C13.7 6.83642 13.7 6.83514 13.7 6.83386C13.7 6.83258 13.7 6.8313 13.7 6.83003C13.7 6.82875 13.7 6.82747 13.7 6.82619C13.7 6.82491 13.7 6.82363 13.7 6.82235C13.7 6.82107 13.7 6.81979 13.7 6.81851C13.7 6.81723 13.7 6.81595 13.7 6.81468C13.7 6.8134 13.7 6.81212 13.7 6.81084C13.7 6.80956 13.7 6.80828 13.7 6.807C13.7 6.80572 13.7 6.80443 13.7 6.80315C13.7 6.80187 13.7 6.80059 13.7 6.79931C13.7 6.79803 13.7 6.79675 13.7 6.79547C13.7 6.79419 13.7 6.79291 13.7 6.79163C13.7 6.79035 13.7 6.78906 13.7 6.78778C13.7 6.7865 13.7 6.78522 13.7 6.78394C13.7 6.78266 13.7 6.78138 13.7 6.78009C13.7 6.77881 13.7 6.77753 13.7 6.77625C13.7 6.77497 13.7 6.77368 13.7 6.7724C13.7 6.77112 13.7 6.76984 13.7 6.76855C13.7 6.76727 13.7 6.76599 13.7 6.76471C13.7 6.76342 13.7 6.76214 13.7 6.76086C13.7 6.75957 13.7 6.75829 13.7 6.75701C13.7 6.75572 13.7 6.75444 13.7 6.75316C13.7 6.75187 13.7 6.75059 13.7 6.74931C13.7 6.74802 13.7 6.74674 13.7 6.74545C13.7 6.74417 13.7 6.74289 13.7 6.7416C13.7 6.74032 13.7 6.73903 13.7 6.73775C13.7 6.73646 13.7 6.73518 13.7 6.73389C13.7 6.73261 13.7 6.73132 13.7 6.73004C13.7 6.72875 13.7 6.72747 13.7 6.72618C13.7 6.7249 13.7 6.72361 13.7 6.72233C13.7 6.72104 13.7 6.71976 13.7 6.71847C13.7 6.71719 13.7 6.7159 13.7 6.71461C13.7 6.71333 13.7 6.71204 13.7 6.71076C13.7 6.70947 13.7 6.70818 13.7 6.7069C13.7 6.70561 13.7 6.70432 13.7 6.70304C13.7 6.70175 13.7 6.70047 13.7 6.69918C13.7 6.69789 13.7 6.6966 13.7 6.69532C13.7 6.69403 13.7 6.69274 13.7 6.69146C13.7 6.69017 13.7 6.68888 13.7 6.68759C13.7 6.68631 13.7 6.68502 13.7 6.68373C13.7 6.68244 13.7 6.68116 13.7 6.67987C13.7 6.67858 13.7 6.67729 13.7 6.676C13.7 6.67472 13.7 6.67343 13.7 6.67214C13.7 6.67085 13.7 6.66956 13.7 6.66827C13.7 6.66698 13.7 6.6657 13.7 6.66441C13.7 6.66312 13.7 6.66183 13.7 6.66054C13.7 6.65925 13.7 6.65796 13.7 6.65667C13.7 6.65538 13.7 6.65409 13.7 6.6528C13.7 6.65151 13.7 6.65022 13.7 6.64893C13.7 6.64765 13.7 6.64636 13.7 6.64507C13.7 6.64378 13.7 6.64249 13.7 6.6412C13.7 6.6399 13.7 6.63861 13.7 6.63732C13.7 6.63603 13.7 6.63474 13.7 6.63345C13.7 6.63216 13.7 6.63087 13.7 6.62958C13.7 6.62829 13.7 6.627 13.7 6.62571C13.7 6.62442 13.7 6.62313 13.7 6.62183C13.7 6.62054 13.7 6.61925 13.7 6.61796C13.7 6.61667 13.7 6.61538 13.7 6.61409C13.7 6.61279 13.7 6.6115 13.7 6.61021C13.7 6.60892 13.7 6.60763 13.7 6.60633C13.7 6.60504 13.7 6.60375 13.7 6.60246C13.7 6.60116 13.7 6.59987 13.7 6.59858C13.7 6.59729 13.7 6.59599 13.7 6.5947C13.7 6.59341 13.7 6.59212 13.7 6.59082C13.7 6.58953 13.7 6.58824 13.7 6.58694C13.7 6.58565 13.7 6.58436 13.7 6.58306C13.7 6.58177 13.7 6.58048 13.7 6.57918C13.7 6.57789 13.7 6.5766 13.7 6.5753C13.7 6.57401 13.7 6.57271 13.7 6.57142C13.7 6.57013 13.7 6.56883 13.7 6.56754C13.7 6.56624 13.7 6.56495 13.7 6.56365C13.7 6.56236 13.7 6.56106 13.7 6.55977C13.7 6.55848 13.7 6.55718 13.7 6.55589C13.7 6.55459 13.7 6.5533 13.7 6.552C13.7 6.55071 13.7 6.54941 13.7 6.54812C13.7 6.54682 13.7 6.54552 13.7 6.54423C13.7 6.54293 13.7 6.54164 13.7 6.54034C13.7 6.53905 13.7 6.53775 13.7 6.53645C13.7 6.53516 13.7 6.53386 13.7 6.53257C13.7 6.53127 13.7 6.52997 13.7 6.52868C13.7 6.52738 13.7 6.52608 13.7 6.52479C13.7 6.52349 13.7 6.5222 13.7 6.5209C13.7 6.5196 13.7 6.5183 13.7 6.51701C13.7 6.51571 13.7 6.51441 13.7 6.51312C13.7 6.51182 13.7 6.51052 13.7 6.50922C13.7 6.50793 13.7 6.50663 13.7 6.50533C13.7 6.50404 13.7 6.50274 13.7 6.50144C13.7 6.50014 13.7 6.49884 13.7 6.49755C13.7 6.49625 13.7 6.49495 13.7 6.49365C13.7 6.49235 13.7 6.49106 13.7 6.48976C13.7 6.48846 13.7 6.48716 13.7 6.48586C13.7 6.48456 13.7 6.48326 13.7 6.48197C13.7 6.48067 13.7 6.47937 13.7 6.47807C13.7 6.47677 13.7 6.47547 13.7 6.47417C13.7 6.47287 13.7 6.47157 13.7 6.47027C13.7 6.46898 13.7 6.46768 13.7 6.46638C13.7 6.46508 13.7 6.46378 13.7 6.46248C13.7 6.46118 13.7 6.45988 13.7 6.45858C13.7 6.45728 13.7 6.45598 13.7 6.45468C13.7 6.45338 13.7 6.45208 13.7 6.45078C13.7 6.44948 13.7 6.44818 13.7 6.44688C13.7 6.44558 13.7 6.44427 13.7 6.44297C13.7 6.44167 13.7 6.44037 13.7 6.43907C13.7 6.43777 13.7 6.43647 13.7 6.43517C13.7 6.43387 13.7 6.43257 13.7 6.43127C13.7 6.42996 13.7 6.42866 13.7 6.42736C13.7 6.42606 13.7 6.42476 13.7 6.42346C13.7 6.42215 13.7 6.42085 13.7 6.41955C13.7 6.41825 13.7 6.41695 13.7 6.41565C13.7 6.41434 13.7 6.41304 13.7 6.41174C13.7 6.41044 13.7 6.40913 13.7 6.40783C13.7 6.40653 13.7 6.40523 13.7 6.40392C13.7 6.40262 13.7 6.40132 13.7 6.40002C13.7 6.39871 13.7 6.39741 13.7 6.39611C13.7 6.39481 13.7 6.3935 13.7 6.3922C13.7 6.3909 13.7 6.38959 13.7 6.38829C13.7 6.38699 13.7 6.38568 13.7 6.38438C13.7 6.38308 13.7 6.38177 13.7 6.38047C13.7 6.37916 13.7 6.37786 13.7 6.37656C13.7 6.37525 13.7 6.37395 13.7 6.37265C13.7 6.37134 13.7 6.37004 13.7 6.36873C13.7 6.36743 13.7 6.36612 13.7 6.36482C13.7 6.36352 13.7 6.36221 13.7 6.36091C13.7 6.3596 13.7 6.3583 13.7 6.35699C13.7 6.35569 13.7 6.35438 13.7 6.35308C13.7 6.35177 13.7 6.35047 13.7 6.34916C13.7 6.34786 13.7 6.34655 13.7 6.34525C13.7 6.34394 13.7 6.34264 13.7 6.34133C13.7 6.34003 13.7 6.33872 13.7 6.33741C13.7 6.33611 13.7 6.3348 13.7 6.3335H12.3ZM1.7 8.23221C1.7 7.64764 1.7 7.00208 1.7 6.3335H0.3C0.3 7.00208 0.3 7.64764 0.3 8.23221H1.7ZM10.2974 10.4602C9.20497 10.5534 7.97827 10.6335 7 10.6335V12.0335C8.03907 12.0335 9.31322 11.9493 10.4165 11.8551L10.2974 10.4602ZM7 10.6335C6.02173 10.6335 4.79503 10.5534 3.70256 10.4602L3.58355 11.8551C4.68678 11.9493 5.96093 12.0335 7 12.0335V10.6335ZM0.3 8.23221C0.3 10.0981 1.69585 11.6941 3.58355 11.8551L3.70256 10.4602C2.56772 10.3634 1.7 9.39988 1.7 8.23221H0.3ZM12.3 8.23221C12.3 9.39988 11.4323 10.3634 10.2974 10.4602L10.4165 11.8551C12.3041 11.6941 13.7 10.0981 13.7 8.23221H12.3Z" fill="white"/>
</svg>
