<svg width="20" height="16" viewBox="0 0 20 16" fill="none" xmlns="http://www.w3.org/2000/svg">
<path fill-rule="evenodd" clip-rule="evenodd" d="M0.100098 15.0001C0.100098 14.503 0.503041 14.1001 1.0001 14.1001H19.0001C19.4972 14.1001 19.9001 14.503 19.9001 15.0001C19.9001 15.4972 19.4972 15.9001 19.0001 15.9001H1.0001C0.503041 15.9001 0.100098 15.4972 0.100098 15.0001Z" fill="white"/>
<path fill-rule="evenodd" clip-rule="evenodd" d="M14.5001 1.9001C14.003 1.9001 13.6001 1.49715 13.6001 1.0001C13.6001 0.503041 14.003 0.100098 14.5001 0.100098H19.0001C19.4972 0.100098 19.9001 0.503041 19.9001 1.0001V5.5001C19.9001 5.99715 19.4972 6.4001 19.0001 6.4001C18.503 6.4001 18.1001 5.99715 18.1001 5.5001V3.17289L12.1365 9.13649C11.785 9.48797 11.2152 9.48797 10.8637 9.13649L7.5001 5.77289L1.63649 11.6365C1.28502 11.988 0.715173 11.988 0.363702 11.6365C0.0122297 11.285 0.0122297 10.7152 0.363702 10.3637L6.8637 3.8637C7.21517 3.51223 7.78502 3.51223 8.13649 3.8637L11.5001 7.22731L16.8273 1.9001H14.5001Z" fill="white"/>
</svg>
