<svg width="20" height="16" viewBox="0 0 20 16" fill="none" xmlns="http://www.w3.org/2000/svg">
<path fill-rule="evenodd" clip-rule="evenodd" d="M15.7952 0.100098C16.9471 0.100098 17.5344 0.213501 18.1456 0.540382C18.7098 0.842145 19.1581 1.29035 19.4598 1.8546C19.7616 2.4188 19.8814 2.96258 19.898 3.94889L19.9001 4.20495V11.7952L19.898 12.0513C19.8814 13.0376 19.7616 13.5814 19.4598 14.1456C19.1581 14.7098 18.7098 15.1581 18.1456 15.4598L18.0047 15.5315C17.4407 15.8035 16.8585 15.9001 15.7952 15.9001H4.20495C3.14167 15.9001 2.5595 15.8035 1.99549 15.5315L1.8546 15.4598C1.29035 15.1581 0.842145 14.7098 0.540382 14.1456C0.238645 13.5814 0.118808 13.0376 0.102156 12.0513L0.100098 11.7952V4.20495C0.100098 3.05307 0.213501 2.46582 0.540382 1.8546C0.842145 1.29035 1.29035 0.842145 1.8546 0.540382C2.4188 0.238645 2.96258 0.118808 3.94889 0.102156L4.20495 0.100098H15.7952ZM18.0991 5.9001L18.1001 11.7952C18.1001 12.6754 18.0409 12.9819 17.8725 13.2967C17.7385 13.5473 17.5473 13.7385 17.2967 13.8725C17.0061 14.028 16.7226 14.0903 15.9884 14.099L15.7952 14.1001H4.20495L4.01176 14.099C3.27759 14.0903 2.99406 14.028 2.70348 13.8725C2.45291 13.7385 2.26165 13.5473 2.12765 13.2967C1.95929 12.9819 1.9001 12.6754 1.9001 11.7952L1.8991 5.9001H18.0991ZM4.20495 1.9001H15.7952L15.9884 1.90117C16.7226 1.90985 17.0061 1.97224 17.2967 2.12765C17.5473 2.26165 17.7385 2.45291 17.8725 2.70348C18.028 2.99406 18.0903 3.27759 18.099 4.01176L18.0981 4.1001H1.9001L1.90117 4.01176C1.90985 3.27759 1.97224 2.99406 2.12765 2.70348C2.26165 2.45291 2.45291 2.26165 2.70348 2.12765C3.01828 1.95929 3.3248 1.9001 4.20495 1.9001Z" fill="white"/>
<path d="M4.00009 10.8001C4.00009 10.5201 4.00009 10.3801 4.05459 10.2731C4.10253 10.179 4.17902 10.1026 4.2731 10.0546C4.38005 10.0001 4.52007 10.0001 4.80009 10.0001H5.20009C5.48012 10.0001 5.62013 10.0001 5.72709 10.0546C5.82117 10.1026 5.89766 10.179 5.94559 10.2731C6.00009 10.3801 6.00009 10.5201 6.00009 10.8001V11.2001C6.00009 11.4801 6.00009 11.6202 5.94559 11.7271C5.89766 11.8212 5.82117 11.8977 5.72709 11.9456C5.62013 12.0001 5.48012 12.0001 5.20009 12.0001H4.80009C4.52007 12.0001 4.38005 12.0001 4.2731 11.9456C4.17902 11.8977 4.10253 11.8212 4.05459 11.7271C4.00009 11.6202 4.00009 11.4801 4.00009 11.2001V10.8001Z" fill="white"/>
</svg>
