<svg width="24" height="24" viewBox="0 0 24 24" fill="none" xmlns="http://www.w3.org/2000/svg">
<g opacity="0.9" clip-path="url(#clip0_96_1508)">
<path d="M6.84375 0.0749998C6.675 0.187499 1.70625 5.14687 1.54219 5.3625C1.45312 5.48438 1.40625 5.60156 1.40625 5.71406C1.40625 5.87344 1.60781 6.08437 5.99062 10.4625L10.5703 15.0469H10.7812H10.9922L13.4297 12.6094L15.8672 10.1719H16.2703C16.9172 10.1719 17.5219 9.96562 18.1125 9.54375C18.4078 9.33281 18.9516 8.79375 19.0969 8.56406L19.1812 8.4375H21.4031C23.7844 8.4375 23.8078 8.43281 23.9344 8.19844C24.0328 8.00156 24.0328 2.02969 23.9344 1.83281C23.8125 1.60312 23.7375 1.59375 22.1016 1.59375H20.5828L20.4516 1.70625C20.3391 1.80469 20.3156 1.86094 20.2969 2.14219L20.2734 2.46094L19.5141 2.475L18.7547 2.48437L18.6375 2.62969C18.5625 2.71406 18.5156 2.83125 18.5156 2.91562V3.06094L18.2484 3.03281C17.8266 2.98594 17.5078 2.85469 16.6312 2.3625C15.5719 1.76719 14.1281 1.05937 13.6875 0.91875C13.1672 0.749999 12.5297 0.689062 12.0187 0.749999C11.5875 0.801562 11.4141 0.857812 9.91406 1.40156L9.02344 1.725L8.20312 0.914062C7.75312 0.468749 7.33594 0.0796871 7.27969 0.0515623C7.13437 -0.0234385 6.975 -0.0140629 6.84375 0.0749998ZM7.60312 1.67344C7.88437 1.95 8.10937 2.19375 8.10937 2.20781C8.10937 2.22656 7.99687 2.2875 7.86562 2.34844C7.65 2.44687 7.54687 2.46094 7.07812 2.46094C6.60937 2.46094 6.50625 2.44687 6.29531 2.34844C6.15937 2.2875 6.04687 2.22656 6.04687 2.20781C6.04687 2.175 7.04062 1.17187 7.07812 1.17187C7.0875 1.17187 7.32656 1.39687 7.60312 1.67344ZM13.2562 1.76719C13.575 1.84687 15.2906 2.67187 16.0781 3.12656C17.0859 3.70781 17.4797 3.86719 18.1172 3.96094L18.4922 4.0125L18.5062 5.88281L18.5156 7.75312L18.3422 8.00625C18.075 8.39531 17.6109 8.79375 17.1656 9.01406C16.7906 9.19687 16.7391 9.21094 16.2891 9.225C15.4125 9.25781 14.7609 9 14.1328 8.3625L13.7578 7.9875L12.7734 7.65469C9.9375 6.69844 9.80156 6.64687 9.58125 6.45469C9.34687 6.24844 9.25781 6.10312 9.21094 5.85469C9.14531 5.49844 9.39844 5.03437 9.73594 4.89375C10.0453 4.7625 10.2469 4.80469 12.4547 5.50781C13.6359 5.88281 14.6578 6.1875 14.7328 6.1875C14.9437 6.1875 15.1406 5.9625 15.1406 5.71875C15.1406 5.41406 15.0328 5.34375 14.0812 5.03906C13.6219 4.89375 12.8531 4.65 12.375 4.49531L11.5078 4.21875L10.6266 3.3375L9.74531 2.45625L9.99375 2.37187C10.1297 2.32031 10.575 2.16094 10.9828 2.01094C11.3906 1.86094 11.8547 1.71562 12.0141 1.69219C12.3656 1.63594 12.8578 1.66875 13.2562 1.76719ZM23.0625 5.01562V7.5H22.1484H21.2344V5.01562V2.53125H22.1484H23.0625V5.01562ZM5.61094 3.04219C5.99531 3.28125 6.38906 3.38437 6.96094 3.4125C7.575 3.43594 8.03906 3.33281 8.52656 3.06094L8.82187 2.89687L9.30937 3.37969C9.76875 3.83906 9.79219 3.87187 9.69375 3.90937C9.06094 4.1625 8.84531 4.3125 8.59219 4.67344C8.47031 4.85156 8.38594 4.92656 8.27812 4.94531C7.93125 5.02031 7.36406 5.34375 7.06875 5.64375C6.54844 6.15937 6.28125 6.80625 6.28125 7.5375C6.28125 8.24531 6.50625 8.83125 6.975 9.33281C8.05312 10.4953 9.7875 10.5 10.8891 9.3375C11.1328 9.07969 11.4844 8.475 11.4844 8.31094C11.4844 8.21719 11.5406 8.23125 12.3375 8.49375L13.0781 8.7375L13.05 9.1875C13.0125 9.77344 13.1062 10.2094 13.3734 10.7437L13.5797 11.1469L13.0594 11.6672L12.5391 12.1828L12.1172 11.9719C11.2125 11.5219 10.2609 11.5312 9.37969 12.0047L9.02812 12.1922L6.64687 9.81094L4.27031 7.42969L4.40625 7.20469C4.48594 7.08281 4.60312 6.82031 4.67344 6.61875C4.78594 6.30469 4.8 6.18281 4.80469 5.69531C4.80469 5.05312 4.70625 4.65937 4.42969 4.21406L4.275 3.96094L4.8 3.43125C5.08594 3.14531 5.33437 2.90625 5.35312 2.90625C5.37187 2.90625 5.48437 2.96719 5.61094 3.04219ZM20.2969 5.46094V7.5H19.875H19.4531V5.46094V3.42188H19.875H20.2969V5.46094ZM3.79687 5.1C3.94687 5.57812 3.89531 6.19219 3.675 6.61875L3.6 6.76406L3.06562 6.22969L2.53125 5.69531L3.05625 5.16562C3.65625 4.56562 3.63281 4.57031 3.79687 5.1ZM8.31094 6.12656C8.38125 6.56719 8.79375 7.11094 9.25781 7.3875C9.38437 7.4625 9.74531 7.6125 10.0547 7.71562C10.6875 7.93594 10.6734 7.9125 10.4625 8.33437C10.3031 8.6625 9.91875 9.00937 9.57187 9.14531C9.20156 9.29062 8.65781 9.29062 8.2875 9.14531C7.93594 9.00937 7.60312 8.7 7.40156 8.33437C7.24687 8.05312 7.24219 8.02031 7.24219 7.54687C7.24219 6.96094 7.32187 6.74531 7.66875 6.37031C7.86094 6.16875 8.15156 5.9625 8.25469 5.95312C8.27344 5.95312 8.29687 6.03281 8.31094 6.12656ZM14.2453 9.65625C14.3672 9.73594 14.5406 9.82031 14.6203 9.84844C14.7 9.87656 14.7656 9.91406 14.7656 9.93281C14.7656 9.95156 14.6531 10.0734 14.5172 10.2094L14.2687 10.4531L14.1844 10.2797C14.0484 10.0031 13.9266 9.51562 13.9922 9.51562C14.0062 9.51562 14.1187 9.58125 14.2453 9.65625ZM11.475 12.7031C11.6203 12.7547 11.7562 12.8156 11.7844 12.8438C11.8172 12.8766 11.6672 13.0594 11.3062 13.4203L10.7812 13.9453L10.2656 13.4297C9.98437 13.1484 9.75 12.9 9.75 12.8812C9.75 12.8297 10.0641 12.6984 10.3594 12.6281C10.6781 12.5484 11.1281 12.5812 11.475 12.7031Z" fill="white"/>
<path d="M16.0547 5.92513C15.9047 6.07512 15.8672 6.24856 15.9376 6.42669C16.0688 6.73606 16.4485 6.80637 16.6922 6.56731C16.8704 6.3845 16.8751 6.1595 16.7063 5.95794C16.6032 5.83606 16.5516 5.81263 16.3782 5.81263C16.2188 5.81263 16.1391 5.84075 16.0547 5.92513Z" fill="white"/>
<path d="M7.04062 14.6204C6.33281 14.8173 5.59687 15.3048 5.08594 15.9282L4.82344 16.2423L2.55 16.2657L0.271875 16.2891L0.135937 16.4438L0 16.5985L0.009375 19.7391L0.0234375 22.8845L0.154687 22.997L0.285937 23.1095H1.87031H3.45469L3.58125 22.9876C3.68906 22.8798 3.70312 22.8235 3.70312 22.5657V22.2657H4.40625C5.31094 22.2657 5.48437 22.1907 5.48437 21.797V21.647L5.73281 21.6798C6.18281 21.7407 6.53437 21.886 7.28906 22.3173C8.25469 22.8657 9.91875 23.6813 10.3172 23.8032C11.0766 24.0376 11.9016 24.0516 12.5906 23.8407C12.7922 23.7798 14.025 23.3485 15.3281 22.8798C16.6312 22.411 18.2859 21.8157 19.0078 21.5579C20.4609 21.0376 20.6719 20.9391 21.0281 20.611C21.7406 19.9641 21.8906 19.111 21.4406 18.286C21.0937 17.6391 20.3203 17.2782 19.5328 17.3907C19.3734 17.4141 18.4406 17.6579 17.4656 17.9298C16.4859 18.2016 15.6797 18.4219 15.675 18.4219C15.6656 18.4219 15.5953 18.2954 15.5109 18.1407C15.3375 17.8173 14.9203 17.4048 14.6156 17.2594C14.4 17.1516 13.2937 16.7673 11.7328 16.2469L10.7859 15.9329L10.4344 15.5954C9.72656 14.911 8.9625 14.5923 7.92187 14.5501C7.48125 14.536 7.31719 14.5454 7.04062 14.6204ZM8.41406 15.5391C8.59687 15.5766 8.91562 15.6938 9.12656 15.7969C9.43125 15.9469 9.57187 16.0548 9.84375 16.3454L10.1812 16.7063L12.1594 17.3766C13.3922 17.7985 14.2031 18.0985 14.3203 18.1782C14.5734 18.3563 14.7609 18.6376 14.7937 18.9001C14.8359 19.2141 14.6484 19.5938 14.3766 19.7532C13.9781 19.9876 14.0203 19.9969 11.5641 19.2188C9.98437 18.7173 9.28594 18.5157 9.20625 18.5345C9 18.586 8.85937 18.7688 8.85937 18.9798C8.85937 19.3454 8.84062 19.3407 11.2969 20.1188C13.3969 20.7891 13.5422 20.8266 13.8984 20.8266C14.7 20.8266 15.3797 20.3438 15.6328 19.5985L15.7031 19.3829L17.3109 18.9423C19.8797 18.2298 19.7203 18.2673 20.0062 18.3235C20.3437 18.3891 20.5219 18.5298 20.6578 18.8344C20.8687 19.2845 20.7234 19.7063 20.25 20.0438C20.0953 20.1516 19.0359 20.5501 16.4062 21.4923C14.4094 22.2095 12.6281 22.847 12.4453 22.9126C12.1641 23.0157 12.0375 23.0345 11.5781 23.0345C11.2078 23.0345 10.9453 23.011 10.7344 22.9548C10.3687 22.8516 8.64375 22.0079 7.66406 21.4501C6.89062 21.0094 6.45469 20.8407 5.87344 20.761L5.48437 20.7048V18.8251V16.9454L5.72344 16.6266C5.98125 16.2845 6.39375 15.9282 6.75 15.7313C7.21875 15.4735 7.79531 15.4079 8.41406 15.5391ZM2.76562 19.6876V22.172H1.85156H0.9375V19.6876V17.2032H1.85156H2.76562V19.6876ZM4.54687 19.2657V21.3329L4.13906 21.3188L3.72656 21.3048L3.7125 19.3126C3.70781 18.2157 3.7125 17.2923 3.72656 17.2594C3.74062 17.222 3.87187 17.2032 4.14844 17.2032H4.54687V19.2657Z" fill="white"/>
<path d="M7.3078 18.1361C6.98905 18.4548 7.2703 18.9986 7.70623 18.9189C7.93123 18.8767 8.08592 18.6939 8.08592 18.4595C8.08592 18.3048 8.05779 18.2486 7.93123 18.1361C7.72498 17.9486 7.4953 17.9486 7.3078 18.1361Z" fill="white"/>
</g>
<defs>
<clipPath id="clip0_96_1508">
<rect width="24" height="24" fill="white"/>
</clipPath>
</defs>
</svg>
