<svg width="18" height="20" viewBox="0 0 18 20" fill="none" xmlns="http://www.w3.org/2000/svg">
<path fill-rule="evenodd" clip-rule="evenodd" d="M13.0001 0.5C13.4972 0.5 13.9001 0.902944 13.9001 1.4V2.19126C14.4325 2.25787 14.9121 2.37803 15.3612 2.60686C16.2361 3.05267 16.9475 3.76403 17.3933 4.63898C17.6731 5.18809 17.7904 5.78278 17.846 6.46376C17.9001 7.12585 17.9001 7.94407 17.9001 8.96134V13.0387C17.9001 14.056 17.9001 14.8742 17.846 15.5363C17.7904 16.2173 17.6731 16.812 17.3933 17.3611C16.9475 18.236 16.2361 18.9474 15.3612 19.3932C14.812 19.673 14.2174 19.7903 13.5364 19.846C12.8743 19.9001 12.0561 19.9 11.0388 19.9H6.9614C5.94413 19.9 5.12591 19.9001 4.46382 19.846C3.78284 19.7903 3.18815 19.673 2.63904 19.3932C1.76409 18.9474 1.05273 18.236 0.606918 17.3611C0.327135 16.812 0.209816 16.2173 0.154178 15.5363C0.100082 14.8742 0.100089 14.056 0.100098 13.0387V8.96134C0.100089 7.94407 0.100082 7.12585 0.154178 6.46376C0.209816 5.78278 0.327135 5.18809 0.606918 4.63898C1.05273 3.76403 1.76409 3.05267 2.63904 2.60686C3.08814 2.37803 3.56774 2.25788 4.1001 2.19126V1.4C4.1001 0.902944 4.50304 0.5 5.0001 0.5C5.49715 0.5 5.9001 0.902944 5.9001 1.4V2.10287C6.22743 2.10003 6.58042 2.10003 6.96131 2.10004H6.9614H11.0388H11.0389C11.4198 2.10003 11.7728 2.10003 12.1001 2.10287V1.4C12.1001 0.902944 12.503 0.5 13.0001 0.5ZM4.1001 4.01069V4.6C4.1001 5.09706 4.50304 5.5 5.0001 5.5C5.49715 5.5 5.9001 5.09706 5.9001 4.6V3.903C6.22493 3.90014 6.5886 3.90004 7.0001 3.90004H11.0001C11.4116 3.90004 11.7753 3.90014 12.1001 3.903V4.6C12.1001 5.09706 12.503 5.5 13.0001 5.5C13.4972 5.5 13.9001 5.09706 13.9001 4.6V4.01069C14.1784 4.0596 14.3781 4.12613 14.544 4.21067C15.0802 4.48391 15.5162 4.9199 15.7895 5.45616C15.9184 5.70923 16.0055 6.04067 16.052 6.61033C16.0848 7.01124 16.0952 7.49065 16.0985 8.10004H1.90166C1.90499 7.49065 1.91544 7.01124 1.9482 6.61033C1.99474 6.04067 2.08179 5.70923 2.21073 5.45616C2.48397 4.9199 2.91996 4.48391 3.45622 4.21067C3.62214 4.12613 3.82175 4.0596 4.1001 4.01069ZM1.9001 9.90004H16.1001V13C16.1001 14.065 16.0994 14.8096 16.052 15.3897C16.0055 15.9594 15.9184 16.2908 15.7895 16.5439C15.5162 17.0802 15.0802 17.5162 14.544 17.7894C14.2909 17.9183 13.9595 18.0054 13.3898 18.0519C12.8096 18.0993 12.065 18.1 11.0001 18.1H7.0001C5.93515 18.1 5.19056 18.0993 4.61039 18.0519C4.04073 18.0054 3.70929 17.9183 3.45622 17.7894C2.91996 17.5162 2.48397 17.0802 2.21073 16.5439C2.08179 16.2908 1.99474 15.9594 1.9482 15.3897C1.9008 14.8096 1.9001 14.065 1.9001 13V9.90004ZM12.5001 16C13.3285 16 14.0001 15.3284 14.0001 14.5C14.0001 13.6716 13.3285 13 12.5001 13C11.6717 13 11.0001 13.6716 11.0001 14.5C11.0001 15.3284 11.6717 16 12.5001 16Z" fill="white"/>
</svg>
