<svg width="20" height="20" viewBox="0 0 20 20" fill="none" xmlns="http://www.w3.org/2000/svg">
<path d="M16.6668 11.558V11.6665C16.6668 14.1588 16.6668 15.405 16.1309 16.3332C15.7799 16.9412 15.2749 17.4462 14.6668 17.7973C13.7386 18.3332 13.1433 18.3332 11.9528 18.3332C8.15873 18.3332 6.2617 18.3332 5.3335 17.7973C4.72542 17.4462 4.22047 16.9412 3.86939 16.3332C3.3335 15.405 3.3335 14.1588 3.3335 11.6665V11.558C3.3335 10.2631 3.3335 9.6157 3.52199 9.02362C3.6322 8.67745 3.78905 8.3479 3.98823 8.04407C4.32888 7.52442 4.83136 7.11616 5.8363 6.29964L5.83631 6.29964L10.0002 2.9165L14.164 6.29964L14.164 6.29965C15.169 7.11616 15.6714 7.52442 16.0121 8.04407C16.2113 8.3479 16.3681 8.67745 16.4783 9.02362C16.6668 9.6157 16.6668 10.2631 16.6668 11.558Z" stroke="#222628" stroke-linecap="round"/>
<line x1="0.5" y1="-0.5" x2="11.5977" y2="-0.5" transform="matrix(-0.757719 0.652581 -0.757719 -0.652581 10 1.6665)" stroke="#222628" stroke-linecap="round"/>
<line x1="0.5" y1="-0.5" x2="11.5977" y2="-0.5" transform="matrix(0.757719 0.652581 0.757719 -0.652581 10 1.6665)" stroke="#222628" stroke-linecap="round"/>
<line x1="8" y1="15.2017" x2="11.5833" y2="15.2017" stroke="#222628" stroke-linecap="round"/>
</svg>
