<svg width="20" height="20" viewBox="0 0 20 20" fill="none" xmlns="http://www.w3.org/2000/svg">
<g opacity="0.9">
<path d="M13.5156 2.56272C11.5156 3.23459 9.83594 3.82053 9.78125 3.85178C9.73438 3.89084 9.6875 4.00022 9.6875 4.10178C9.6875 4.53147 9.78906 4.50803 13.5938 3.2424C15.5859 2.57834 17.2344 2.0549 17.2656 2.07053C17.2969 2.08615 17.4844 2.60178 17.6953 3.20334C18.0625 4.29709 18.2031 4.50803 18.4688 4.40647C18.7109 4.31272 18.6797 4.01584 18.2813 2.85178C17.8672 1.63303 17.6719 1.32053 17.3203 1.33615C17.2266 1.33615 15.5156 1.89084 13.5156 2.56272Z" fill="#222628"/>
<path d="M0.226562 5.22656L0 5.45312V10V14.5469L0.226562 14.7734L0.453125 15H10H19.5469L19.7734 14.7734L20 14.5469V10V5.45312L19.7734 5.22656L19.5469 5H12.5469C6.29688 5 5.54688 5.01562 5.4375 5.125C5.26562 5.28906 5.28125 5.4375 5.48438 5.57812C5.61719 5.67188 5.875 5.70312 6.625 5.70312H7.59375L7.17188 6.04688C6.07031 6.94531 5.32031 8.54688 5.32031 10C5.32031 11.4531 6.07031 13.0547 7.17188 13.9531L7.59375 14.2969H4.14844H0.703125V10V5.70312H2.35156C3.33594 5.70312 4.05469 5.67188 4.14844 5.625C4.3125 5.53125 4.34375 5.23438 4.20312 5.09375C4.13281 5.02344 3.60156 5 2.28125 5H0.453125L0.226562 5.22656ZM11.1172 5.85938C13.5547 6.61719 14.7344 9.71875 13.4766 12.1016C12.7344 13.5 11.4766 14.2969 10 14.2969C8.52344 14.2969 7.26562 13.5 6.52344 12.1016C5.28125 9.74219 6.39844 6.71094 8.8125 5.88281C9.5 5.64844 10.4062 5.64062 11.1172 5.85938ZM19.2969 10V14.2969H15.8516H12.4062L12.8281 13.9531C13.5938 13.3281 14.2266 12.3438 14.5 11.3203C14.6875 10.6484 14.6875 9.35156 14.5 8.67969C14.2266 7.65625 13.5938 6.67188 12.8281 6.04688L12.4062 5.70312H15.8516H19.2969V10Z" fill="#222628"/>
<path d="M9.7107 7.18751C9.68726 7.27344 9.55445 7.37501 9.40602 7.42188C8.45289 7.74219 8.05445 8.92188 8.64039 9.67188C8.76539 9.82813 9.05445 10.0469 9.28102 10.1563L9.68726 10.3516V11.1484C9.68726 11.6719 9.65601 11.9531 9.60133 11.9531C9.44508 11.9531 9.06227 11.5 9.01539 11.2578C8.95289 10.9609 8.81227 10.8359 8.57789 10.875C8.42945 10.8906 8.39039 10.9531 8.37477 11.1875C8.32789 11.7266 8.81227 12.3828 9.40602 12.5781C9.55445 12.625 9.68726 12.7266 9.7107 12.8125C9.76539 13.0312 10.2341 13.0312 10.2888 12.8125C10.3123 12.7266 10.4451 12.625 10.5935 12.5781C11.1795 12.3828 11.6404 11.7656 11.6404 11.1719C11.6404 10.5781 11.1795 9.96094 10.5857 9.76563L10.3123 9.67188V8.85938C10.3123 8.32813 10.3435 8.04688 10.3982 8.04688C10.5545 8.04688 10.9373 8.5 10.9841 8.74219C11.0466 9.03907 11.1873 9.16407 11.4216 9.125C11.5701 9.10938 11.6091 9.04688 11.6248 8.8125C11.6716 8.27344 11.1873 7.61719 10.5935 7.42188C10.4451 7.37501 10.3123 7.27344 10.2888 7.18751C10.2576 7.07032 10.1795 7.03126 9.99976 7.03126C9.82008 7.03126 9.74195 7.07032 9.7107 7.18751ZM9.68726 8.82813C9.68726 9.25782 9.65601 9.60938 9.61695 9.60938C9.57789 9.60938 9.43726 9.52344 9.31227 9.41407C9.01539 9.16407 8.93727 8.83594 9.09352 8.52344C9.2107 8.30469 9.49195 8.04688 9.62476 8.04688C9.66383 8.04688 9.68726 8.39844 9.68726 8.82813ZM10.6873 10.5859C10.9841 10.8359 11.0623 11.1641 10.906 11.4766C10.7888 11.6953 10.5076 11.9531 10.3748 11.9531C10.3357 11.9531 10.3123 11.6016 10.3123 11.1719C10.3123 10.7422 10.3435 10.3906 10.3826 10.3906C10.4216 10.3906 10.5623 10.4766 10.6873 10.5859Z" fill="#222628"/>
<path d="M16.7655 6.4532C16.6015 6.60945 16.6093 6.68758 16.7968 6.87508C16.9218 7.00008 17.0546 7.03133 17.4609 7.03133H17.9687V7.53914C17.9687 7.94539 17.9999 8.07821 18.1249 8.20321C18.3124 8.39071 18.3905 8.39852 18.5468 8.23446C18.6405 8.14071 18.6718 7.93758 18.6718 7.34383C18.6718 6.33602 18.664 6.3282 17.6562 6.3282C17.0624 6.3282 16.8593 6.35945 16.7655 6.4532Z" fill="#222628"/>
<path d="M18.1249 11.7969C17.9999 11.9219 17.9687 12.0547 17.9687 12.4609V12.9688H17.4609C17.0546 12.9688 16.9218 13 16.7968 13.125C16.6093 13.3125 16.6015 13.3906 16.7655 13.5469C16.8593 13.6406 17.0624 13.6719 17.6562 13.6719C18.664 13.6719 18.6718 13.6641 18.6718 12.6563C18.6718 12.0625 18.6405 11.8594 18.5468 11.7656C18.3905 11.6016 18.3124 11.6094 18.1249 11.7969Z" fill="#222628"/>
<path d="M1.45313 6.4532C1.27344 6.62508 1.27344 8.06258 1.45313 8.23446C1.60938 8.39852 1.6875 8.39071 1.875 8.20321C2 8.07821 2.03125 7.94539 2.03125 7.53914V7.03133H2.53906C2.94531 7.03133 3.07813 7.00008 3.20313 6.87508C3.39063 6.68758 3.39844 6.60945 3.23438 6.4532C3.14063 6.35945 2.9375 6.3282 2.34375 6.3282C1.75 6.3282 1.54688 6.35945 1.45313 6.4532Z" fill="#222628"/>
<path d="M1.45313 11.7656C1.27344 11.9375 1.27344 13.375 1.45313 13.5469C1.625 13.7266 3.0625 13.7266 3.23438 13.5469C3.39844 13.3906 3.39063 13.3125 3.20313 13.125C3.07813 13 2.94531 12.9688 2.53906 12.9688H2.03125V12.4609C2.03125 12.0547 2 11.9219 1.875 11.7969C1.6875 11.6094 1.60938 11.6016 1.45313 11.7656Z" fill="#222628"/>
<path d="M1.45312 15.6719C1.38281 15.7344 1.32812 15.8359 1.32812 15.8828C1.32812 15.9375 1.50781 16.5156 1.72656 17.1641C2.13281 18.3828 2.3125 18.6719 2.66406 18.6719C2.84375 18.6719 10.0781 16.2578 10.2188 16.1484C10.2656 16.1094 10.3125 15.9922 10.3125 15.8906C10.3125 15.4688 10.2031 15.4922 6.39844 16.7578C4.40625 17.4219 2.75781 17.9375 2.72656 17.9063C2.69531 17.875 2.50781 17.375 2.30469 16.7969C1.89844 15.6016 1.73438 15.3828 1.45312 15.6719Z" fill="#222628"/>
</g>
</svg>
