<svg width="24" height="27" viewBox="0 0 24 27" fill="none" xmlns="http://www.w3.org/2000/svg">
<path d="M6.84375 0.0836163C6.675 0.208765 1.70625 5.72572 1.54219 5.96559C1.45312 6.10116 1.40625 6.23153 1.40625 6.35668C1.40625 6.53397 1.60781 6.76862 5.99062 11.639L10.5703 16.7388H10.7812H10.9922L13.4297 14.0272L15.8672 11.3157H16.2703C16.9172 11.3157 17.5219 11.0862 18.1125 10.6169C18.4078 10.3823 18.9516 9.78261 19.0969 9.5271L19.1812 9.38631H21.4031C23.7844 9.38631 23.8078 9.38109 23.9344 9.12037C24.0328 8.90136 24.0328 2.25807 23.9344 2.03906C23.8125 1.78355 23.7375 1.77312 22.1016 1.77312H20.5828L20.4516 1.89827C20.3391 2.00777 20.3156 2.07035 20.2969 2.38322L20.2734 2.7378L19.5141 2.75345L18.7547 2.76388L18.6375 2.92553C18.5625 3.01939 18.5156 3.14975 18.5156 3.24361V3.40526L18.2484 3.37397C17.8266 3.32183 17.5078 3.17582 16.6312 2.6283C15.5719 1.96606 14.1281 1.17867 13.6875 1.02223C13.1672 0.834507 12.5297 0.766718 12.0187 0.834507C11.5875 0.891867 11.4141 0.954441 9.91406 1.55932L9.02344 1.91913L8.20312 1.01701C7.75312 0.521637 7.33594 0.0888309 7.27969 0.0575447C7.13437 -0.0258884 6.975 -0.0154591 6.84375 0.0836163ZM7.60312 1.86177C7.88437 2.16942 8.10937 2.44058 8.10937 2.45622C8.10937 2.47708 7.99687 2.54487 7.86562 2.61266C7.65 2.72216 7.54687 2.7378 7.07812 2.7378C6.60937 2.7378 6.50625 2.72216 6.29531 2.61266C6.15937 2.54487 6.04687 2.47708 6.04687 2.45622C6.04687 2.41972 7.04062 1.30381 7.07812 1.30381C7.0875 1.30381 7.32656 1.55411 7.60312 1.86177ZM13.2562 1.96606C13.575 2.0547 15.2906 2.97246 16.0781 3.47826C17.0859 4.12486 17.4797 4.30216 18.1172 4.40645L18.4922 4.46381L18.5062 6.5444L18.5156 8.62499L18.3422 8.90657C18.075 9.33938 17.6109 9.78261 17.1656 10.0277C16.7906 10.2311 16.7391 10.2467 16.2891 10.2623C15.4125 10.2988 14.7609 10.012 14.1328 9.30288L13.7578 8.88571L12.7734 8.51548C9.9375 7.45172 9.80156 7.39436 9.58125 7.18057C9.34687 6.95113 9.25781 6.78948 9.21094 6.51311C9.14531 6.11681 9.39844 5.60057 9.73594 5.44414C10.0453 5.29813 10.2469 5.34506 12.4547 6.12724C13.6359 6.5444 14.6578 6.88334 14.7328 6.88334C14.9437 6.88334 15.1406 6.63304 15.1406 6.36189C15.1406 6.02295 15.0328 5.94473 14.0812 5.60579C13.6219 5.44414 12.8531 5.17298 12.375 5.0009L11.5078 4.69325L10.6266 3.71292L9.74531 2.73259L9.99375 2.63873C10.1297 2.58137 10.575 2.40407 10.9828 2.23721C11.3906 2.07035 11.8547 1.9087 12.0141 1.88262C12.3656 1.82005 12.8578 1.85655 13.2562 1.96606ZM23.0625 5.57971V8.3434H22.1484H21.2344V5.57971V2.81602H22.1484H23.0625V5.57971ZM5.61094 3.3844C5.99531 3.65034 6.38906 3.76506 6.96094 3.79635C7.575 3.82242 8.03906 3.7077 8.52656 3.40526L8.82187 3.22275L9.30937 3.75985C9.76875 4.27087 9.79219 4.30737 9.69375 4.34909C9.06094 4.63067 8.84531 4.79754 8.59219 5.19905C8.47031 5.39721 8.38594 5.48064 8.27812 5.5015C7.93125 5.58493 7.36406 5.94473 7.06875 6.27846C6.54844 6.85205 6.28125 7.57166 6.28125 8.38512C6.28125 9.17251 6.50625 9.82433 6.975 10.3823C8.05312 11.6755 9.7875 11.6807 10.8891 10.3875C11.1328 10.1007 11.4844 9.42802 11.4844 9.24552C11.4844 9.14122 11.5406 9.15687 12.3375 9.44888L13.0781 9.72004L13.05 10.2206C13.0125 10.8724 13.1062 11.3574 13.3734 11.9518L13.5797 12.4003L13.0594 12.9791L12.5391 13.5527L12.1172 13.318C11.2125 12.8175 10.2609 12.8279 9.37969 13.3546L9.02812 13.5631L6.64687 10.9142L4.27031 8.26519L4.40625 8.01489C4.48594 7.87931 4.60312 7.5873 4.67344 7.36308C4.78594 7.0137 4.8 6.87813 4.80469 6.33582C4.80469 5.62143 4.70625 5.18341 4.42969 4.68803L4.275 4.40645L4.8 3.81721C5.08594 3.49912 5.33437 3.23318 5.35312 3.23318C5.37187 3.23318 5.48437 3.30097 5.61094 3.3844ZM20.2969 6.07509V8.3434H19.875H19.4531V6.07509V3.80678H19.875H20.2969V6.07509ZM3.79687 5.67357C3.94687 6.20545 3.89531 6.88856 3.675 7.36308L3.6 7.52473L3.06562 6.93027L2.53125 6.33582L3.05625 5.74658C3.65625 5.07912 3.63281 5.08433 3.79687 5.67357ZM8.31094 6.81555C8.38125 7.30572 8.79375 7.9106 9.25781 8.21826C9.38437 8.30169 9.74531 8.46855 10.0547 8.58327C10.6875 8.82835 10.6734 8.80228 10.4625 9.27159C10.3031 9.6366 9.91875 10.0225 9.57187 10.1737C9.20156 10.3353 8.65781 10.3353 8.2875 10.1737C7.93594 10.0225 7.60312 9.67832 7.40156 9.27159C7.24687 8.95872 7.24219 8.92222 7.24219 8.39555C7.24219 7.74374 7.32187 7.50387 7.66875 7.08671C7.86094 6.86248 8.15156 6.63304 8.25469 6.62262C8.27344 6.62262 8.29687 6.71126 8.31094 6.81555ZM14.2453 10.7421C14.3672 10.8307 14.5406 10.9246 14.6203 10.9559C14.7 10.9872 14.7656 11.0289 14.7656 11.0497C14.7656 11.0706 14.6531 11.2062 14.5172 11.3574L14.2687 11.6285L14.1844 11.4356C14.0484 11.128 13.9266 10.5856 13.9922 10.5856C14.0062 10.5856 14.1187 10.6586 14.2453 10.7421ZM11.475 14.1315C11.6203 14.1889 11.7562 14.2567 11.7844 14.2879C11.8172 14.3245 11.6672 14.5278 11.3062 14.9293L10.7812 15.5134L10.2656 14.9398C9.98437 14.6269 9.75 14.3505 9.75 14.3297C9.75 14.2723 10.0641 14.1263 10.3594 14.0481C10.6781 13.9594 11.1281 13.9959 11.475 14.1315Z" fill="#222628"/>
<path d="M16.0547 6.59101C15.9047 6.75787 15.8672 6.95081 15.9376 7.14896C16.0688 7.49312 16.4485 7.57133 16.6922 7.30539C16.8704 7.10203 16.8751 6.85173 16.7063 6.62751C16.6032 6.49193 16.5516 6.46586 16.3782 6.46586C16.2188 6.46586 16.1391 6.49715 16.0547 6.59101Z" fill="#222628"/>
<path d="M7.04062 16.264C6.33281 16.4831 5.59687 17.0254 5.08594 17.7189L4.82344 18.0683L2.55 18.0943L0.271875 18.1204L0.135937 18.2925L0 18.4646L0.009375 21.9583L0.0234375 25.4572L0.154687 25.5824L0.285937 25.7075H1.87031H3.45469L3.58125 25.572C3.68906 25.452 3.70312 25.3894 3.70312 25.1026V24.7689H4.40625C5.31094 24.7689 5.48437 24.6855 5.48437 24.2475V24.0806L5.73281 24.1171C6.18281 24.1849 6.53437 24.3465 7.28906 24.8263C8.25469 25.4364 9.91875 26.3437 10.3172 26.4793C11.0766 26.74 11.9016 26.7556 12.5906 26.521C12.7922 26.4532 14.025 25.9735 15.3281 25.452C16.6312 24.9306 18.2859 24.2683 19.0078 23.9815C20.4609 23.4027 20.6719 23.2932 21.0281 22.9282C21.7406 22.2086 21.8906 21.2595 21.4406 20.3418C21.0937 19.6222 20.3203 19.2207 19.5328 19.3458C19.3734 19.3719 18.4406 19.6431 17.4656 19.9455C16.4859 20.2479 15.6797 20.493 15.675 20.493C15.6656 20.493 15.5953 20.3522 15.5109 20.1801C15.3375 19.8203 14.9203 19.3615 14.6156 19.1998C14.4 19.0799 13.2937 18.6523 11.7328 18.0735L10.7859 17.7241L10.4344 17.3487C9.72656 16.5873 8.9625 16.2328 7.92187 16.1858C7.48125 16.1702 7.31719 16.1806 7.04062 16.264ZM8.41406 17.2861C8.59687 17.3278 8.91562 17.4582 9.12656 17.5729C9.43125 17.7398 9.57187 17.8597 9.84375 18.183L10.1812 18.5845L12.1594 19.3302C13.3922 19.7995 14.2031 20.1332 14.3203 20.2219C14.5734 20.42 14.7609 20.7329 14.7937 21.0249C14.8359 21.3743 14.6484 21.7966 14.3766 21.9739C13.9781 22.2347 14.0203 22.2451 11.5641 21.3795C9.98437 20.8215 9.28594 20.5973 9.20625 20.6182C9 20.6755 8.85937 20.8789 8.85937 21.1135C8.85937 21.5203 8.84062 21.5151 11.2969 22.3807C13.3969 23.1263 13.5422 23.1681 13.8984 23.1681C14.7 23.1681 15.3797 22.631 15.6328 21.8019L15.7031 21.562L17.3109 21.0718C19.8797 20.2792 19.7203 20.3209 20.0062 20.3835C20.3437 20.4565 20.5219 20.6129 20.6578 20.9519C20.8687 21.4525 20.7234 21.9218 20.25 22.2972C20.0953 22.4172 19.0359 22.8604 16.4062 23.9085C14.4094 24.7063 12.6281 25.4155 12.4453 25.4885C12.1641 25.6032 12.0375 25.6241 11.5781 25.6241C11.2078 25.6241 10.9453 25.598 10.7344 25.5354C10.3687 25.4207 8.64375 24.4821 7.66406 23.8616C6.89062 23.3714 6.45469 23.1837 5.87344 23.0951L5.48437 23.0325V20.9415V18.8504L5.72344 18.4959C5.98125 18.1152 6.39375 17.7189 6.75 17.4999C7.21875 17.2131 7.79531 17.1401 8.41406 17.2861ZM2.76562 21.9009V24.6646H1.85156H0.9375V21.9009V19.1372H1.85156H2.76562V21.9009ZM4.54687 21.4316V23.7312L4.13906 23.7156L3.72656 23.6999L3.7125 21.4838C3.70781 20.2636 3.7125 19.2363 3.72656 19.1998C3.74062 19.1581 3.87187 19.1372 4.14844 19.1372H4.54687V21.4316Z" fill="#222628"/>
<path d="M7.3078 20.1751C6.98905 20.5297 7.2703 21.1346 7.70623 21.0459C7.93123 20.999 8.08592 20.7956 8.08592 20.5349C8.08592 20.3628 8.05779 20.3003 7.93123 20.1751C7.72498 19.9665 7.4953 19.9665 7.3078 20.1751Z" fill="#222628"/>
</svg>
