<svg width="24" height="24" viewBox="0 0 24 24" fill="none" xmlns="http://www.w3.org/2000/svg">
<g opacity="0.9">
<path fill-rule="evenodd" clip-rule="evenodd" d="M17.7952 4.1001C18.9471 4.1001 19.5344 4.2135 20.1456 4.54038C20.7098 4.84215 21.1581 5.29035 21.4598 5.8546C21.7616 6.4188 21.8814 6.96258 21.898 7.94889L21.9001 8.20495V15.7952L21.898 16.0513C21.8814 17.0376 21.7616 17.5814 21.4598 18.1456C21.1581 18.7098 20.7098 19.1581 20.1456 19.4598L20.0047 19.5315C19.4407 19.8035 18.8585 19.9001 17.7952 19.9001H6.20495C5.14167 19.9001 4.5595 19.8035 3.99549 19.5315L3.8546 19.4598C3.29035 19.1581 2.84215 18.7098 2.54038 18.1456C2.23865 17.5814 2.11881 17.0376 2.10216 16.0513L2.1001 15.7952V8.20495C2.1001 7.05307 2.2135 6.46582 2.54038 5.8546C2.84215 5.29035 3.29035 4.84215 3.8546 4.54038C4.4188 4.23865 4.96258 4.11881 5.94889 4.10216L6.20495 4.1001H17.7952ZM20.0991 9.9001L20.1001 15.7952C20.1001 16.6754 20.0409 16.9819 19.8725 17.2967C19.7385 17.5473 19.5473 17.7385 19.2967 17.8725C19.0061 18.028 18.7226 18.0903 17.9884 18.099L17.7952 18.1001H6.20495L6.01176 18.099C5.27759 18.0903 4.99406 18.028 4.70348 17.8725C4.45291 17.7385 4.26165 17.5473 4.12765 17.2967C3.95929 16.9819 3.9001 16.6754 3.9001 15.7952L3.8991 9.9001H20.0991ZM6.20495 5.9001H17.7952L17.9884 5.90117C18.7226 5.90985 19.0061 5.97224 19.2967 6.12765C19.5473 6.26165 19.7385 6.45291 19.8725 6.70348C20.028 6.99406 20.0903 7.27759 20.099 8.01176L20.0981 8.1001H3.9001L3.90117 8.01176C3.90985 7.27759 3.97224 6.99406 4.12765 6.70348C4.26165 6.45291 4.45291 6.26165 4.70348 6.12765C5.01828 5.95929 5.3248 5.9001 6.20495 5.9001Z" fill="#222628"/>
<path d="M6.00009 14.8001C6.00009 14.5201 6.00009 14.3801 6.05459 14.2731C6.10253 14.179 6.17902 14.1026 6.2731 14.0546C6.38005 14.0001 6.52007 14.0001 6.80009 14.0001H7.20009C7.48012 14.0001 7.62013 14.0001 7.72709 14.0546C7.82117 14.1026 7.89766 14.179 7.94559 14.2731C8.00009 14.3801 8.00009 14.5201 8.00009 14.8001V15.2001C8.00009 15.4801 8.00009 15.6202 7.94559 15.7271C7.89766 15.8212 7.82117 15.8977 7.72709 15.9456C7.62013 16.0001 7.48012 16.0001 7.20009 16.0001H6.80009C6.52007 16.0001 6.38005 16.0001 6.2731 15.9456C6.17902 15.8977 6.10253 15.8212 6.05459 15.7271C6.00009 15.6202 6.00009 15.4801 6.00009 15.2001V14.8001Z" fill="#222628"/>
</g>
</svg>
