<svg width="20" height="20" viewBox="0 0 20 20" fill="none" xmlns="http://www.w3.org/2000/svg">
<path d="M10.5512 0.0429688C10.2153 0.144531 9.95358 0.410156 9.80905 0.800781C9.69577 1.10156 9.63718 1.60547 9.66843 2.01562L9.69186 2.375L9.46139 2.95312C8.69186 4.875 7.74264 6.71484 7.01999 7.67969C6.85983 7.89453 6.57858 8.21094 6.39499 8.38672C6.01608 8.75 5.83639 8.97656 5.57077 9.4375L5.38718 9.75L5.12546 9.66016C4.87155 9.57422 4.82468 9.57422 3.31686 9.57031C1.67233 9.57031 1.57858 9.57812 1.19968 9.77344C0.863738 9.94141 0.523895 10.3477 0.367645 10.7617C0.297332 10.9492 0.293426 11.1328 0.281707 14.5312C0.273895 16.7461 0.285613 18.1992 0.309051 18.3516C0.426238 19.0938 1.03171 19.6992 1.76608 19.8047C1.9028 19.8242 2.60983 19.8438 3.3403 19.8438C4.79343 19.8438 5.03952 19.8164 5.39108 19.625L5.58639 19.5195L6.29733 19.6055C8.12546 19.8203 9.40671 19.9023 11.9966 19.9648C13.4262 19.9961 14.0317 19.9961 14.438 19.9648C16.0512 19.832 17.2583 19.3164 17.8716 18.5078C18.2192 18.0469 18.3598 17.625 18.3676 17.0117C18.3716 16.6289 18.3716 16.6172 18.4966 16.4844C18.8559 16.0977 19.1255 15.625 19.2348 15.1914C19.3208 14.8359 19.3169 14.2656 19.2192 13.8906L19.1411 13.5859L19.2622 13.4141C19.5786 12.9531 19.7505 12.3711 19.7114 11.8906C19.6801 11.5117 19.5278 11.043 19.3364 10.7461L19.1762 10.5L19.2348 10.3281C19.3989 9.84766 19.395 9.24219 19.2309 8.78906C19.1255 8.5 18.8364 8.09375 18.5786 7.88281C17.6137 7.07812 15.727 6.89844 13.2739 7.38281C12.9458 7.44531 12.6528 7.5 12.6216 7.5C12.5786 7.5 12.5708 7.4375 12.5942 7.16797C12.6255 6.75 12.7387 6.26172 13.0395 5.25391C13.3325 4.27344 13.4262 3.85156 13.4731 3.25391C13.5161 2.73828 13.4848 2.28516 13.3794 1.89453C13.145 1.01953 12.4458 0.320312 11.5669 0.0976562C11.2544 0.0195312 10.727 -0.0117188 10.5512 0.0429688ZM11.3794 1.21484C11.9614 1.41016 12.2583 1.82422 12.3403 2.54688C12.4067 3.14453 12.2934 3.82031 11.938 4.96484C11.563 6.16797 11.4223 6.91016 11.4536 7.53906C11.4926 8.26953 11.8208 8.67188 12.3872 8.67188C12.4653 8.67188 12.8325 8.60938 13.2075 8.53516C14.3598 8.30078 14.6606 8.26562 15.645 8.26562C16.3676 8.26172 16.6137 8.27734 16.895 8.33203C18.0708 8.57031 18.4966 9.24609 18.0669 10.1992C17.8716 10.625 17.8833 10.707 18.188 11.082C18.7348 11.75 18.7114 12.3438 18.1137 13.0547C17.8989 13.3086 17.8794 13.5195 18.0317 13.8672C18.1333 14.0938 18.145 14.1641 18.145 14.5508C18.145 14.9492 18.1372 15 18.0317 15.2148C17.9536 15.375 17.8091 15.5508 17.5747 15.7852C17.3716 15.9805 17.2192 16.1641 17.2036 16.2305C17.188 16.293 17.1997 16.5039 17.227 16.7031C17.2817 17.1211 17.2466 17.3594 17.0825 17.668C16.7973 18.1875 16.0434 18.5781 14.9301 18.7773C14.602 18.8359 14.3286 18.8438 12.9301 18.8359C10.2583 18.8242 8.20358 18.7148 6.48483 18.4922L6.30905 18.4688L6.32077 15.0078C6.33249 12.5859 6.32077 11.418 6.28952 11.1289C6.24655 10.7148 6.24655 10.7109 6.35593 10.4258C6.55514 9.91797 6.76999 9.60156 7.24655 9.12109C7.98483 8.375 8.57468 7.49219 9.31296 6.01953C9.7778 5.09766 10.1919 4.17188 10.563 3.23438L10.8208 2.57812L10.8091 2.00391C10.8051 1.68359 10.8169 1.35938 10.8325 1.27734C10.8598 1.14453 10.8755 1.13281 11.0005 1.13281C11.0747 1.13281 11.2466 1.16797 11.3794 1.21484ZM4.88327 10.7891C4.95358 10.8398 5.05124 10.9297 5.09421 10.9883C5.17624 11.0977 5.17624 11.1094 5.17624 14.6836V18.2656L5.07077 18.4258C4.88327 18.707 4.83639 18.7148 3.2153 18.7031C1.85983 18.6914 1.79733 18.6875 1.69577 18.6094C1.63718 18.5664 1.55124 18.4805 1.50827 18.4219C1.42624 18.3164 1.42624 18.2812 1.41452 14.75L1.40671 11.1875L1.49655 11.0156C1.66061 10.7031 1.6528 10.7031 3.30514 10.7031C4.74264 10.7031 4.75436 10.7031 4.88327 10.7891Z" fill="white"/>
</svg>
