<svg width="20" height="20" viewBox="0 0 20 20" fill="none" xmlns="http://www.w3.org/2000/svg">
<path d="M10.8334 9.22583L16.7259 3.33327" stroke="#289672" stroke-width="1.4" stroke-linecap="round"/>
<line x1="16.6141" y1="3.1" x2="13.1001" y2="3.1" stroke="#289672" stroke-width="1.2" stroke-linecap="round"/>
<line x1="0.6" y1="-0.6" x2="4.11405" y2="-0.6" transform="matrix(7.49256e-08 1 1 -5.20317e-08 17.5 2.5)" stroke="#289672" stroke-width="1.2" stroke-linecap="round"/>
<path d="M15.8333 9.16675V10.8334C15.8333 12.3834 15.8333 13.1583 15.663 13.7942C15.2006 15.5196 13.8529 16.8674 12.1274 17.3297C11.4916 17.5001 10.7166 17.5001 9.16667 17.5001V17.5001C7.61671 17.5001 6.84174 17.5001 6.2059 17.3297C4.48044 16.8674 3.13271 15.5196 2.67037 13.7942C2.5 13.1583 2.5 13.121 2.5 13.0464V13.0464C2.5 10.0211 2.5 8.50849 2.67037 7.87265C3.13271 6.14719 4.48044 4.79945 6.2059 4.33712C6.84174 4.16675 7.61671 4.16675 9.16667 4.16675H10.8333" stroke="#289672" stroke-width="1.4" stroke-linecap="round"/>
</svg>
