<svg width="16" height="18" viewBox="0 0 16 18" fill="none" xmlns="http://www.w3.org/2000/svg">
<path fill-rule="evenodd" clip-rule="evenodd" d="M8 0.5625C5.58375 0.5625 3.625 2.52125 3.625 4.9375V6.52998C3.01217 6.5674 2.57739 6.65152 2.20628 6.8406C1.61827 7.14021 1.14021 7.61827 0.840605 8.20628C0.5 8.87475 0.5 9.74984 0.5 11.5V12.75C0.5 14.5002 0.5 15.3752 0.840605 16.0437C1.14021 16.6317 1.61827 17.1098 2.20628 17.4094C2.87475 17.75 3.74984 17.75 5.5 17.75H10.5C12.2502 17.75 13.1252 17.75 13.7937 17.4094C14.3817 17.1098 14.8598 16.6317 15.1594 16.0437C15.5 15.3752 15.5 14.5002 15.5 12.75V11.5C15.5 9.74984 15.5 8.87475 15.1594 8.20628C14.8598 7.61827 14.3817 7.14021 13.7937 6.8406C13.4226 6.65152 12.9878 6.5674 12.375 6.52998V4.9375C12.375 2.52125 10.4162 0.5625 8 0.5625ZM10.5 6.5V4.9375C10.5 3.55679 9.38071 2.4375 8 2.4375C6.61929 2.4375 5.5 3.55679 5.5 4.9375V6.5H10.5ZM3.60019 8.41135C4.02723 8.37646 4.59398 8.375 5.5 8.375H10.5C11.406 8.375 11.9728 8.37646 12.3998 8.41135C12.805 8.44445 12.9166 8.49807 12.9425 8.51124C13.1777 8.63108 13.3689 8.82231 13.4888 9.05751C13.5019 9.08337 13.5555 9.19504 13.5887 9.60019C13.6235 10.0272 13.625 10.594 13.625 11.5V12.75C13.625 13.656 13.6235 14.2228 13.5887 14.6498C13.5555 15.055 13.5019 15.1666 13.4888 15.1925C13.3689 15.4277 13.1777 15.6189 12.9425 15.7388C12.9166 15.7519 12.805 15.8055 12.3998 15.8387C11.9728 15.8735 11.406 15.875 10.5 15.875H5.5C4.59398 15.875 4.02723 15.8735 3.60019 15.8387C3.19504 15.8055 3.08337 15.7519 3.05751 15.7388C2.82231 15.6189 2.63108 15.4277 2.51124 15.1925C2.49807 15.1666 2.44445 15.055 2.41135 14.6498C2.37646 14.2228 2.375 13.656 2.375 12.75V11.5C2.375 10.594 2.37646 10.0272 2.41135 9.60019C2.44445 9.19504 2.49807 9.08337 2.51124 9.05751C2.63108 8.82231 2.82231 8.63108 3.05751 8.51124C3.08337 8.49807 3.19504 8.44445 3.60019 8.41135Z" fill="#99A2AD"/>
</svg>
