<svg width="20" height="20" viewBox="0 0 20 20" fill="none" xmlns="http://www.w3.org/2000/svg">
<path d="M9.99992 0.916748C12.3011 0.916748 14.1666 2.78223 14.1666 5.08342H14.2117C15.3261 5.08342 15.7302 5.19945 16.1376 5.41733C16.5451 5.63521 16.8648 5.95495 17.0827 6.36236C17.3006 6.76977 17.4166 7.17387 17.4166 8.28827V12.362C17.4166 14.1029 17.2329 14.7467 16.8879 15.3918C16.5429 16.0368 16.0367 16.5431 15.3916 16.888C14.7465 17.233 14.1028 17.4167 12.3619 17.4167H7.63796C5.89707 17.4167 5.25331 17.233 4.60824 16.888C3.96318 16.5431 3.45693 16.0368 3.11195 15.3918C2.76697 14.7467 2.58325 14.1029 2.58325 12.362V8.28827C2.58325 7.17387 2.69928 6.76977 2.91717 6.36236C3.13505 5.95495 3.45479 5.63521 3.86219 5.41733C4.2696 5.19945 4.67371 5.08342 5.78811 5.08342H5.83325C5.83325 2.78223 7.69873 0.916748 9.99992 0.916748ZM14.3723 6.58406L5.78811 6.58342C4.99853 6.58342 4.78558 6.62454 4.56959 6.74005C4.42359 6.81813 4.31797 6.92375 4.23989 7.06976C4.12437 7.28575 4.08325 7.4987 4.08325 8.28827V12.362C4.08325 13.7246 4.17536 14.1995 4.43467 14.6844C4.63986 15.068 4.93198 15.3601 5.31564 15.5653C5.80052 15.8246 6.27545 15.9167 7.63796 15.9167H12.3619C13.7244 15.9167 14.1993 15.8246 14.6842 15.5653C15.0679 15.3601 15.36 15.068 15.5652 14.6844C15.8245 14.1995 15.9166 13.7246 15.9166 12.362V8.28827C15.9166 7.4987 15.8755 7.28575 15.7599 7.06976C15.6819 6.92375 15.5762 6.81813 15.4302 6.74005C15.2297 6.63279 15.0317 6.58967 14.3723 6.58406ZM13.2883 7.50008C13.4594 7.50008 13.5783 7.52909 13.6802 7.58356C13.782 7.63803 13.862 7.71797 13.9164 7.81982C13.9709 7.92167 13.9999 8.04061 13.9999 8.21174V8.28842C13.9999 8.45956 13.9709 8.57849 13.9164 8.68035C13.862 8.7822 13.782 8.86213 13.6802 8.9166C13.5783 8.97107 13.4594 9.00008 13.2883 9.00008H13.2116C13.0404 9.00008 12.9215 8.97107 12.8197 8.9166C12.7178 8.86213 12.6379 8.7822 12.5834 8.68035C12.5289 8.57849 12.4999 8.45956 12.4999 8.28842V8.21174C12.4999 8.04061 12.5289 7.92167 12.5834 7.81982C12.6379 7.71797 12.7178 7.63803 12.8197 7.58356C12.9215 7.52909 13.0404 7.50008 13.2116 7.50008H13.2883ZM6.6216 7.50008C6.79273 7.50008 6.91166 7.52909 7.01352 7.58356C7.11537 7.63803 7.1953 7.71797 7.24977 7.81982C7.30424 7.92167 7.33325 8.04061 7.33325 8.21174V8.28842C7.33325 8.45956 7.30424 8.57849 7.24977 8.68035C7.1953 8.7822 7.11537 8.86213 7.01352 8.9166C6.91166 8.97107 6.79273 9.00008 6.6216 9.00008H6.54491C6.37378 9.00008 6.25484 8.97107 6.15299 8.9166C6.05114 8.86213 5.9712 8.7822 5.91673 8.68035C5.86226 8.57849 5.83325 8.45956 5.83325 8.28842V8.21174C5.83325 8.04061 5.86226 7.92167 5.91673 7.81982C5.9712 7.71797 6.05114 7.63803 6.15299 7.58356C6.25484 7.52909 6.37378 7.50008 6.54491 7.50008H6.6216ZM9.99992 2.41675C8.52716 2.41675 7.33325 3.61066 7.33325 5.08342H12.6666C12.6666 3.61066 11.4727 2.41675 9.99992 2.41675Z" fill="#8491A5"/>
</svg>
