<svg width="138" height="121" viewBox="0 0 138 121" fill="none" xmlns="http://www.w3.org/2000/svg">
<g clip-path="url(#clip0_3132_92613)">
<path d="M6.65872 41.2331L0.0047069 37.4784C-0.0850485 33.4612 0.80536 29.4828 2.59861 25.8887C4.13273 32.8645 12.2062 36.1834 15.9313 42.2742C17.0785 44.1827 17.7824 46.3255 17.9907 48.5436C18.199 50.7618 17.9064 52.9985 17.1346 55.0879L17.5722 60.4965C14.1332 59.4646 10.9584 57.698 8.26645 55.3184C5.57454 52.9388 3.42955 50.0029 1.97927 46.7128C1.18392 44.859 0.62475 42.9123 0.314964 40.9185C3.41735 41.2492 6.65872 41.2331 6.65872 41.2331Z" fill="#F2F2F2"/>
<path d="M126.276 109.542L126.48 104.945C128.607 103.806 130.979 103.205 133.391 103.193C130.072 105.911 130.486 111.152 128.236 114.808C127.525 115.943 126.569 116.904 125.438 117.618C124.306 118.332 123.029 118.782 121.7 118.935L118.923 120.639C118.541 118.51 118.625 116.324 119.169 114.23C119.712 112.137 120.702 110.187 122.07 108.514C122.847 107.583 123.738 106.754 124.722 106.046C125.387 107.804 126.276 109.542 126.276 109.542Z" fill="#F2F2F2"/>
<path d="M119.119 118.273L116.603 118.273L115.407 108.554L119.119 108.554L119.119 118.273Z" fill="#FFB6B6"/>
<path d="M119.76 120.716L111.65 120.715V120.613C111.65 119.774 111.983 118.97 112.575 118.376C113.167 117.783 113.969 117.45 114.807 117.45H114.807L116.288 116.324L119.052 117.45L119.76 117.45L119.76 120.716Z" fill="#2F2E41"/>
<path d="M107.433 118.273L104.918 118.273L103.722 108.554L107.434 108.554L107.433 118.273Z" fill="#FFB6B6"/>
<path d="M108.075 120.716L99.9648 120.715V120.613C99.9649 119.774 100.297 118.97 100.889 118.376C101.481 117.783 102.284 117.45 103.122 117.45H103.122L104.603 116.324L107.367 117.45L108.075 117.45L108.075 120.716Z" fill="#2F2E41"/>
<path d="M106.345 65.1365L122.705 65.5462C125.812 67.237 125.859 70.8963 124.841 75.2411C124.841 75.2411 125.185 77.8234 124.497 78.512C123.81 79.2007 123.466 79.2007 123.81 80.4058C124.153 81.6109 122.338 83.5792 122.558 83.8001C122.779 84.0211 123.294 85.2262 123.294 85.2262L121.576 95.0392C121.576 95.0392 120.373 112.083 120.029 112.427C119.686 112.771 119.342 112.427 119.686 113.288C120.029 114.149 120.373 113.804 120.029 114.149C119.725 114.478 119.438 114.822 119.17 115.182H115.015C115.015 115.182 114.702 113.46 114.702 113.288C114.702 113.116 114.359 112.083 114.359 111.911C114.359 111.738 114.662 111.434 114.662 111.434C114.767 111.084 114.838 110.725 114.874 110.361C114.874 110.017 115.905 96.7608 115.905 96.7608L113.843 79.545L108.86 96.4164C108.86 96.4164 108.86 111.222 108.516 111.566C108.172 111.911 108.172 111.738 108.344 112.427C108.516 113.116 109.203 112.944 108.688 113.46C108.172 113.977 108 113.116 108.172 113.977L108.344 114.837L103.189 114.911C103.189 114.911 102.502 113.46 102.845 112.944C103.189 112.427 103.168 112.568 102.749 111.723C102.33 110.878 102.158 110.706 102.33 110.533C102.502 110.361 102.502 109.446 102.502 109.446L103.361 92.9733C103.361 92.9733 103.533 75.5854 103.533 75.0689C103.546 74.8031 103.497 74.538 103.39 74.2944V73.5933L104.048 71.1093L106.345 65.1365Z" fill="#2F2E41"/>
<path d="M116.172 31.0556C118.98 31.0556 121.256 28.7756 121.256 25.9631C121.256 23.1506 118.98 20.8706 116.172 20.8706C113.365 20.8706 111.089 23.1506 111.089 25.9631C111.089 28.7756 113.365 31.0556 116.172 31.0556Z" fill="#FFB6B6"/>
<path d="M113.631 34.4214C112.536 35.0736 111.881 36.272 111.505 37.4915C110.809 39.7492 110.389 42.0835 110.257 44.4428L109.86 51.506L104.94 66.5455C109.204 70.1595 125.229 67.3669 125.229 67.3669C125.229 67.3669 125.721 67.2026 125.229 66.7098C124.737 66.2169 124.258 66.6536 124.75 66.1607C125.242 65.6679 124.903 66.2169 124.739 65.7241C124.575 65.2313 124.739 65.5598 124.903 65.3956C125.067 65.2313 123.633 63.7528 123.633 63.7528L124.945 55.12L126.585 37.7069C124.617 35.2428 120.66 33.7902 120.66 33.7902L119.637 31.9463L114.525 32.356L113.631 34.4214Z" fill="#E6E6E6"/>
<path d="M112.934 22.9745C113.131 22.9761 113.326 23.0018 113.517 23.0512C113.892 23.1416 114.273 23.2056 114.658 23.2428C115.834 23.3537 116.94 23.8565 117.798 24.6709C118.656 25.4852 119.217 26.5641 119.391 27.7353C119.687 27.4773 120.359 27.0027 120.91 27.4438C120.918 27.4508 120.923 27.4544 120.942 27.4452C121.308 27.2713 121.958 25.1311 121.977 23.2467C121.988 22.2466 121.831 20.9694 121.023 20.5649L120.981 20.5436L120.969 20.4973C120.916 20.2723 120.313 19.8883 119.265 19.5894C117.362 19.0462 114.524 17.988 112.926 19.5453C112.805 20.0703 112.412 21.1938 112.015 21.3211C111.575 21.4621 111.195 21.5837 111.135 22.1245C111.085 22.8941 111.088 23.6663 111.145 24.4354C111.295 23.9648 111.587 23.5528 111.982 23.2576C112.263 23.0682 112.595 22.9694 112.934 22.9745V22.9745Z" fill="#2F2E41"/>
<path d="M103.473 51.1129L111.776 45.7855L107.594 40.2158L103.464 45.305L90.5975 46.0956C90.259 45.7604 89.8306 45.5312 89.3644 45.4357C88.8981 45.3403 88.4142 45.3829 87.9717 45.5582C87.5292 45.7335 87.1472 46.0341 86.8722 46.4231C86.5972 46.8122 86.4412 47.2731 86.4232 47.7495C86.4051 48.2259 86.5258 48.6972 86.7705 49.1061C87.0152 49.515 87.3734 49.8437 87.8014 50.0521C88.2293 50.2606 88.7086 50.3398 89.1807 50.2801C89.6528 50.2204 90.0974 50.0243 90.4602 49.7159L103.473 51.1129Z" fill="#FFB6B6"/>
<path d="M119.482 38.3492C119.964 41.2711 110.863 46.8506 110.863 46.8506C110.863 46.1648 105.432 51.3423 105.186 50.7735C104.49 49.1569 104 45.3281 103.026 44.7152C102.469 44.3648 106.38 41.0724 106.38 41.0724C106.38 41.0724 108.427 39.0064 111.113 36.4006C111.859 35.6497 112.782 35.1001 113.797 34.8029C114.811 34.5058 115.885 34.4706 116.917 34.7009C116.917 34.7009 119 35.4273 119.482 38.3492Z" fill="#E6E6E6"/>
<path d="M136.597 52.5116L131.105 44.3076L125.635 48.6144L130.801 52.643L131.863 65.5139C131.535 65.86 131.316 66.294 131.23 66.763C131.145 67.232 131.198 67.7158 131.382 68.1553C131.566 68.5948 131.874 68.9711 132.269 69.2383C132.663 69.5055 133.126 69.652 133.602 69.66C134.077 69.668 134.545 69.5371 134.948 69.2834C135.351 69.0296 135.671 68.6639 135.87 68.2308C136.069 67.7977 136.138 67.316 136.069 66.8444C135.999 66.3728 135.794 65.9316 135.478 65.5748L136.597 52.5116Z" fill="#FFB6B6"/>
<path d="M123.521 36.7459C126.426 36.2014 132.187 45.1986 132.187 45.1986C131.503 45.2133 136.785 50.5442 136.222 50.8018C134.624 51.534 130.813 52.1058 130.222 53.094C129.884 53.6592 126.516 49.8121 126.516 49.8121C126.516 49.8121 124.411 47.8056 121.753 45.1702C120.988 44.4391 120.42 43.526 120.102 42.5158C119.784 41.5056 119.726 40.4313 119.934 39.3927C119.934 39.3927 120.615 37.2905 123.521 36.7459Z" fill="#E6E6E6"/>
<path d="M138 120.756C138 120.788 137.994 120.82 137.982 120.85C137.97 120.879 137.952 120.906 137.929 120.929C137.907 120.952 137.88 120.969 137.85 120.982C137.821 120.994 137.789 121 137.757 121H80.4377C80.3731 121 80.3112 120.974 80.2656 120.929C80.22 120.883 80.1943 120.821 80.1943 120.756C80.1943 120.692 80.22 120.63 80.2656 120.584C80.3112 120.538 80.3731 120.512 80.4377 120.512H137.757C137.789 120.512 137.821 120.519 137.85 120.531C137.88 120.543 137.907 120.561 137.929 120.584C137.952 120.606 137.97 120.633 137.982 120.663C137.994 120.692 138 120.724 138 120.756Z" fill="#CCCCCC"/>
<path d="M84.9003 46.874H15.3357C14.2488 46.8753 13.2069 47.3083 12.4384 48.0783C11.6698 48.8482 11.2376 49.8921 11.2363 50.9809V94.3714C11.2376 95.4603 11.6699 96.5042 12.4384 97.2741C13.2069 98.044 14.2488 98.4771 15.3357 98.4784H84.9002C85.9871 98.4771 87.0291 98.0441 87.7976 97.2741C88.5661 96.5042 88.9984 95.4603 88.9997 94.3714V50.9809C88.9984 49.8921 88.5662 48.8482 87.7976 48.0783C87.0291 47.3083 85.9871 46.8752 84.9003 46.874Z" fill="#289672"/>
<path d="M84.9003 46.874H15.3357C14.2488 46.8753 13.2069 47.3083 12.4384 48.0783C11.6698 48.8482 11.2376 49.8921 11.2363 50.9809V94.3714C11.2376 95.4603 11.6699 96.5042 12.4384 97.2741C13.2069 98.044 14.2488 98.4771 15.3357 98.4784H84.9002C85.9871 98.4771 87.0291 98.0441 87.7976 97.2741C88.5661 96.5042 88.9984 95.4603 88.9997 94.3714V50.9809C88.9984 49.8921 88.5662 48.8482 87.7976 48.0783C87.0291 47.3083 85.9871 46.8752 84.9003 46.874ZM86.2456 78.042C86.229 82.4594 84.4848 86.6943 81.3874 89.8382C78.29 92.9822 74.086 94.7847 69.6773 94.859C62.6188 94.9511 73.5828 94.987 65.0696 94.987C45.6028 94.987 25.3042 94.8006 17.7306 94.6798C16.7342 94.6592 15.7852 94.2491 15.0864 93.5372C14.3876 92.8253 13.9942 91.8678 13.9904 90.8693V50.9842C13.9908 50.6266 14.1325 50.2837 14.3846 50.0306C14.6366 49.7774 14.9785 49.6346 15.3354 49.6333H84.8975C85.2543 49.6338 85.5965 49.7757 85.8491 50.0282C86.1017 50.2806 86.2443 50.6231 86.2456 50.9805V78.042Z" fill="#3F3D56"/>
<path d="M76.3372 21.8887H23.3363C22.8674 21.8893 22.4101 22.035 22.0268 22.3057C21.6436 22.5765 21.3531 22.9591 21.195 23.4014L13.0094 46.4091C12.8872 46.7525 12.8491 47.1203 12.8983 47.4815C12.9475 47.8427 13.0825 48.1868 13.292 48.4849C13.5015 48.783 13.7794 49.0264 14.1023 49.1945C14.4251 49.3627 14.7836 49.4507 15.1475 49.4512L86.2304 49.5776H86.2336C86.6098 49.5776 86.9801 49.4841 87.3113 49.3054C87.6425 49.1267 87.9243 48.8685 88.1314 48.5538C88.3384 48.2392 88.4644 47.878 88.4978 47.5026C88.5313 47.1272 88.4712 46.7494 88.323 46.403L88.1991 46.4562L88.323 46.403L78.4267 23.269C78.2517 22.8591 77.9604 22.5098 77.5889 22.2644C77.2175 22.019 76.7822 21.8883 76.3372 21.8887V21.8887Z" fill="#3F3D56"/>
<path d="M88.5067 46.9027C88.5065 47.2112 88.4439 47.5165 88.3226 47.8001L78.4269 65.608C78.2507 66.017 77.959 66.3654 77.5876 66.6104C77.2163 66.8554 76.7815 66.9862 76.3369 66.9868H23.3368C22.8677 66.9864 22.4101 66.8409 22.0266 66.5703C21.643 66.2997 21.3521 65.9172 21.1936 65.4748L13.0096 47.794C12.9092 47.5123 12.8653 47.2135 12.8803 46.9148C12.8953 46.6161 12.9689 46.3233 13.0969 46.0531C13.2249 45.783 13.4048 45.5407 13.6263 45.3402C13.8478 45.1397 14.1066 44.9849 14.3879 44.8847C14.6312 44.7967 14.8879 44.7516 15.1466 44.7515L23.8296 44.7351L27.3736 44.729L74.0077 44.6471L77.5537 44.6409L86.2306 44.6245H86.2326C86.8357 44.6246 87.4141 44.8647 87.8405 45.2919C88.267 45.7191 88.5066 46.2985 88.5067 46.9027V46.9027Z" fill="#3F3D56"/>
<path d="M20.5509 79.4221C21.6019 79.4221 36.0344 80.3058 36.0344 81.3587C36.0344 82.4117 21.6019 83.2351 20.5509 83.2351C20.0462 83.2351 19.5622 83.0343 19.2053 82.6767C18.8484 82.3192 18.6479 81.8343 18.6479 81.3286C18.6479 80.823 18.8484 80.3381 19.2053 79.9805C19.5622 79.623 20.0462 79.4221 20.5509 79.4221V79.4221Z" fill="#3F3D56"/>
<path d="M73.0368 7.89209H28.3475C27.1498 7.89348 26.0016 8.37074 25.1547 9.21918C24.3078 10.0676 23.8315 11.2179 23.8301 12.4178V66.9868H76.3374C76.7685 66.9881 77.1909 66.8651 77.5541 66.6323V12.4178C77.5528 11.2179 77.0764 10.0676 76.2295 9.21918C75.3826 8.37074 74.2344 7.89348 73.0368 7.89209Z" fill="#E6E6E6"/>
<path d="M55.9794 11.5615H31.4886C30.398 11.5626 29.3524 11.9969 28.581 12.7693C27.8097 13.5417 27.3756 14.589 27.374 15.6816V66.9869H74.0081V29.6235C74.0026 24.8348 72.1014 20.2439 68.7215 16.8578C65.3417 13.4718 60.7592 11.567 55.9794 11.5615V11.5615Z" fill="white"/>
<path d="M66.0629 62.4302H35.3185C35.0527 62.4302 34.7978 62.5359 34.6099 62.7242C34.422 62.9125 34.3164 63.1678 34.3164 63.4341C34.3164 63.7003 34.422 63.9557 34.6099 64.1439C34.7978 64.3322 35.0527 64.438 35.3185 64.438H66.0629C66.3287 64.438 66.5835 64.3322 66.7715 64.1439C66.9594 63.9557 67.065 63.7003 67.065 63.4341C67.065 63.1678 66.9594 62.9125 66.7715 62.7242C66.5835 62.5359 66.3287 62.4302 66.0629 62.4302V62.4302Z" fill="#E4E4E4"/>
<path d="M66.063 58.4595H35.3185C35.0525 58.4595 34.7973 58.5653 34.6092 58.7538C34.4211 58.9423 34.3154 59.1979 34.3154 59.4644C34.3154 59.7309 34.4211 59.9865 34.6092 60.175C34.7973 60.3634 35.0525 60.4693 35.3185 60.4693H66.063C66.329 60.4693 66.5841 60.3634 66.7722 60.175C66.9603 59.9865 67.066 59.7309 67.066 59.4644C67.066 59.1979 66.9603 58.9423 66.7722 58.7538C66.5841 58.5653 66.329 58.4595 66.063 58.4595V58.4595Z" fill="#E4E4E4"/>
<path d="M48.6457 54.4912H35.3185C35.0527 54.4912 34.7978 54.597 34.6099 54.7852C34.422 54.9735 34.3164 55.2289 34.3164 55.4951C34.3164 55.7614 34.422 56.0167 34.6099 56.205C34.7978 56.3932 35.0527 56.499 35.3185 56.499H48.6457C48.9114 56.499 49.1663 56.3932 49.3542 56.205C49.5422 56.0167 49.6477 55.7614 49.6477 55.4951C49.6477 55.2289 49.5422 54.9735 49.3542 54.7852C49.1663 54.597 48.9114 54.4912 48.6457 54.4912V54.4912Z" fill="#E4E4E4"/>
<path d="M66.063 46.1772H35.3185C35.0525 46.1772 34.7973 46.2831 34.6092 46.4716C34.4211 46.66 34.3154 46.9156 34.3154 47.1822C34.3154 47.4487 34.4211 47.7043 34.6092 47.8928C34.7973 48.0812 35.0525 48.1871 35.3185 48.1871H66.063C66.329 48.1871 66.5841 48.0812 66.7722 47.8928C66.9603 47.7043 67.066 47.4487 67.066 47.1822C67.066 46.9156 66.9603 46.66 66.7722 46.4716C66.5841 46.2831 66.329 46.1772 66.063 46.1772Z" fill="#E4E4E4"/>
<path d="M66.0629 42.209H35.3185C35.0527 42.209 34.7978 42.3148 34.6099 42.503C34.422 42.6913 34.3164 42.9466 34.3164 43.2129C34.3164 43.4791 34.422 43.7345 34.6099 43.9227C34.7978 44.111 35.0527 44.2168 35.3185 44.2168H66.0629C66.3287 44.2168 66.5835 44.111 66.7715 43.9227C66.9594 43.7345 67.065 43.4791 67.065 43.2129C67.065 42.9466 66.9594 42.6913 66.7715 42.503C66.5835 42.3148 66.3287 42.209 66.0629 42.209V42.209Z" fill="#E4E4E4"/>
<path d="M48.6457 38.2383H35.3185C35.0525 38.2383 34.7973 38.3442 34.6092 38.5326C34.4211 38.7211 34.3154 38.9767 34.3154 39.2432C34.3154 39.5097 34.4211 39.7653 34.6092 39.9538C34.7973 40.1422 35.0525 40.2481 35.3185 40.2481H48.6457C48.9118 40.2481 49.1669 40.1422 49.355 39.9538C49.5431 39.7653 49.6488 39.5097 49.6488 39.2432C49.6488 38.9767 49.5431 38.7211 49.355 38.5326C49.1669 38.3442 48.9118 38.2383 48.6457 38.2383Z" fill="#E4E4E4"/>
<path d="M66.063 29.9243H35.3185C35.0525 29.9243 34.7973 30.0302 34.6092 30.2187C34.4211 30.4071 34.3154 30.6627 34.3154 30.9292C34.3154 31.1958 34.4211 31.4514 34.6092 31.6398C34.7973 31.8283 35.0525 31.9342 35.3185 31.9342H66.063C66.329 31.9342 66.5841 31.8283 66.7722 31.6398C66.9603 31.4514 67.066 31.1958 67.066 30.9292C67.066 30.6627 66.9603 30.4071 66.7722 30.2187C66.5841 30.0302 66.329 29.9243 66.063 29.9243Z" fill="#289672"/>
<path d="M66.063 25.9561H35.3185C35.0525 25.9561 34.7973 26.0619 34.6092 26.2504C34.4211 26.4388 34.3154 26.6945 34.3154 26.961C34.3154 27.2275 34.4211 27.4831 34.6092 27.6716C34.7973 27.86 35.0525 27.9659 35.3185 27.9659H66.063C66.329 27.9659 66.5841 27.86 66.7722 27.6716C66.9603 27.4831 67.066 27.2275 67.066 26.961C67.066 26.6945 66.9603 26.4388 66.7722 26.2504C66.5841 26.0619 66.329 25.9561 66.063 25.9561Z" fill="#289672"/>
<path d="M48.6457 21.9854H35.3185C35.0525 21.9854 34.7973 22.0912 34.6092 22.2797C34.4211 22.4681 34.3154 22.7238 34.3154 22.9903C34.3154 23.2568 34.4211 23.5124 34.6092 23.7009C34.7973 23.8893 35.0525 23.9952 35.3185 23.9952H48.6457C48.9118 23.9952 49.1669 23.8893 49.355 23.7009C49.5431 23.5124 49.6488 23.2568 49.6488 22.9903C49.6488 22.7238 49.5431 22.4681 49.355 22.2797C49.1669 22.0912 48.9118 21.9854 48.6457 21.9854Z" fill="#289672"/>
<path d="M75.8785 15.6374C80.1887 15.6374 83.6828 12.1368 83.6828 7.81868C83.6828 3.50054 80.1887 0 75.8785 0C71.5683 0 68.0742 3.50054 68.0742 7.81868C68.0742 12.1368 71.5683 15.6374 75.8785 15.6374Z" fill="#289672"/>
<path d="M74.814 11.8882C74.6793 11.8882 74.5463 11.8567 74.4258 11.7963C74.3053 11.7359 74.2004 11.6482 74.1196 11.5402L71.9905 8.69609C71.9217 8.60475 71.8716 8.50071 71.843 8.38994C71.8145 8.27916 71.808 8.16383 71.824 8.05054C71.84 7.93726 71.8781 7.82825 71.9363 7.72977C71.9944 7.63128 72.0713 7.54525 72.1627 7.47661C72.2541 7.40796 72.358 7.35805 72.4687 7.32974C72.5793 7.30142 72.6945 7.29526 72.8075 7.3116C72.9205 7.32794 73.0292 7.36646 73.1274 7.42496C73.2255 7.48345 73.3112 7.56078 73.3795 7.6525L74.7724 9.51305L78.35 4.13681C78.4777 3.94488 78.6763 3.81164 78.9021 3.7664C79.1279 3.72117 79.3623 3.76764 79.5539 3.89559C79.7455 4.02354 79.8785 4.22249 79.9236 4.44868C79.9688 4.67487 79.9224 4.90977 79.7947 5.10169L75.5364 11.5009C75.4594 11.6166 75.3558 11.7121 75.2343 11.7795C75.1128 11.8468 74.977 11.884 74.8382 11.8879C74.8301 11.888 74.8221 11.8882 74.814 11.8882Z" fill="white"/>
</g>
<defs>
<clipPath id="clip0_3132_92613">
<rect width="138" height="121" fill="white"/>
</clipPath>
</defs>
</svg>
