<svg width="146" height="113" viewBox="0 0 146 113" fill="none" xmlns="http://www.w3.org/2000/svg">
<g clip-path="url(#clip0_3132_92210)">
<path d="M35.3118 61.267C34.1546 55.1394 35.9765 48.1681 41.0405 44.459C40.7535 51.232 42.8972 57.8872 47.0924 63.247C48.7179 65.3083 50.7427 67.4334 50.6798 70.0471C50.6407 71.6734 49.7518 73.1884 48.5803 74.3298C47.4087 75.4712 45.9655 76.2941 44.5396 77.1042L44.3177 77.4458C40.1378 72.7813 36.469 67.3947 35.3118 61.267Z" fill="#F0F0F0"/>
<path d="M41.1327 44.5528C39.0052 49.2637 38.432 54.518 39.4947 59.5695C39.7039 60.661 40.0858 61.7131 40.6261 62.6869C41.1835 63.6187 41.9829 64.3859 42.9413 64.9087C43.8251 65.4139 44.7882 65.8294 45.5324 66.5383C45.9079 66.9068 46.2004 67.3497 46.3908 67.8379C46.5811 68.326 46.665 68.8485 46.637 69.371C46.6014 70.6748 46.0944 71.8881 45.5569 73.0576C44.9601 74.3561 44.3194 75.6955 44.3581 77.1554C44.3628 77.3323 44.0851 77.3291 44.0805 77.1525C44.0131 74.6126 45.8692 72.5727 46.2827 70.1356C46.4757 68.9983 46.3234 67.7967 45.5153 66.9152C44.8086 66.1443 43.8159 65.715 42.9166 65.2111C41.9741 64.7147 41.1688 63.9975 40.571 63.1222C39.9823 62.1787 39.5601 61.1429 39.3226 60.0593C38.7485 57.6282 38.5644 55.1228 38.777 52.6351C39.0036 49.7946 39.7198 47.0133 40.8944 44.4116C40.9672 44.2506 41.205 44.3928 41.1327 44.5528L41.1327 44.5528Z" fill="white"/>
<path d="M39.0557 57.9629C38.1749 58.0242 37.3007 57.7738 36.5892 57.2563C35.8778 56.7388 35.3754 55.9879 35.1719 55.1378C35.1313 54.9657 35.3998 54.8952 35.4404 55.0676C35.6285 55.8595 36.0965 56.5589 36.76 57.0395C37.4235 57.52 38.2387 57.7501 39.0586 57.6881C39.2368 57.6749 39.2329 57.9497 39.0557 57.9629Z" fill="white"/>
<path d="M42.4593 64.7107C43.6551 63.3729 44.2972 61.6383 44.2578 59.8528C44.2537 59.6759 44.5314 59.679 44.5354 59.8557C44.573 61.7138 43.901 63.5175 42.6536 64.907C42.5346 65.0394 42.3409 64.8423 42.4593 64.7107V64.7107Z" fill="white"/>
<path d="M39.329 49.965C39.6748 50.0116 40.0269 49.9724 40.3537 49.851C40.6804 49.7297 40.9715 49.5299 41.201 49.2697C41.3182 49.1359 41.5117 49.3331 41.3953 49.466C41.1404 49.7523 40.8186 49.9725 40.4579 50.1074C40.0972 50.2423 39.7086 50.2877 39.3261 50.2398C39.2897 50.2382 39.2552 50.223 39.2297 50.1973C39.2041 50.1715 39.1895 50.137 39.1887 50.101C39.1893 50.0646 39.2043 50.0299 39.2306 50.0045C39.2569 49.979 39.2922 49.9648 39.329 49.965H39.329Z" fill="white"/>
<path d="M61.7493 49.5276C61.6784 49.6132 61.6076 49.6988 61.5374 49.7866C60.5916 50.9423 59.7421 52.172 58.9976 53.4638C58.9384 53.5627 58.8799 53.6639 58.8238 53.7644C57.0634 56.8954 55.9059 60.3225 55.4102 63.8716C55.2142 65.284 55.1271 66.7092 55.1497 68.1347C55.181 70.1034 55.3732 72.2354 54.7633 74.0461C54.7018 74.2357 54.6285 74.4213 54.5438 74.602L44.756 77.6873C44.7302 77.6832 44.705 77.6814 44.6791 77.6774L44.294 77.8183C44.2877 77.7449 44.2827 77.6686 44.2763 77.5951C44.2724 77.5525 44.2708 77.5093 44.2669 77.4667C44.265 77.4381 44.2632 77.4094 44.2599 77.3837C44.2592 77.3742 44.2586 77.3646 44.2587 77.3573C44.2553 77.3316 44.255 77.3074 44.2523 77.2839C44.2232 76.8574 44.1963 76.4303 44.1739 76.0017C44.1732 75.9995 44.1732 75.9995 44.1747 75.9966C44.0067 72.7326 44.1126 69.4259 44.7225 66.2403C44.7409 66.1445 44.7585 66.0465 44.7813 65.9492C45.0643 64.5148 45.4652 63.1057 45.9802 61.7359C46.2647 60.9867 46.5872 60.2523 46.9467 59.5354C47.8792 57.6849 49.1001 55.991 50.5647 54.5158C53.4846 51.5755 57.3226 49.5918 61.435 49.5293C61.5402 49.5278 61.6433 49.5269 61.7493 49.5276Z" fill="#F0F0F0"/>
<path d="M61.7668 49.6571C57.2013 52.1511 53.5461 56.005 51.3205 60.6714C50.8234 61.6675 50.4881 62.735 50.3269 63.8344C50.2049 64.9104 50.3763 65.9991 50.8234 66.9874C51.2216 67.9172 51.7377 68.8227 51.9005 69.832C51.9761 70.3499 51.9401 70.8777 51.795 71.3809C51.65 71.8841 51.399 72.3513 51.0586 72.7518C50.2368 73.7715 49.0936 74.4383 47.9528 75.0519C46.6861 75.7332 45.3595 76.421 44.502 77.6097C44.3981 77.7537 44.1783 77.5858 44.282 77.442C45.7739 75.3739 48.4972 74.8507 50.3105 73.1511C51.1567 72.3581 51.7664 71.308 51.6576 70.1227C51.5624 69.0863 51.031 68.1522 50.6196 67.2142C50.1692 66.2564 49.9626 65.2041 50.018 64.1491C50.1221 63.0451 50.4153 61.9666 50.8851 60.9599C51.9062 58.6769 53.2838 56.5668 54.9674 54.7071C56.877 52.5741 59.1413 50.78 61.6624 49.4024C61.8184 49.3172 61.9218 49.5724 61.7668 49.6571Z" fill="white"/>
<path d="M51.9478 59.1272C51.2072 58.6515 50.6616 57.9308 50.4084 57.0939C50.1553 56.2569 50.2111 55.3582 50.5659 54.5582C50.6383 54.3965 50.8955 54.5002 50.8231 54.662C50.4913 55.4064 50.4394 56.2436 50.6767 57.0225C50.914 57.8014 51.425 58.4707 52.1173 58.9096C52.2676 59.0052 52.0973 59.2223 51.9478 59.1272H51.9478Z" fill="white"/>
<path d="M50.5589 66.5425C52.3278 66.1866 53.8961 65.1841 54.9511 63.735C55.0555 63.5914 55.2753 63.7592 55.171 63.9027C54.0703 65.4087 52.4361 66.4486 50.5946 66.8149C50.419 66.8497 50.3843 66.5771 50.5589 66.5425V66.5425Z" fill="white"/>
<path d="M57.0331 52.9043C57.2809 53.1474 57.5859 53.3259 57.9206 53.4236C58.2553 53.5213 58.6094 53.5352 58.9509 53.4641C59.1259 53.4272 59.1604 53.6999 58.9866 53.7366C58.6089 53.8134 58.2179 53.7975 57.8478 53.6904C57.4778 53.5832 57.1398 53.3881 56.8636 53.1219C56.8354 53.099 56.8172 53.0663 56.8125 53.0305C56.8078 52.9947 56.817 52.9585 56.8384 52.9292C56.861 52.9005 56.8941 52.8818 56.9305 52.8771C56.967 52.8724 57.0039 52.8822 57.0331 52.9043V52.9043Z" fill="white"/>
<path d="M77.1237 16.0188C77.1565 16.1614 77.1779 16.3063 77.1877 16.4523L88.6635 23.0022L91.4529 21.4135L94.4265 25.265L89.7647 28.5523C89.3881 28.8178 88.9346 28.9554 88.4723 28.9442C88.0099 28.9331 87.5637 28.7738 87.2006 28.4905L75.3671 19.2542C74.833 19.4498 74.2515 19.4799 73.6997 19.3405C73.148 19.2011 72.6522 18.8988 72.2783 18.4738C71.9045 18.0488 71.6702 17.5213 71.6068 16.9614C71.5434 16.4015 71.6537 15.8358 71.9232 15.3394C72.1927 14.8431 72.6085 14.4397 73.1154 14.1829C73.6223 13.9261 74.1961 13.8281 74.7607 13.9018C75.3252 13.9756 75.8537 14.2176 76.2758 14.5958C76.698 14.9739 76.9937 15.4703 77.1237 16.0188V16.0188Z" fill="#FFB6B6"/>
<path d="M88.8229 22.2791C88.8593 22.112 88.9317 21.9547 89.0351 21.8178C89.1386 21.681 89.2707 21.5678 89.4224 21.4861L94.7206 18.63C95.4261 18.1032 96.3141 17.8747 97.1897 17.9946C98.0653 18.1145 98.8571 18.5731 99.3914 19.2698C99.9258 19.9664 100.159 20.8443 100.04 21.7109C99.9211 22.5775 99.4597 23.3621 98.7569 23.8925L94.5106 28.1605C94.3894 28.2822 94.2431 28.3768 94.0816 28.4376C93.9202 28.4984 93.7474 28.5241 93.575 28.5128C93.4026 28.5016 93.2347 28.4538 93.0827 28.3726C92.9307 28.2914 92.7982 28.1787 92.6941 28.0422L89.0381 23.2465C88.934 23.11 88.8609 22.953 88.8237 22.786C88.7866 22.6191 88.7863 22.4462 88.8229 22.2791Z" fill="#3F3D56"/>
<path d="M98.2883 5.67537C99.0506 3.27179 100.784 1.06732 103.181 0.254778C105.579 -0.55776 109.09 0.68 110.892 2.4572C114.189 5.70804 114.993 16.8759 112.728 20.405C112.278 20.3814 110.723 20.364 110.267 20.3471L109.622 18.22V20.3261C106.063 20.2173 102.357 20.2854 98.6499 20.3559C98.3176 17.8572 97.5259 8.07895 98.2883 5.67537Z" fill="#2F2E41"/>
<path d="M97.2681 106.565H94.0218L92.4775 94.1763L97.2688 94.1765L97.2681 106.565Z" fill="#FFB6B6"/>
<path d="M125.687 104.568L122.545 105.378L117.892 93.7752L122.529 92.5798L125.687 104.568Z" fill="#FFB6B6"/>
<path d="M107.797 30.4762L108.532 32.3684L108.385 34.2605L93.989 39.1937L94.7034 30.9129L96.3215 29.0205L107.797 30.4762Z" fill="#FFB6B6"/>
<path d="M103.245 13.449C106.084 13.449 108.386 11.1714 108.386 8.36193C108.386 5.55244 106.084 3.2749 103.245 3.2749C100.405 3.2749 98.103 5.55244 98.103 8.36193C98.103 11.1714 100.405 13.449 103.245 13.449Z" fill="#FFB7B7"/>
<path d="M99.7119 1.73758C100.7 1.14169 101.831 0.819357 102.988 0.804266C104.145 0.789176 105.285 1.08189 106.289 1.65179C107.292 2.2217 108.122 3.04788 108.693 4.04393C109.263 5.03998 109.552 6.16933 109.531 7.31388C106.728 8.02261 103.741 8.31906 100.576 7.48458L99.8524 5.73267L99.4258 7.48587C98.4575 8.15977 97.5229 8.15856 96.622 7.48223C96.5838 6.3409 96.8491 5.20965 97.3913 4.20155C97.9335 3.19345 98.7337 2.34381 99.7119 1.73758Z" fill="#2F2E41"/>
<path d="M98.7204 112.663H96.4168L96.0057 110.512L94.9526 112.663H88.8429C88.5501 112.663 88.2649 112.571 88.029 112.399C87.7931 112.227 87.6189 111.986 87.5317 111.709C87.4445 111.432 87.4491 111.135 87.5446 110.862C87.6401 110.588 87.8215 110.351 88.0625 110.187L92.9415 106.853V104.677L98.0733 104.981L98.7204 112.663Z" fill="#2F2E41"/>
<path d="M128.931 110.033L126.702 110.608L125.756 108.629L125.285 110.974L119.373 112.498C119.09 112.571 118.79 112.553 118.518 112.446C118.246 112.338 118.016 112.148 117.861 111.902C117.706 111.656 117.635 111.368 117.657 111.079C117.68 110.79 117.795 110.516 117.987 110.296L121.858 105.853L121.303 103.748L126.346 102.76L128.931 110.033Z" fill="#2F2E41"/>
<path d="M125.288 96.777L115.773 77.4274L112.785 53.8764C114.845 50.0921 111.02 42.3918 111.02 42.3918V39.1587L96.2029 41.9243V41.9243C93.1723 50.1022 91.7027 58.7657 91.8688 67.4744L92.4658 98.7802H92.2785C91.9678 98.7802 91.6697 98.9024 91.4499 99.1198C91.2302 99.3372 91.1067 99.6321 91.1067 99.9396C91.1067 100.247 91.2302 100.542 91.4499 100.759C91.6697 100.977 91.9678 101.099 92.2785 101.099H98.1378C98.4486 101.099 98.7467 100.977 98.9665 100.759C99.1862 100.542 99.3097 100.247 99.3097 99.9396C99.3097 99.6321 99.1862 99.3372 98.9665 99.1198C98.7467 98.9024 98.4486 98.7802 98.1378 98.7802H97.9868L102.193 58.9536L107.084 78.607L118.903 96.7027C118.602 96.7259 118.321 96.8638 118.12 97.0875C117.919 97.3111 117.814 97.6031 117.826 97.902C117.838 98.201 117.967 98.4836 118.185 98.6906C118.404 98.8976 118.695 99.0128 118.997 99.0121H124.856C125.129 99.0124 125.393 98.9186 125.603 98.7469C125.813 98.5752 125.956 98.3363 126.007 98.0715C126.058 97.8067 126.015 97.5325 125.883 97.2962C125.752 97.0599 125.542 96.8763 125.288 96.777H125.288Z" fill="#2F2E41"/>
<path d="M112.359 44.3736H112.359C112.311 44.1845 112.203 44.0154 112.051 43.8906C111.899 43.7659 111.711 43.6919 111.515 43.6792C111.319 41.47 110.029 27.302 109.98 26.8863L109.978 26.8687L109.604 18.9715C109.591 18.6847 109.471 18.4129 109.267 18.208C109.064 18.0031 108.792 17.8794 108.502 17.8607L106.528 17.7331C106.501 17.7322 106.476 17.7209 106.457 17.7016C106.438 17.6824 106.427 17.6566 106.427 17.6298C106.427 17.4142 106.385 17.2007 106.301 17.0014C106.218 16.8022 106.095 16.6212 105.941 16.4687C105.787 16.3163 105.604 16.1953 105.403 16.1128C105.202 16.0303 104.986 15.9878 104.768 15.9878H98.9246C98.5462 15.9879 98.1808 16.1248 97.897 16.3725C97.6132 16.6203 97.4307 16.962 97.3835 17.3336C97.3809 17.3592 97.3686 17.3828 97.3492 17.3999C97.3297 17.4169 97.3045 17.426 97.2785 17.4254L97.2778 17.4254C96.6139 17.4119 95.967 17.6343 95.4546 18.0522C94.9422 18.4702 94.5983 19.056 94.4851 19.7035C93.6863 24.3018 92.0854 34.7384 92.8769 40.5405C93.1525 42.5604 93.0272 45.5982 92.923 47.2881C92.9127 47.4515 92.935 47.6152 92.9887 47.77C93.0424 47.9247 93.1265 48.0675 93.2361 48.1901C93.003 48.2565 92.8052 48.4099 92.6842 48.6179C92.5633 48.8258 92.5287 49.0721 92.5877 49.3049H92.5877C92.6485 49.5434 92.8026 49.7483 93.016 49.8744C93.2295 50.0005 93.4848 50.0376 93.7259 49.9775L111.68 45.4997C111.921 45.4396 112.128 45.2872 112.255 45.076C112.383 44.8648 112.42 44.6122 112.359 44.3736Z" fill="#3F3D56"/>
<path d="M82.6867 77.5747C82.6833 77.0562 82.4945 76.5555 82.1536 76.1615C81.8127 75.7676 81.3419 75.5058 80.8245 75.4226L48.9934 70.2511C48.6882 70.2012 48.3758 70.2149 48.0762 70.2915L40.6164 72.1998L36.3362 73.2961L28.4372 75.3163C27.9604 75.4388 27.5382 75.7144 27.2367 76.0999C26.9352 76.4854 26.7716 76.959 26.7715 77.4464V110.446C26.7739 110.949 26.9496 111.436 27.2696 111.827C27.5896 112.218 28.0348 112.49 28.5317 112.596L60.9539 112.233C61.1062 112.265 61.2615 112.281 61.4172 112.281C61.644 112.281 61.8696 112.247 62.0861 112.18L81.3489 112.654C81.8035 112.514 82.2002 112.232 82.4803 111.851C82.7603 111.47 82.9087 111.01 82.9035 110.539L82.6867 77.5747Z" fill="white"/>
<path d="M82.6867 77.5747C82.6833 77.0562 82.4945 76.5555 82.1536 76.1615C81.8127 75.7676 81.3419 75.5058 80.8245 75.4226L48.9934 70.2511C48.6882 70.2012 48.3758 70.2149 48.0762 70.2915L40.6164 72.1998L36.3362 73.2961L28.4372 75.3163C27.9604 75.4388 27.5382 75.7144 27.2367 76.0999C26.9352 76.4854 26.7716 76.959 26.7715 77.4464V110.446C26.7739 110.949 26.9496 111.436 27.2696 111.827C27.5896 112.218 28.0348 112.49 28.5317 112.596L60.9539 112.233C61.1062 112.265 61.2615 112.281 61.4172 112.281C61.644 112.281 61.8696 112.247 62.0861 112.18L81.3489 112.654C81.8035 112.514 82.2002 112.232 82.4803 111.851C82.7603 111.47 82.9087 111.01 82.9035 110.539L82.6867 77.5747ZM81.1821 112.13L61.9193 112.583C61.6445 112.668 61.3524 112.682 61.0706 112.623L28.6466 112.059C28.2741 111.979 27.9403 111.775 27.7005 111.482C27.4607 111.189 27.329 110.823 27.3274 110.446V77.4464C27.3276 77.1086 27.4325 76.779 27.628 76.502C27.8235 76.225 28.1001 76.014 28.4206 75.8974C28.4715 75.8785 28.5234 75.8626 28.5762 75.8497L36.9328 73.7122L41.8745 72.4473L48.2152 70.8249C48.3511 70.789 48.4913 70.7711 48.6321 70.7718C48.7227 70.7717 48.8132 70.7791 48.9026 70.7938L80.7337 75.9652C80.9898 76.0068 81.2327 76.1068 81.443 76.2573C81.6533 76.4078 81.8254 76.6047 81.9455 76.8323C82.0657 77.0631 82.1292 77.3187 82.1308 77.5784L82.3476 110.542C82.3516 110.896 82.2404 111.241 82.0305 111.527C81.8205 111.813 81.523 112.024 81.1821 112.13Z" fill="#CCCCCC"/>
<path d="M81.9455 76.8324C81.9239 76.8464 81.9001 76.8569 81.8751 76.8635L72.5124 79.3677L69.5978 80.1468L61.3079 82.3631C61.2842 82.3689 61.26 82.3719 61.2356 82.3723C61.2189 82.372 61.2022 82.3707 61.1856 82.3686L27.7591 76.3392L27.648 76.3191C27.5755 76.3056 27.5115 76.2643 27.4697 76.2043C27.428 76.1442 27.412 76.0702 27.4252 75.9985C27.4384 75.9268 27.4798 75.8632 27.5403 75.8216C27.6008 75.78 27.6755 75.7637 27.748 75.7764L28.4206 75.8974L61.2245 81.815L68.3693 79.9048L72.366 78.836L81.5842 76.3704L81.7306 76.3319C81.7939 76.3154 81.861 76.3214 81.9203 76.3489C81.9795 76.3763 82.0272 76.4235 82.0549 76.4822C82.062 76.4962 82.0676 76.511 82.0715 76.5262C82.0868 76.5839 82.0828 76.6449 82.0601 76.7C82.0373 76.7552 81.9972 76.8017 81.9455 76.8324Z" fill="#CCCCCC"/>
<path d="M61.5137 112.345C61.3613 112.345 61.2372 112.224 61.2357 113L60.9578 83.0273C60.9563 81.9479 61.0797 81.8237 61.2332 81.8223H61.2357C61.3881 81.8223 61.5122 81.9436 61.5137 83.0222L61.7916 112.995C61.793 112.219 61.6696 112.343 61.5162 112.345H61.5137Z" fill="#CCCCCC"/>
<path d="M72.5911 112.693L69.5977 112.724L68.3692 79.9049L37.0236 73.7343C36.9929 73.729 36.9626 73.7216 36.9328 73.7123C36.692 73.6445 36.4817 73.4978 36.3362 73.2962L40.6164 72.2L41.8745 72.4474L71.6174 78.3008C71.7738 78.3314 71.9217 78.395 72.0509 78.4874C72.1801 78.5798 72.2876 78.6988 72.366 78.8361C72.4586 78.9956 72.5893 112.502 72.5911 112.693Z" fill="#CCCCCC"/>
<path d="M96.5681 17.5045C96.5656 17.1137 96.4233 16.7364 96.1664 16.4395C95.9095 16.1426 95.5546 15.9453 95.1647 15.8826L71.1751 11.9851C70.9451 11.9474 70.7096 11.9578 70.4839 12.0155L64.8618 13.4537L61.636 14.2799L55.6829 15.8024C55.3235 15.8948 55.0053 16.1025 54.7781 16.393C54.5509 16.6836 54.4276 17.0405 54.4275 17.4078V36.8606C54.4293 37.2398 54.5617 37.607 54.8029 37.9016C55.0441 38.1963 55.3796 38.4007 55.7541 38.4812L80.1892 43.6249C80.3039 43.6493 80.421 43.6614 80.5383 43.6609C80.7093 43.6612 80.8793 43.6355 81.0424 43.5849L95.5599 39.0491C95.9025 38.9433 96.2015 38.7311 96.4126 38.4439C96.6237 38.1567 96.7355 37.8098 96.7315 37.4547L96.5681 17.5045Z" fill="white"/>
<path d="M70.9035 13.4136C70.886 13.4136 70.8686 13.4158 70.8516 13.4202L56.0506 17.2072C56.0057 17.2187 55.9659 17.2446 55.9376 17.2808C55.9092 17.3171 55.8938 17.3617 55.8938 17.4075V36.86C55.894 36.9074 55.9105 36.9533 55.9406 36.9901C55.9707 37.0269 56.0126 37.0525 56.0594 37.0625L80.4945 42.2061C80.5299 42.2135 80.5666 42.2117 80.6011 42.201L95.1189 37.6654C95.1617 37.6522 95.199 37.6257 95.2253 37.5898C95.2516 37.5539 95.2655 37.5106 95.2649 37.4662L95.1023 17.5161C95.1019 17.4673 95.0841 17.4202 95.052 17.3831C95.0199 17.3461 94.9756 17.3214 94.9269 17.3136L70.9373 13.4163C70.9261 13.4145 70.9148 13.4136 70.9035 13.4136Z" fill="#289672"/>
<path d="M96.5681 17.5045C96.5656 17.1137 96.4233 16.7364 96.1664 16.4395C95.9095 16.1426 95.5546 15.9453 95.1647 15.8826L71.1751 11.9851C70.9451 11.9474 70.7096 11.9578 70.4839 12.0155L64.8618 13.4537L61.636 14.2799L55.6829 15.8024C55.3235 15.8948 55.0053 16.1025 54.7781 16.393C54.5509 16.6836 54.4276 17.0405 54.4275 17.4078V36.8606C54.4293 37.2398 54.5617 37.607 54.8029 37.9016C55.0441 38.1963 55.3796 38.4007 55.7541 38.4812L80.1892 43.6249C80.3039 43.6493 80.421 43.6614 80.5383 43.6609C80.7093 43.6612 80.8793 43.6355 81.0424 43.5849L95.5599 39.0491C95.9025 38.9433 96.2015 38.7311 96.4126 38.4439C96.6237 38.1567 96.7355 37.8098 96.7315 37.4547L96.5681 17.5045ZM95.4342 38.654L80.9167 43.1897C80.7096 43.2535 80.4895 43.264 80.2772 43.2201L55.8407 38.0765C55.5599 38.0159 55.3084 37.8624 55.1276 37.6414C54.9469 37.4204 54.8477 37.145 54.8464 36.8607V17.4079C54.8466 17.1533 54.9257 16.9048 55.073 16.6961C55.2203 16.4873 55.4288 16.3283 55.6703 16.2404C55.7087 16.2262 55.7479 16.2142 55.7876 16.2045L62.0856 14.5936L65.81 13.6403L70.5886 12.4175C70.6911 12.3905 70.7967 12.377 70.9028 12.3775C70.9711 12.3774 71.0393 12.383 71.1067 12.394L95.0963 16.2915C95.2893 16.3229 95.4723 16.3982 95.6309 16.5117C95.7894 16.6251 95.919 16.7735 96.0096 16.945C96.1002 17.119 96.148 17.3116 96.1492 17.5073L96.3126 37.4575C96.3156 37.7239 96.2318 37.9841 96.0736 38.1996C95.9154 38.4151 95.6912 38.5744 95.4342 38.654V38.654Z" fill="#3F3D56"/>
<path d="M96.0096 16.945C95.9932 16.9556 95.9753 16.9635 95.9565 16.9685L88.9002 18.8557L86.7036 19.4429L80.4559 21.1133C80.4381 21.1176 80.4198 21.1199 80.4014 21.1202C80.3888 21.1199 80.3762 21.119 80.3637 21.1174L55.1718 16.5734L55.088 16.5582C55.0334 16.5481 54.985 16.517 54.9535 16.4717C54.922 16.4264 54.9099 16.3706 54.9199 16.3165C54.9299 16.2625 54.9611 16.2145 55.0067 16.1831C55.0524 16.1518 55.1087 16.1396 55.1634 16.1492L55.6703 16.2404L80.3931 20.7002L85.7777 19.2606L88.7899 18.4551L95.7372 16.5968L95.8475 16.5678C95.8952 16.5554 95.9458 16.5599 95.9905 16.5806C96.0352 16.6013 96.0711 16.6369 96.0919 16.6811C96.0973 16.6917 96.1015 16.7028 96.1045 16.7143C96.116 16.7577 96.113 16.8037 96.0959 16.8453C96.0787 16.8869 96.0485 16.9219 96.0096 16.945Z" fill="#3F3D56"/>
<path d="M80.6108 43.7091C80.5556 43.7091 80.5026 43.6875 80.4634 43.649C80.4242 43.6106 80.4019 43.5584 80.4014 43.5037L80.1919 20.9147C80.1914 20.8597 80.213 20.8068 80.2519 20.7676C80.2908 20.7284 80.3439 20.7061 80.3995 20.7056H80.4014C80.4566 20.7056 80.5096 20.7271 80.5488 20.7656C80.588 20.8041 80.6103 20.8563 80.6108 20.9109L80.8203 43.5C80.8208 43.5549 80.7992 43.6078 80.7603 43.647C80.7214 43.6862 80.6683 43.7086 80.6127 43.7091H80.6108Z" fill="#3F3D56"/>
<path d="M88.9003 40.9611L86.7037 41.5483L85.7778 19.2604L62.1541 14.61C62.1309 14.6059 62.1081 14.6004 62.0857 14.5934C61.9042 14.5423 61.7456 14.4317 61.636 14.2798L64.8618 13.4536L65.81 13.6401L88.2258 18.0516C88.3437 18.0746 88.4551 18.1226 88.5525 18.1922C88.6499 18.2618 88.7309 18.3515 88.79 18.455C88.8598 18.5752 88.8989 40.8174 88.9003 40.9611Z" fill="#3F3D56"/>
<path d="M87.9162 28.2533C88.0285 28.3483 88.1331 28.452 88.229 28.5633L101.388 27.0429L102.668 24.1211L107.377 25.4556L105.62 30.8459C105.478 31.2813 105.197 31.6595 104.819 31.9235C104.441 32.1876 103.987 32.3233 103.525 32.3103L88.4583 31.8865C88.1478 32.3588 87.6993 32.7263 87.1725 32.9403C86.6457 33.1542 86.0655 33.2044 85.5092 33.0841C84.9529 32.9639 84.4467 32.6789 84.0581 32.2671C83.6694 31.8553 83.4167 31.3362 83.3335 30.7789C83.2504 30.2215 83.3407 29.6523 83.5925 29.147C83.8443 28.6416 84.2456 28.2241 84.743 27.9499C85.2405 27.6757 85.8106 27.5579 86.3774 27.6121C86.9442 27.6663 87.4809 27.8899 87.9162 28.2533Z" fill="#FFB6B6"/>
<path d="M101.08 26.3688C101.008 26.2132 100.971 26.0442 100.972 25.8733C100.972 25.7024 101.01 25.5336 101.082 25.3784L103.611 19.9584C103.859 19.1192 104.434 18.4116 105.208 17.9909C105.983 17.5702 106.895 17.4706 107.744 17.7141C108.593 17.9576 109.31 18.5242 109.737 19.2897C110.165 20.0552 110.268 20.9571 110.024 21.7977L109.191 27.7295C109.167 27.8988 109.107 28.061 109.014 28.2051C108.921 28.3493 108.798 28.4719 108.653 28.5647C108.508 28.6574 108.344 28.7182 108.173 28.7428C108.002 28.7674 107.828 28.7552 107.662 28.7072L101.836 27.0179C101.67 26.9699 101.517 26.887 101.386 26.775C101.256 26.663 101.151 26.5244 101.08 26.3688Z" fill="#3F3D56"/>
<path d="M145.221 112.934H0.778984C0.705113 112.934 0.634337 112.905 0.582177 112.853C0.530018 112.801 0.500732 112.731 0.500732 112.658C0.500732 112.585 0.530018 112.515 0.582177 112.463C0.634337 112.411 0.705113 112.382 0.778984 112.382H145.221C145.295 112.382 145.366 112.411 145.418 112.463C145.471 112.515 145.5 112.585 145.5 112.658C145.5 112.731 145.471 112.802 145.418 112.853C145.366 112.905 145.295 112.934 145.221 112.934Z" fill="#CACACA"/>
<path d="M28.6509 83.5976C33.2863 83.5976 37.044 79.8798 37.044 75.2938C37.044 70.7077 33.2863 66.99 28.6509 66.99C24.0155 66.99 20.2578 70.7077 20.2578 75.2938C20.2578 79.8798 24.0155 83.5976 28.6509 83.5976Z" fill="#289672"/>
<path d="M27.506 79.6155C27.3611 79.6155 27.2181 79.5821 27.0885 79.518C26.9589 79.4538 26.8461 79.3607 26.7592 79.246L24.4694 76.2254C24.3209 76.0294 24.2571 75.7831 24.2921 75.5405C24.3271 75.298 24.4581 75.0792 24.6562 74.9323C24.8543 74.7853 25.1033 74.7222 25.3484 74.7568C25.5935 74.7915 25.8147 74.921 25.9632 75.117L27.4612 77.093L31.3088 71.3832C31.3766 71.2819 31.464 71.1948 31.5659 71.1269C31.6678 71.059 31.7823 71.0117 31.9027 70.9877C32.0231 70.9637 32.1471 70.9634 32.2677 70.9869C32.3882 71.0104 32.5029 71.0572 32.6051 71.1246C32.7073 71.192 32.7951 71.2788 32.8634 71.3798C32.9316 71.4808 32.9791 71.5942 33.003 71.7135C33.0269 71.8327 33.0268 71.9554 33.0027 72.0746C32.9785 72.1937 32.9309 72.307 32.8624 72.408L28.2829 79.2042C28.2001 79.3271 28.0886 79.4285 27.958 79.5001C27.8273 79.5716 27.6812 79.6111 27.532 79.6152C27.5233 79.6154 27.5147 79.6155 27.506 79.6155Z" fill="white"/>
<path d="M64.3884 31.188C64.3623 31.1879 64.3362 31.185 64.3108 31.1794L57.0453 29.5562C56.9544 29.5358 56.8754 29.4806 56.8257 29.4026C56.776 29.3247 56.7596 29.2304 56.7801 29.1405C56.8006 29.0505 56.8563 28.9723 56.9351 28.9231C57.0138 28.8738 57.1091 28.8574 57.2 28.8776L64.4655 30.5007C64.5499 30.5196 64.6242 30.5685 64.6744 30.6382C64.7246 30.7079 64.747 30.7934 64.7375 30.8785C64.728 30.9635 64.6871 31.0421 64.6227 31.0992C64.5583 31.1563 64.4748 31.1879 64.3884 31.188Z" fill="white"/>
<path d="M36.4266 96.5161C36.401 96.5213 36.3749 96.5238 36.3488 96.5233L28.9014 96.3993C28.8083 96.3975 28.7197 96.3593 28.655 96.2931C28.5904 96.2268 28.5549 96.1378 28.5564 96.0457C28.558 95.9536 28.5964 95.8658 28.6633 95.8017C28.7301 95.7376 28.82 95.7023 28.9131 95.7037L36.3605 95.8277C36.447 95.8292 36.5299 95.8621 36.5933 95.9202C36.6568 95.9783 36.6964 96.0575 36.7046 96.1427C36.7128 96.2279 36.6889 96.313 36.6376 96.3819C36.5863 96.4508 36.5112 96.4986 36.4266 96.5161Z" fill="#E6E6E6"/>
<path d="M39.0044 100.458C38.9789 100.463 38.9528 100.466 38.9267 100.465L31.4793 100.341C31.3862 100.339 31.2976 100.301 31.2329 100.235C31.1682 100.169 31.1328 100.08 31.1343 99.9876C31.1359 99.8955 31.1743 99.8077 31.2412 99.7436C31.308 99.6795 31.3979 99.6442 31.491 99.6455L38.9384 99.7696C39.0248 99.7711 39.1077 99.804 39.1712 99.8621C39.2347 99.9202 39.2743 99.9994 39.2825 100.085C39.2906 100.17 39.2668 100.255 39.2155 100.324C39.1642 100.393 39.0891 100.44 39.0044 100.458Z" fill="#E6E6E6"/>
</g>
<defs>
<clipPath id="clip0_3132_92210">
<rect width="145" height="113" fill="white" transform="translate(0.5)"/>
</clipPath>
</defs>
</svg>
