<svg width="20" height="16" viewBox="0 0 20 16" fill="none" xmlns="http://www.w3.org/2000/svg">
<path d="M16.6673 6.75016C16.4463 6.75016 16.2343 6.83796 16.0781 6.99424C15.9218 7.15052 15.834 7.36248 15.834 7.5835V13.4168C15.834 13.6378 15.7462 13.8498 15.5899 14.0061C15.4336 14.1624 15.2217 14.2502 15.0006 14.2502H3.33398C3.11297 14.2502 2.90101 14.1624 2.74473 14.0061C2.58845 13.8498 2.50065 13.6378 2.50065 13.4168V6.75016C2.50065 6.52915 2.58845 6.31719 2.74473 6.16091C2.90101 6.00463 3.11297 5.91683 3.33398 5.91683H5.00065C5.18237 5.92631 5.3622 5.87606 5.51268 5.77373C5.66315 5.67141 5.776 5.52265 5.83398 5.35016L6.28398 3.9835C6.33989 3.81798 6.4464 3.67422 6.58846 3.57253C6.73052 3.47085 6.90095 3.41638 7.07565 3.41683H11.6673C11.8883 3.41683 12.1003 3.32903 12.2566 3.17275C12.4129 3.01647 12.5007 2.80451 12.5007 2.5835C12.5007 2.36248 12.4129 2.15052 12.2566 1.99424C12.1003 1.83796 11.8883 1.75016 11.6673 1.75016H7.03398C6.51027 1.75114 6.0001 1.91657 5.57546 2.22308C5.15082 2.5296 4.83316 2.96174 4.66732 3.4585L4.40065 4.29183H3.33398C2.67094 4.29183 2.03506 4.55522 1.56622 5.02406C1.09738 5.4929 0.833984 6.12879 0.833984 6.79183V13.4585C0.833984 14.1215 1.09738 14.7574 1.56622 15.2263C2.03506 15.6951 2.67094 15.9585 3.33398 15.9585H15.0006C15.6637 15.9585 16.2996 15.6951 16.7684 15.2263C17.2373 14.7574 17.5006 14.1215 17.5006 13.4585V7.62516C17.5063 7.51227 17.4889 7.39941 17.4496 7.29345C17.4102 7.18749 17.3498 7.09063 17.2718 7.00878C17.1939 6.92693 17.1001 6.8618 16.9961 6.81734C16.8922 6.77288 16.7803 6.75002 16.6673 6.75016ZM9.16732 5.91683C8.50805 5.91683 7.86358 6.11233 7.31542 6.4786C6.76725 6.84487 6.34001 7.36546 6.08772 7.97455C5.83543 8.58364 5.76942 9.25386 5.89803 9.90046C6.02665 10.5471 6.34412 11.141 6.81029 11.6072C7.27647 12.0734 7.87041 12.3908 8.51702 12.5194C9.16362 12.6481 9.83384 12.5821 10.4429 12.3298C11.052 12.0775 11.5726 11.6502 11.9389 11.1021C12.3052 10.5539 12.5007 9.90943 12.5007 9.25016C12.5006 8.36611 12.1495 7.51826 11.5243 6.89314C10.8992 6.26802 10.0514 5.91683 9.16732 5.91683ZM9.16732 10.9168C8.83768 10.9168 8.51545 10.8191 8.24137 10.6359C7.96728 10.4528 7.75366 10.1925 7.62752 9.88797C7.50137 9.58342 7.46837 9.24831 7.53267 8.92501C7.59698 8.60171 7.75572 8.30474 7.98881 8.07165C8.22189 7.83856 8.51886 7.67983 8.84217 7.61552C9.16547 7.55121 9.50058 7.58422 9.80512 7.71036C10.1097 7.83651 10.37 8.05013 10.5531 8.32421C10.7362 8.59829 10.834 8.92053 10.834 9.25016C10.834 9.69219 10.6584 10.1161 10.3458 10.4287C10.0333 10.7412 9.60934 10.9168 9.16732 10.9168ZM18.334 1.75016H17.5006V0.916829C17.5006 0.695816 17.4129 0.483854 17.2566 0.327574C17.1003 0.171293 16.8883 0.0834961 16.6673 0.0834961C16.4463 0.0834961 16.2343 0.171293 16.0781 0.327574C15.9218 0.483854 15.834 0.695816 15.834 0.916829V1.75016H15.0006C14.7796 1.75016 14.5677 1.83796 14.4114 1.99424C14.2551 2.15052 14.1673 2.36248 14.1673 2.5835C14.1673 2.80451 14.2551 3.01647 14.4114 3.17275C14.5677 3.32903 14.7796 3.41683 15.0006 3.41683H15.834V4.25016C15.834 4.47118 15.9218 4.68314 16.0781 4.83942C16.2343 4.9957 16.4463 5.0835 16.6673 5.0835C16.8883 5.0835 17.1003 4.9957 17.2566 4.83942C17.4129 4.68314 17.5006 4.47118 17.5006 4.25016V3.41683H18.334C18.555 3.41683 18.767 3.32903 18.9232 3.17275C19.0795 3.01647 19.1673 2.80451 19.1673 2.5835C19.1673 2.36248 19.0795 2.15052 18.9232 1.99424C18.767 1.83796 18.555 1.75016 18.334 1.75016Z" fill="white"/>
</svg>
