<svg width="19" height="19" viewBox="0 0 19 19" fill="none" xmlns="http://www.w3.org/2000/svg">
<path fill-rule="evenodd" clip-rule="evenodd" d="M8.39998 2.39998C5.08627 2.39998 2.39998 5.08627 2.39998 8.39998C2.39998 11.7137 5.08627 14.4 8.39998 14.4C11.7137 14.4 14.4 11.7137 14.4 8.39998C14.4 5.08627 11.7137 2.39998 8.39998 2.39998ZM0.599976 8.39998C0.599976 4.09215 4.09215 0.599976 8.39998 0.599976C12.7078 0.599976 16.2 4.09215 16.2 8.39998C16.2 10.2296 15.57 11.9121 14.5152 13.2424L18.3364 17.0636C18.6878 17.415 18.6878 17.9849 18.3364 18.3364C17.9849 18.6878 17.415 18.6878 17.0636 18.3364L13.2424 14.5152C11.9121 15.57 10.2296 16.2 8.39998 16.2C4.09215 16.2 0.599976 12.7078 0.599976 8.39998Z" fill="#99A2AD"/>
</svg>
