<svg width="223" height="135" viewBox="0 0 223 135" fill="none" xmlns="http://www.w3.org/2000/svg">
<path d="M215.14 25.4631C232.406 54.6261 186.664 90.8954 127.178 114.598C69.1405 137.724 12.7407 135.014 1.83831 101.167C-9.21253 66.8876 30.7472 32.528 89.7996 12.0392C143.27 -6.51552 197.213 -4.8012 215.14 25.4631Z" fill="#7ABBA6"/>
<path d="M218.314 29.7815C235.576 58.9469 189.839 95.2138 130.351 118.919C72.3151 142.047 15.9153 139.334 5.01041 105.487C-6.03795 71.2084 33.9218 36.8488 92.9742 16.3575C146.449 -2.19716 200.397 -0.482841 218.314 29.7815Z" stroke="black" stroke-miterlimit="10"/>
<path d="M58.9909 89.0398C58.4531 94.3114 58.2626 98.4311 58.4193 101.399C58.5001 103.12 58.4795 104.104 58.3574 104.351C58.2544 104.543 58.1139 104.713 57.944 104.85C57.7741 104.988 57.5782 105.09 57.3676 105.152C57.1885 105.234 56.9926 105.274 56.7953 105.267C56.5981 105.261 56.4052 105.209 56.2319 105.116C55.9462 104.97 55.7213 104.729 55.5959 104.437C55.266 103.623 55.191 101.161 55.3708 97.0522C55.5322 93.5971 55.8742 90.1525 56.3952 86.7321C55.9571 86.227 55.5901 85.666 55.3039 85.0642C55.1873 84.7976 55.1377 84.5072 55.1592 84.2177C55.1807 83.9281 55.2728 83.648 55.4277 83.4011C55.5696 83.1545 55.792 82.9625 56.0587 82.8566C56.3966 82.7513 56.7527 82.7147 57.1053 82.7491C57.1895 82.1972 57.5012 80.1727 58.0407 76.6757C58.392 73.2129 58.5463 71.2007 58.5034 70.639C58.1149 71.0273 57.8106 71.3545 57.5953 71.6158C57.4319 71.83 57.2212 72.0046 56.9791 72.1262C56.8572 72.1665 56.7267 72.1749 56.6005 72.1505C56.4742 72.1261 56.3566 72.0698 56.2591 71.987C56.058 71.8423 55.9041 71.6428 55.8162 71.4131C55.473 70.5519 55.7551 69.5653 56.6624 68.4533C57.2601 67.7077 57.9109 67.0051 58.6098 66.3507C58.5241 65.7482 58.4935 65.1393 58.5182 64.5314C58.5359 64.2723 58.6309 64.0241 58.7911 63.8182C58.9514 63.6122 59.1698 63.4576 59.4189 63.3739C60.0128 63.1443 60.6595 63.2721 61.3589 63.7573C62.0358 63.2245 62.7466 62.735 63.4869 62.292C64.1374 61.905 64.8185 61.5701 65.5234 61.2908C67.5508 60.5012 69.3159 60.4719 70.8187 61.2029C72.2444 61.8971 73.3454 63.1053 73.8944 64.5778C74.9056 67.1127 74.8586 69.9007 73.7534 72.9418C72.7075 75.7795 70.836 78.3705 68.1389 80.7149C66.1933 82.4426 63.9554 83.8196 61.5272 84.7833C61.1246 84.9461 60.5027 85.1586 59.6614 85.4207C60.3834 86.3957 61.1845 87.3112 62.0567 88.1582C63.5595 89.5453 65.704 91.5389 68.4902 94.1388C69.2656 94.8128 70.4648 95.7408 72.0881 96.9228C72.457 97.164 72.7502 97.5024 72.9343 97.8996C73.0646 98.2252 72.997 98.6102 72.7314 99.0547C72.5316 99.4025 72.2332 99.6852 71.8728 99.8679C71.4373 100.031 70.7923 99.7539 69.9378 99.0376L68.3789 97.7897C66.1684 96.121 63.039 93.2043 58.9909 89.0398ZM59.9559 82.2021C60.6339 81.9774 61.1387 81.8008 61.4702 81.6722C65.0879 80.2655 67.9689 77.6998 70.1135 73.9748C71.0338 72.3895 71.6527 70.6515 71.9396 68.8465C72.1255 67.7853 72.0134 66.6942 71.6154 65.6914C71.2063 64.6755 70.5737 64.0397 69.7175 63.7841C68.8614 63.5285 67.7768 63.6571 66.4637 64.17C65.2385 64.6554 64.1132 65.3572 63.143 66.2408C62.7405 66.5941 62.1812 67.1403 61.4653 67.8795C61.4059 69.4961 61.208 71.8795 60.8714 75.0298C60.5349 78.18 60.2297 80.5732 59.9559 82.2094V82.2021Z" fill="white"/>
<path d="M84.2937 87.4108C84.1467 88.493 83.9159 89.5625 83.6033 90.6099C83.0391 92.3828 82.2143 93.4801 81.1289 93.9018C80.1836 94.2681 79.2763 94.1142 78.407 93.4402C77.8159 92.9573 77.3658 92.3276 77.103 91.616C76.3392 89.7015 76.1066 87.3514 76.4052 84.5658C76.7351 81.4644 77.588 78.8506 78.9637 76.7244C79.8644 75.3373 80.8996 74.4167 82.0692 73.9624C82.7377 73.6774 83.4929 73.6625 84.1724 73.9209C84.4344 74.0129 84.6738 74.1583 84.875 74.3476C85.0762 74.5369 85.2348 74.766 85.3404 75.0198C85.5144 75.5866 85.5773 76.1808 85.526 76.7708C85.8611 76.9544 86.1313 77.2348 86.3004 77.5742C86.444 77.9381 86.439 78.6268 86.2807 79.6451C86.0966 80.9546 86.037 82.2783 86.1025 83.5988C86.1553 85.2935 86.3598 86.5886 86.7162 87.4841C86.9533 88.1506 87.4441 88.6997 88.0845 89.0152C88.5133 89.1279 88.9547 89.187 89.3985 89.1911C89.6441 89.2033 89.8801 89.2894 90.0747 89.4378C90.2693 89.5862 90.4133 89.7899 90.4872 90.0214C90.5528 90.172 90.5826 90.3355 90.5745 90.4993C90.5663 90.663 90.5204 90.8228 90.4402 90.9664C90.2772 91.2865 89.998 91.5341 89.6583 91.66C88.7163 92.0295 87.7381 91.9319 86.7236 91.3669C85.8625 90.8736 85.2067 90.0948 84.8727 89.1691C84.7317 88.815 84.5411 88.2313 84.2937 87.4108ZM84.1675 77.628C83.8736 77.367 83.527 77.1706 83.1505 77.0516C82.8571 76.9655 82.543 76.9775 82.2572 77.0858C80.9276 77.6035 79.9444 79.313 79.3077 82.2141C78.6066 85.4165 78.6066 87.8968 79.3077 89.6551C79.422 90.0088 79.6462 90.3181 79.9486 90.5391C80.0798 90.6188 80.2292 90.6648 80.383 90.6729C80.5369 90.681 80.6904 90.6509 80.8295 90.5855C81.6675 90.2599 82.2943 88.9998 82.71 86.8052C83.0173 85.0924 83.2271 83.364 83.3385 81.628C83.3982 80.6383 83.5196 79.653 83.7023 78.678C83.8069 78.3083 83.9635 77.9548 84.1675 77.628Z" fill="white"/>
<path d="M94.3258 76.2134C95.0147 74.5218 95.8665 72.8994 96.8695 71.3684C98.0754 69.5775 99.0363 68.5462 99.7522 68.2743C100.08 68.1582 100.44 68.1669 100.762 68.2987C100.953 68.3571 101.129 68.4569 101.277 68.5908C101.425 68.7247 101.54 68.8894 101.615 69.0728C101.804 69.5368 101.721 70.407 101.368 71.6834C100.741 73.7909 100.326 75.9545 100.131 78.1426C100.005 79.7446 100.038 80.7874 100.23 81.2709C100.421 81.7544 100.741 81.8985 101.19 81.7031C102.135 81.3368 103.064 79.0625 103.976 74.88C104.162 74.0326 104.436 73.5369 104.805 73.3928C105.174 73.2487 105.438 73.3928 105.602 73.8006C105.871 74.473 105.721 76.0197 105.151 78.4405C104.657 80.5456 103.957 82.2827 103.053 83.6519C102.405 84.6018 101.719 85.2148 101.004 85.4956C100.675 85.6443 100.308 85.6928 99.9508 85.6349C99.5934 85.5771 99.2615 85.4155 98.9975 85.1708C98.6226 84.8455 98.3338 84.4348 98.1562 83.9742C97.5426 82.4374 97.3933 80.4723 97.7083 78.0791C97.7842 77.5126 98.0399 75.8788 98.4754 73.1779C95.615 76.3265 94.1328 81.3327 94.0289 88.1965C94.0709 88.956 93.8557 89.4176 93.383 89.6129C93.2329 89.6771 93.0706 89.7085 92.907 89.7052C92.7435 89.7018 92.5826 89.6637 92.4353 89.5934C92.1275 89.4294 91.8909 89.1602 91.7697 88.8364C91.5421 88.2665 91.4596 86.4366 91.5223 83.3466C91.6311 77.6062 91.9033 72.6781 92.3388 68.5625C92.7595 64.4126 93.3294 60.056 94.0487 55.4926C94.1399 54.714 94.3107 53.9466 94.5584 53.202C94.6188 53.0187 94.7174 52.85 94.8478 52.7066C94.9782 52.5632 95.1375 52.4483 95.3156 52.3692C95.4851 52.3113 95.6668 52.2971 95.8435 52.3278C96.0201 52.3586 96.1859 52.4334 96.3251 52.545C96.5966 52.7205 96.8039 52.9773 96.9165 53.2777C97.1095 53.7661 97.0897 54.5182 96.8547 55.5439C96.1173 59.1581 95.5028 63.054 95.0112 67.2315C94.4701 71.6989 94.2417 74.6928 94.3258 76.2134Z" fill="white"/>
<path d="M110.023 72.3742C110.717 70.6268 111.537 68.9302 112.475 67.2972C113.653 65.3435 114.529 64.2544 115.105 64.0297C115.242 63.9762 115.389 63.9508 115.537 63.955C115.685 63.9592 115.83 63.9929 115.964 64.0541C116.084 64.0988 116.193 64.1671 116.285 64.2549C116.378 64.3426 116.451 64.448 116.501 64.5645C116.633 64.8901 116.54 65.5413 116.224 66.5182C115.812 67.7374 115.554 69.0022 115.456 70.2838C117.931 64.641 119.917 61.5274 121.415 60.943C121.709 60.8194 122.039 60.8081 122.34 60.9112C122.495 60.9589 122.636 61.0406 122.753 61.1502C122.871 61.2598 122.961 61.3944 123.018 61.5437C123.211 62.0321 123.084 62.7989 122.635 63.8441C120.678 68.4938 120.133 71.8972 120.999 74.0543C121.351 74.9335 121.763 75.5033 122.236 75.7638L123.258 76.3523C123.468 76.4615 123.628 76.6446 123.706 76.8651C123.814 77.1607 123.803 77.4861 123.674 77.7736C123.615 77.9438 123.52 78.0997 123.395 78.2307C123.27 78.3617 123.118 78.4648 122.949 78.533C122.373 78.7577 121.696 78.6031 120.918 78.0691C119.949 77.4028 119.212 76.4591 118.804 75.3657C118.165 73.6781 117.98 71.8555 118.267 70.0762C118.417 69.0987 118.639 68.1331 118.931 67.1873C117.886 68.869 116.979 70.9749 116.209 73.5049C115.67 75.2981 115.311 77.1393 115.137 79.0019C115.043 79.9348 114.727 80.5046 114.187 80.7114C113.591 80.9434 113.165 80.7309 112.903 80.0764C112.621 79.3699 112.528 77.7223 112.623 75.1337C112.686 73.5303 112.839 71.9315 113.081 70.3449C111.006 73.7833 109.995 77.7435 110.047 82.2254C110.025 83.2316 109.708 83.8518 109.097 84.0912C108.968 84.1448 108.828 84.1686 108.688 84.1605C108.549 84.1525 108.412 84.1129 108.291 84.0448C108.018 83.9157 107.808 83.687 107.704 83.4074C107.295 82.3915 107.137 80.3304 107.231 77.2241C107.29 74.1421 107.645 71.0726 108.291 68.0567C108.711 66.0786 109.206 64.9772 109.775 64.7526C110.3 64.5491 110.672 64.7232 110.891 65.2752C110.988 65.5194 110.906 66.252 110.644 67.473C110.244 69.7181 110.037 71.3518 110.023 72.3742Z" fill="white"/>
<path d="M134.01 68.0592C133.864 69.1415 133.633 70.2109 133.32 71.2583C132.756 73.0313 131.931 74.1286 130.846 74.5502C129.904 74.9165 128.996 74.7627 128.124 74.0887C127.533 73.6057 127.083 72.976 126.82 72.2645C126.056 70.3499 125.823 67.9998 126.122 65.2143C126.452 62.1128 127.305 59.499 128.681 57.3728C129.581 55.9857 130.616 55.0651 131.786 54.6109C132.455 54.3258 133.21 54.3109 133.889 54.5694C134.151 54.6613 134.391 54.8067 134.592 54.996C134.793 55.1854 134.952 55.4144 135.057 55.6683C135.231 56.235 135.293 56.8294 135.24 57.4192C135.576 57.6035 135.846 57.8836 136.017 58.2227C136.161 58.5865 136.153 59.2752 135.995 60.2935C135.813 61.6033 135.754 62.9268 135.819 64.2472C135.872 65.942 136.077 67.2371 136.433 68.1325C136.67 68.799 137.161 69.3482 137.801 69.6637C138.23 69.7763 138.672 69.8354 139.115 69.8395C139.361 69.852 139.597 69.9383 139.791 70.0866C139.986 70.235 140.13 70.4385 140.204 70.6698C140.269 70.8206 140.298 70.984 140.29 71.1477C140.282 71.3113 140.236 71.471 140.157 71.6149C139.993 71.9344 139.714 72.1819 139.375 72.3084C138.43 72.6764 137.452 72.5787 136.44 72.0154C135.578 71.523 134.922 70.7439 134.589 69.8175C134.449 69.4675 134.256 68.8814 134.01 68.0592ZM133.884 58.2764C133.59 58.0154 133.244 57.819 132.867 57.7001C132.573 57.6128 132.258 57.6249 131.972 57.7343C130.652 58.252 129.669 59.9614 129.022 62.8626C128.324 66.0649 128.324 68.5452 129.022 70.3035C129.136 70.6573 129.361 70.9666 129.663 71.1875C129.794 71.2672 129.943 71.3132 130.097 71.3213C130.251 71.3294 130.405 71.2994 130.544 71.2339C131.382 70.9083 132.009 69.6482 132.424 67.4536C132.732 65.7408 132.941 64.0124 133.053 62.2765C133.112 61.2867 133.234 60.3015 133.417 59.3265C133.521 58.9562 133.678 58.6026 133.884 58.2764Z" fill="white"/>
<path d="M144.836 49.5292C144.378 51.8652 144.108 54.2332 144.027 56.6111C143.874 60.2172 144.1 62.7797 144.705 64.2987C144.821 64.6566 145.056 64.9649 145.373 65.173C145.521 65.2493 145.685 65.2904 145.851 65.293C146.018 65.2955 146.183 65.2594 146.333 65.1876C147.206 64.849 147.939 63.628 148.533 61.5245C148.907 60.2712 149.207 58.9976 149.431 57.7101C149.535 57.0116 149.783 56.5875 150.174 56.4377C150.28 56.3931 150.394 56.37 150.509 56.37C150.624 56.37 150.738 56.3931 150.844 56.4377C151.02 56.5129 151.161 56.6495 151.24 56.8211C151.496 57.461 151.217 59.2135 150.404 62.0789C149.435 65.5254 148.116 67.5743 146.445 68.2255C145.554 68.5723 144.647 68.4559 143.723 67.8763C143.149 67.5019 142.672 66.8409 142.293 65.8934C141.459 63.8046 141.097 61.1322 141.206 57.8761C141.226 57.0719 141.382 55.0881 141.674 51.9248C141.369 52.1624 141.037 52.364 140.684 52.5256C140.346 52.665 139.974 52.7065 139.613 52.6452C139.409 52.6239 139.214 52.5497 139.049 52.43C138.884 52.3103 138.754 52.1494 138.672 51.9639C138.502 51.5317 138.615 51.0897 139.019 50.633C139.133 50.5109 139.734 50.1446 140.825 49.5414C141.399 49.1777 141.946 48.7754 142.463 48.3375C142.759 46.4531 143.167 44.5875 143.683 42.7501C143.902 41.8576 144.166 40.9765 144.475 40.1102C144.722 39.516 145.004 39.1578 145.319 39.0357C145.456 38.9943 145.6 38.9816 145.742 38.9984C145.885 39.0152 146.022 39.0612 146.145 39.1334C146.403 39.2363 146.611 39.4329 146.727 39.6828C146.908 40.1322 146.774 41.2108 146.323 42.9186C146.076 43.7925 145.874 44.6785 145.72 45.5731C147.452 44.3032 148.738 43.5046 149.577 43.1774C150.537 42.803 151.177 43.0122 151.495 43.805C151.575 43.9797 151.604 44.1733 151.578 44.3634C151.551 44.5535 151.471 44.7324 151.346 44.8795C151.213 45.0505 150.795 45.3142 150.087 45.6683C149.782 45.766 148.594 46.6069 146.524 48.1909C145.945 48.6338 145.382 49.0799 144.836 49.5292Z" fill="white"/>
<path d="M157 61.8617C157.193 61.7887 157.402 61.7632 157.607 61.7875C157.812 61.8117 158.008 61.885 158.178 62.0009C158.458 62.178 158.67 62.4429 158.78 62.753C159.115 63.6556 159.233 64.6231 159.123 65.5785C159.029 66.7091 158.599 67.4271 157.829 67.725C157.06 68.023 156.446 67.7446 156.097 66.8483C155.734 65.8672 155.648 64.8067 155.85 63.7811C156.005 62.7392 156.388 62.0994 157 61.8617ZM161.756 24.4983C161.931 24.4233 162.122 24.3949 162.311 24.4159C162.5 24.4369 162.68 24.5066 162.833 24.618C163.113 24.8087 163.327 25.0798 163.446 25.3945C163.732 26.1027 163.738 27.6347 163.466 29.9905C162.346 39.6122 161.12 47.7605 159.789 54.4354C159.581 55.5319 159.467 56.2547 159.443 56.6015C159.326 57.6223 159.024 58.2303 158.535 58.4208C158.186 58.5551 157.792 58.477 157.379 58.1766C157.034 57.9517 156.767 57.6279 156.614 57.2486C156.424 56.7602 156.407 55.9959 156.57 54.936C156.611 54.6413 156.847 53.4635 157.278 51.4024C157.739 48.5712 158.205 45.7702 158.673 42.9993C158.817 42.0469 159.201 39.0676 159.826 34.0614C160.052 32.2998 160.235 30.916 160.376 29.9099C160.54 28.7117 160.667 27.4906 160.754 26.2468C160.828 25.3156 161.162 24.7344 161.756 24.5032V24.4983Z" fill="white"/>
</svg>
