<svg width="16" height="18" viewBox="0 0 16 18" fill="none" xmlns="http://www.w3.org/2000/svg">
<path fill-rule="evenodd" clip-rule="evenodd" d="M12.6875 5.25C12.6875 7.83883 10.5888 9.9375 8.00001 9.9375C5.41118 9.9375 3.31251 7.83883 3.31251 5.25C3.31251 2.66117 5.41118 0.5625 8.00001 0.5625C10.5888 0.5625 12.6875 2.66117 12.6875 5.25ZM10.8125 5.25C10.8125 6.8033 9.55331 8.0625 8.00001 8.0625C6.44671 8.0625 5.18751 6.8033 5.18751 5.25C5.18751 3.6967 6.44671 2.4375 8.00001 2.4375C9.55331 2.4375 10.8125 3.6967 10.8125 5.25Z" fill="#99A2AD"/>
<path fill-rule="evenodd" clip-rule="evenodd" d="M8.00003 10.875C5.54609 10.875 3.64428 11.1888 2.32449 11.8806C1.6504 12.2339 1.10487 12.6982 0.731106 13.2886C0.355141 13.8824 0.187531 14.5495 0.187531 15.25V15.5625C0.187524 16.7706 1.1669 17.75 2.37503 17.75H13.625C14.8336 17.75 15.8125 16.7697 15.8125 15.5621V15.25C15.8125 14.5495 15.6449 13.8824 15.2689 13.2886C14.8952 12.6982 14.3497 12.2339 13.6756 11.8806C12.3558 11.1888 10.454 10.875 8.00003 10.875ZM2.06253 15.25C2.06253 14.8568 2.15337 14.5473 2.3153 14.2915C2.47943 14.0323 2.75126 13.7739 3.19499 13.5413C4.11084 13.0612 5.64653 12.75 8.00003 12.75C10.3535 12.75 11.8892 13.0612 12.8051 13.5413C13.2488 13.7739 13.5206 14.0323 13.6848 14.2915C13.8467 14.5473 13.9375 14.8568 13.9375 15.25V15.5621C13.9375 15.7351 13.7972 15.875 13.625 15.875H2.37503C2.20244 15.875 2.06253 15.7351 2.06253 15.5625L2.06253 15.25Z" fill="#99A2AD"/>
</svg>
